<?xml version="1.0" encoding="UTF-8" standalone="no"?>
<!-- Created with Inkscape (http://www.inkscape.org/) -->

<svg
   version="1.1"
   id="svg6650"
   width="553.33331"
   height="360"
   viewBox="0 0 553.33331 360"
   sodipodi:docname="Fig5_Delta=0.svg"
   inkscape:version="1.2.2 (732a01da63, 2022-12-09, custom)"
   inkscape:export-filename="../a515b253/Fig5_Delta=0.pdf"
   inkscape:export-xdpi="265.12"
   inkscape:export-ydpi="265.12"
   xmlns:inkscape="http://www.inkscape.org/namespaces/inkscape"
   xmlns:sodipodi="http://sodipodi.sourceforge.net/DTD/sodipodi-0.dtd"
   xmlns="http://www.w3.org/2000/svg"
   xmlns:svg="http://www.w3.org/2000/svg">
  <defs
     id="defs6654">
    <clipPath
       clipPathUnits="userSpaceOnUse"
       id="clipPath6668">
      <path
         d="M 36,248 H 413 V 34 H 36 Z"
         id="path6666" />
    </clipPath>
    <clipPath
       clipPathUnits="userSpaceOnUse"
       id="clipPath6678">
      <path
         d="M 107,248 H 413 V 34 H 107 Z"
         id="path6676" />
    </clipPath>
    <clipPath
       clipPathUnits="userSpaceOnUse"
       id="clipPath6688">
      <path
         d="M 63,247 H 413 V 34 H 63 Z"
         id="path6686" />
    </clipPath>
    <clipPath
       clipPathUnits="userSpaceOnUse"
       id="clipPath6698">
      <path
         d="M 39,248 H 413 V 34 H 39 Z"
         id="path6696" />
    </clipPath>
  </defs>
  <sodipodi:namedview
     id="namedview6652"
     pagecolor="#ffffff"
     bordercolor="#666666"
     borderopacity="1.0"
     inkscape:showpageshadow="2"
     inkscape:pageopacity="0.0"
     inkscape:pagecheckerboard="0"
     inkscape:deskcolor="#d1d1d1"
     showgrid="false"
     inkscape:zoom="0.83477884"
     inkscape:cx="51.510649"
     inkscape:cy="151.53714"
     inkscape:window-width="1848"
     inkscape:window-height="1016"
     inkscape:window-x="72"
     inkscape:window-y="27"
     inkscape:window-maximized="1"
     inkscape:current-layer="g6658">
    <inkscape:page
       x="0"
       y="0"
       id="page6656"
       width="553.33331"
       height="360" />
  </sodipodi:namedview>
  <g
     id="g6658"
     inkscape:groupmode="layer"
     inkscape:label="Page 1"
     transform="matrix(1.3333333,0,0,-1.3333333,0,360)">
    <g
       id="g6660" />
    <g
       id="g6662"
       style="stroke:#ff00ff;stroke-opacity:1">
      <g
         id="g6664"
         clip-path="url(#clipPath6668)"
         style="stroke:#ff00ff;stroke-opacity:1">
        <path
           d="m 36.332,35.316 0.113,0.141 0.118,0.141 0.691,0.832 0.926,1.113 1.843,2.219 3.692,4.437 8.008,9.574 7.476,8.895 7.328,8.664 7.95,9.336 7.418,8.641 8.043,9.285 7.894,9.023 7.363,8.328 7.985,8.918 7.453,8.211 7.308,7.934 7.93,8.461 7.395,7.742 8.019,8.211 7.875,7.859 7.34,7.129 7.965,7.492 7.433,6.743 8.051,7.007 7.91,6.547 7.375,5.785 8,5.875 7.465,5.086 7.321,4.575 7.941,4.457 7.414,3.644 0.25,0.117 0.25,0.114 0.504,0.222 1.004,0.446 2.008,0.855 0.25,0.102 0.25,0.105 0.504,0.203 1.003,0.403 2.008,0.769 0.125,0.047 0.121,0.043 0.246,0.094 0.493,0.179 0.988,0.352 1.969,0.672 0.25,0.078 0.246,0.082 0.492,0.156 0.984,0.309 1.973,0.582 0.113,0.035 0.117,0.031 0.227,0.063 0.461,0.129 0.922,0.246 1.836,0.461 0.117,0.027 0.113,0.027 0.231,0.055 0.461,0.105 0.918,0.204 1.839,0.379 0.25,0.046 0.247,0.047 0.5,0.094 0.996,0.172 0.125,0.019 0.125,0.024 0.25,0.039 0.496,0.078 1,0.148 0.125,0.016 0.125,0.02 0.246,0.035 1,0.125 0.496,0.058 0.25,0.032 0.25,0.027 0.496,0.051 1,0.094 0.117,0.007 0.113,0.012 0.235,0.02 0.465,0.035 0.234,0.015 0.231,0.016 0.464,0.031 0.118,0.008 0.117,0.004 0.23,0.016 0.117,0.003 0.118,0.008 0.234,0.012 0.113,0.004 0.117,0.004 0.235,0.012 0.113,0.003 0.469,0.016 0.113,0.004 0.469,0.016 0.23,0.004 h 0.118 l 0.117,0.003 0.113,0.004 h 0.234 l 0.118,0.004 h 0.347 l 0.117,0.004 h 0.465 l 0.117,-0.004 h 0.348 l 0.117,-0.004 h 0.235 l 0.113,-0.004 h 0.117 l 0.117,-0.003 0.114,-0.004 h 0.113 l 0.113,-0.004 0.117,-0.004 0.227,-0.008 0.226,-0.004 0.118,-0.008 0.34,-0.011 0.457,-0.02 0.113,-0.008 0.113,-0.004 0.231,-0.011 0.457,-0.028 0.453,-0.031 0.457,-0.035 0.113,-0.008 0.117,-0.008 0.227,-0.019 0.457,-0.043 0.113,-0.008 0.113,-0.012 0.231,-0.023 0.453,-0.047 0.117,-0.012 0.34,-0.035 0.457,-0.055 0.91,-0.117 0.125,-0.016 0.125,-0.019 0.246,-0.035 0.496,-0.071 0.989,-0.16 0.25,-0.039 0.246,-0.043 0.496,-0.09 0.988,-0.191 0.125,-0.027 0.125,-0.024 0.246,-0.051 0.496,-0.105 0.989,-0.227 1.98,-0.5 0.117,-0.031 0.114,-0.031 0.23,-0.063 0.465,-0.132 0.922,-0.27 1.847,-0.59 0.118,-0.039 0.113,-0.039 0.23,-0.078 0.465,-0.16 0.922,-0.336 1.848,-0.719 0.25,-0.101 0.25,-0.106 0.5,-0.207 1.004,-0.437 2,-0.926 0.125,-0.063 0.125,-0.058 0.254,-0.125 0.5,-0.25 1,-0.512 2.003,-1.09 0.235,-0.133 0.23,-0.132 0.469,-0.27 0.938,-0.559 1.867,-1.164 3.742,-2.554 0.113,-0.082 0.113,-0.086 0.231,-0.168 0.457,-0.34 0.918,-0.692 1.836,-1.445 3.664,-3.117 0.125,-0.113 0.125,-0.11 0.25,-0.226 0.496,-0.453 0.992,-0.922 1.992,-1.922 3.977,-4.145 0.113,-0.125 0.117,-0.129 0.235,-0.253 0.461,-0.516 0.929,-1.047 1.856,-2.164 3.711,-4.602 8.047,-11.312 7.898,-12.996 7.371,-13.945 7.989,-17.258 7.46,-18.274 7.313,-20.093 7.934,-24.422 7.402,-25.434 0.516,-1.875 0.515,-1.894 1.035,-3.813 2.067,-7.789 0.129,-0.492 0.386,-1.489 0.516,-1.996 1.031,-4.039 0.133,-0.507 0.129,-0.512 0.258,-1.02 0.515,-2.058 0.258,-1.032 0.516,-2.078 0.258,-1.047"
           style="fill:none;stroke:#ff00ff;stroke-width:1.152;stroke-linecap:square;stroke-linejoin:miter;stroke-miterlimit:3.25;stroke-dasharray:none;stroke-opacity:1"
           id="path6670" />
      </g>
    </g>
    <g
       id="g6672"
       style="display:none">
      <g
         id="g6674"
         clip-path="url(#clipPath6678)">
        <path
           d="m 107.992,35.316 5.188,13.395 7.453,18.324 7.308,17.102 7.93,17.586 7.395,15.504 8.019,15.812 7.875,14.524 7.34,12.652 7.965,12.742 7.433,10.981 8.051,10.898 7.91,9.687 7.375,8.137 8,7.84 7.465,6.391 0.117,0.089 0.114,0.094 0.226,0.18 0.457,0.359 0.918,0.707 1.828,1.379 3.661,2.594 0.125,0.082 0.125,0.086 0.246,0.164 0.496,0.332 0.996,0.652 1.984,1.254 3.969,2.317 0.117,0.062 0.117,0.067 0.231,0.125 0.465,0.25 0.925,0.492 1.852,0.937 0.117,0.059 0.113,0.055 0.235,0.113 0.461,0.223 0.926,0.437 1.855,0.828 0.5,0.219 0.504,0.211 1.004,0.41 2.008,0.773 0.125,0.047 0.125,0.043 0.25,0.094 0.504,0.18 1.003,0.343 2.008,0.645 0.125,0.039 0.121,0.035 0.246,0.074 0.493,0.145 0.988,0.277 0.121,0.032 0.125,0.035 0.246,0.066 0.492,0.129 0.985,0.246 0.125,0.027 0.125,0.032 0.246,0.058 0.492,0.114 0.984,0.214 1.973,0.383 0.113,0.02 0.117,0.019 0.227,0.039 0.461,0.078 0.922,0.145 0.226,0.031 0.231,0.035 0.461,0.063 0.918,0.117 0.117,0.012 0.113,0.015 0.231,0.024 0.461,0.051 0.226,0.023 0.231,0.024 0.461,0.043 0.113,0.011 0.117,0.008 0.231,0.02 0.457,0.035 0.117,0.011 0.113,0.008 0.231,0.016 0.46,0.027 0.25,0.016 0.247,0.015 0.125,0.004 0.125,0.008 0.25,0.012 0.125,0.004 0.125,0.008 0.375,0.011 0.121,0.004 0.625,0.02 h 0.125 l 0.25,0.008 h 0.246 l 0.125,0.004 h 0.25 l 0.125,0.003 h 0.625 l 0.125,-0.003 h 0.246 l 0.125,-0.004 h 0.125 l 0.125,-0.004 h 0.125 l 0.25,-0.008 h 0.125 l 0.25,-0.008 0.121,-0.004 0.375,-0.012 0.125,-0.007 0.25,-0.008 0.125,-0.008 0.125,-0.004 0.246,-0.012 0.25,-0.015 0.25,-0.012 0.5,-0.031 0.117,-0.008 0.113,-0.008 0.235,-0.019 0.465,-0.036 0.117,-0.011 0.117,-0.008 0.231,-0.02 0.464,-0.043 0.235,-0.023 0.23,-0.023 0.469,-0.051 0.93,-0.113 0.117,-0.016 0.113,-0.012 0.235,-0.031 0.464,-0.066 0.93,-0.137 0.234,-0.039 0.231,-0.035 0.469,-0.079 0.929,-0.168 0.114,-0.019 0.113,-0.023 0.23,-0.043 0.453,-0.09 0.915,-0.192 1.824,-0.418 0.113,-0.031 0.117,-0.027 0.227,-0.059 0.457,-0.113 0.91,-0.246 1.824,-0.528 0.125,-0.035 0.125,-0.039 0.246,-0.074 0.496,-0.156 0.989,-0.324 1.98,-0.696 0.25,-0.094 0.246,-0.089 0.496,-0.188 0.989,-0.387 1.98,-0.82 0.117,-0.051 0.114,-0.05 0.23,-0.098 0.465,-0.207 0.922,-0.418 1.847,-0.875 3.696,-1.918 0.125,-0.067 0.375,-0.21 0.5,-0.278 1.004,-0.574 2,-1.195 4.007,-2.582 0.118,-0.078 0.117,-0.083 0.23,-0.16 0.469,-0.32 0.938,-0.652 1.867,-1.352 3.742,-2.867 7.332,-6.27 7.957,-7.777 7.422,-8.176 8.047,-9.851 7.898,-10.684 7.371,-10.863 7.989,-12.766 7.46,-12.836 7.313,-13.453 7.934,-15.562 7.402,-15.43 0.516,-1.109 0.515,-1.114 1.035,-2.238 2.067,-4.531 0.129,-0.289 0.386,-0.856 0.516,-1.148 1.031,-2.309 0.133,-0.289 0.129,-0.289 0.773,-1.746 1.032,-2.344"
           style="fill:none;stroke:#ff0000;stroke-width:1.152;stroke-linecap:square;stroke-linejoin:miter;stroke-miterlimit:3.25;stroke-dasharray:18.8114;stroke-dashoffset:0;stroke-opacity:1"
           id="path6680" />
      </g>
    </g>
    <g
       id="g6682"
       style="display:none">
      <g
         id="g6684"
         clip-path="url(#clipPath6688)">
        <path
           d="m 63.852,35.316 2.675,4.836 7.95,13.922 7.418,12.571 8.043,13.152 7.894,12.445 7.363,11.192 7.985,11.675 7.453,10.469 7.308,9.86 7.93,10.246 7.395,9.14 8.019,9.442 7.875,8.804 7.34,7.793 7.965,7.992 7.433,7.036 8.051,7.152 7.91,6.543 7.375,5.676 8,5.679 7.465,4.848 7.321,4.32 7.941,4.18 7.414,3.41 0.125,0.051 0.125,0.055 0.25,0.105 0.504,0.211 1.004,0.414 2.008,0.801 4.015,1.484 0.125,0.043 0.121,0.043 0.246,0.086 0.493,0.168 0.988,0.328 1.969,0.633 0.25,0.078 0.738,0.223 0.984,0.293 1.973,0.551 0.113,0.027 0.117,0.031 0.227,0.063 0.461,0.121 0.922,0.23 1.836,0.442 0.117,0.027 0.113,0.023 0.692,0.153 0.918,0.199 1.839,0.359 0.25,0.047 0.247,0.047 0.5,0.09 0.996,0.168 0.5,0.078 0.496,0.078 1,0.145 0.125,0.015 0.125,0.02 0.246,0.031 0.5,0.067 0.996,0.117 0.25,0.031 0.25,0.027 0.496,0.051 1,0.094 0.117,0.012 0.113,0.007 0.235,0.02 0.465,0.039 0.234,0.016 0.231,0.019 0.464,0.031 0.118,0.008 0.117,0.004 0.23,0.016 0.117,0.008 0.118,0.003 0.234,0.016 0.113,0.004 0.117,0.008 0.235,0.008 0.465,0.019 0.117,0.008 0.113,0.004 0.469,0.016 0.23,0.003 0.235,0.008 0.113,0.004 h 0.117 l 0.117,0.004 h 0.118 l 0.117,0.004 h 0.113 l 0.117,0.004 h 0.348 l 0.117,0.004 h 0.934 l 0.113,-0.004 h 0.234 l 0.114,-0.004 h 0.113 l 0.113,-0.004 h 0.117 l 0.114,-0.004 h 0.113 l 0.226,-0.008 h 0.118 l 0.453,-0.015 0.117,-0.004 0.34,-0.012 0.113,-0.008 0.231,-0.008 0.113,-0.003 0.113,-0.008 0.231,-0.012 0.113,-0.004 0.113,-0.008 0.227,-0.011 0.457,-0.028 0.113,-0.008 0.117,-0.007 0.227,-0.016 0.457,-0.035 0.113,-0.012 0.113,-0.008 0.231,-0.019 0.453,-0.039 0.117,-0.012 0.34,-0.035 0.457,-0.047 0.91,-0.102 0.25,-0.031 0.246,-0.031 0.496,-0.067 0.989,-0.14 0.25,-0.039 0.246,-0.039 0.496,-0.082 0.988,-0.176 0.25,-0.047 0.246,-0.047 0.496,-0.097 0.989,-0.208 1.98,-0.464 0.117,-0.028 0.114,-0.031 0.23,-0.059 0.465,-0.121 0.922,-0.254 1.847,-0.554 0.118,-0.035 0.113,-0.039 0.23,-0.075 0.465,-0.152 0.922,-0.316 1.848,-0.68 0.125,-0.047 0.125,-0.051 0.25,-0.097 0.5,-0.2 1.004,-0.414 2,-0.89 0.125,-0.055 0.125,-0.059 0.254,-0.121 0.5,-0.238 1,-0.492 2.003,-1.051 0.235,-0.125 0.23,-0.129 0.469,-0.262 0.938,-0.539 1.867,-1.129 3.742,-2.484 0.226,-0.164 0.231,-0.164 0.457,-0.332 0.918,-0.676 1.836,-1.41 3.664,-3.059 0.5,-0.437 0.496,-0.445 0.992,-0.911 1.992,-1.89 3.977,-4.082 0.113,-0.125 0.117,-0.129 0.235,-0.25 0.461,-0.508 0.929,-1.035 1.856,-2.137 3.711,-4.551 8.047,-11.183 7.898,-12.817 7.371,-13.687 7.989,-16.805 7.46,-17.609 7.313,-19.125 7.934,-22.895 7.402,-23.429 0.258,-0.852 0.258,-0.855 0.515,-1.723 1.035,-3.469 2.067,-7.062 0.129,-0.446 0.129,-0.449 0.257,-0.894 0.516,-1.801 1.031,-3.629 0.133,-0.457 0.129,-0.457 0.258,-0.918 0.515,-1.84 0.129,-0.465 0.129,-0.461 0.258,-0.926 0.387,-1.394 0.129,-0.469"
           style="fill:none;stroke:#0000ff;stroke-width:1.152;stroke-linecap:square;stroke-linejoin:miter;stroke-miterlimit:3.25;stroke-dasharray:11.2868;stroke-dashoffset:0;stroke-opacity:1"
           id="path6690" />
      </g>
    </g>
    <g
       id="g6692"
       style="display:none">
      <g
         id="g6694"
         clip-path="url(#clipPath6698)">
        <path
           d="m 40.508,35.316 3.207,4.082 8.008,10.133 7.476,9.383 7.328,9.125 7.95,9.801 7.418,9.051 8.043,9.699 7.894,9.394 7.363,8.649 7.985,9.23 7.453,8.473 7.308,8.164 7.93,8.676 7.395,7.918 8.019,8.367 7.875,7.977 7.34,7.218 7.965,7.555 7.433,6.781 8.051,7.024 7.91,6.543 7.375,5.761 8,5.84 7.465,5.035 7.321,4.52 7.941,4.394 7.414,3.586 0.125,0.055 0.125,0.059 0.25,0.109 0.504,0.223 1.004,0.433 2.008,0.84 0.5,0.203 0.504,0.203 1.003,0.391 2.008,0.758 0.125,0.043 0.121,0.047 0.246,0.089 0.493,0.176 0.988,0.344 1.969,0.66 0.25,0.078 0.738,0.235 0.984,0.3 1.973,0.571 0.113,0.031 0.117,0.031 0.227,0.063 0.461,0.125 0.922,0.242 1.836,0.449 0.117,0.027 0.113,0.028 0.231,0.051 0.461,0.105 0.918,0.199 1.839,0.371 0.25,0.047 0.247,0.043 0.5,0.09 0.996,0.172 0.5,0.078 0.496,0.078 1,0.145 0.125,0.015 0.125,0.02 0.246,0.031 1,0.125 0.496,0.059 0.125,0.011 0.125,0.016 0.25,0.024 0.496,0.05 1,0.094 0.117,0.008 0.113,0.012 0.235,0.015 0.465,0.035 0.117,0.012 0.117,0.008 0.231,0.016 0.464,0.027 0.235,0.015 0.23,0.012 0.117,0.004 0.118,0.008 0.234,0.012 0.113,0.004 0.117,0.003 0.235,0.012 0.113,0.004 0.469,0.016 0.113,0.004 0.235,0.007 h 0.117 l 0.117,0.004 0.23,0.004 0.118,0.004 h 0.117 l 0.113,0.004 h 0.117 l 0.117,0.004 h 0.348 l 0.117,0.004 h 0.699 l 0.118,-0.004 h 0.347 l 0.117,-0.004 h 0.118 l 0.113,-0.004 h 0.117 l 0.117,-0.004 0.114,-0.004 h 0.113 l 0.113,-0.004 0.117,-0.003 0.114,-0.004 h 0.113 l 0.226,-0.008 0.118,-0.004 0.113,-0.004 0.227,-0.012 0.457,-0.019 0.113,-0.004 0.113,-0.008 0.231,-0.012 0.457,-0.027 0.113,-0.008 0.113,-0.004 0.227,-0.015 0.457,-0.036 0.113,-0.007 0.117,-0.008 0.227,-0.02 0.457,-0.039 0.113,-0.011 0.113,-0.008 0.231,-0.024 0.453,-0.047 0.117,-0.011 0.34,-0.035 0.457,-0.055 0.91,-0.113 0.25,-0.032 0.246,-0.035 0.496,-0.074 0.989,-0.152 0.125,-0.02 0.125,-0.023 0.246,-0.043 0.496,-0.086 0.988,-0.188 0.25,-0.047 0.246,-0.05 0.496,-0.106 0.989,-0.219 1.98,-0.488 0.117,-0.031 0.114,-0.031 0.23,-0.063 0.465,-0.129 0.922,-0.265 1.847,-0.579 0.118,-0.035 0.113,-0.039 0.23,-0.078 0.465,-0.156 0.922,-0.328 1.848,-0.703 0.125,-0.047 0.375,-0.153 0.5,-0.207 1.004,-0.425 2,-0.907 0.125,-0.062 0.125,-0.059 0.254,-0.121 0.5,-0.242 1,-0.504 2.003,-1.066 0.235,-0.133 0.23,-0.129 0.469,-0.266 0.938,-0.543 1.867,-1.144 3.742,-2.508 0.113,-0.078 0.113,-0.082 0.231,-0.168 0.457,-0.332 0.918,-0.68 1.836,-1.414 3.664,-3.066 0.5,-0.438 0.496,-0.445 0.992,-0.91 1.992,-1.891 3.977,-4.074 0.113,-0.125 0.117,-0.125 0.235,-0.254 0.461,-0.508 0.929,-1.031 1.856,-2.129 3.711,-4.543 8.047,-11.18 7.898,-12.886 7.371,-13.872 7.989,-17.23 7.46,-18.313 7.313,-20.21 7.934,-24.665 7.402,-25.8 0.129,-0.473 0.129,-0.477 0.258,-0.957 0.515,-1.918 1.035,-3.882 2.067,-7.942 0.258,-1.008 0.257,-1.015 0.516,-2.035 1.031,-4.118 0.133,-0.519 0.129,-0.52 0.258,-1.043 0.515,-2.097 0.258,-1.055 0.258,-1.058 0.129,-0.528 0.129,-0.531 0.129,-0.535 0.008,-0.028"
           style="fill:none;stroke:#008000;stroke-width:1.152;stroke-linecap:square;stroke-linejoin:miter;stroke-miterlimit:3.25;stroke-dasharray:7.52457;stroke-dashoffset:0;stroke-opacity:1"
           id="path6700" />
        <text
           xml:space="preserve"
           transform="matrix(1,0,0,-1,62.054547,228.46172)"
           style="font-variant:normal;font-weight:normal;font-size:14.3994px;font-family:MathematicaSans;-inkscape-font-specification:MathematicaSans;writing-mode:lr-tb;fill:#000000;fill-opacity:1;fill-rule:nonzero;stroke:none"
           id="text6704"><tspan
             x="0"
             y="0"
             id="tspan6702">Δ</tspan></text>
        <text
           xml:space="preserve"
           transform="matrix(1,0,0,-1,72.191734,228.46172)"
           style="font-variant:normal;font-weight:normal;font-size:14.3994px;font-family:MathematicaSans;-inkscape-font-specification:MathematicaSans;writing-mode:lr-tb;fill:#000000;fill-opacity:1;fill-rule:nonzero;stroke:none"
           id="text6708"><tspan
             x="0"
             y="0"
             id="tspan6706">=</tspan></text>
        <text
           xml:space="preserve"
           transform="matrix(1,0,0,-1,80.586593,228.46172)"
           style="font-variant:normal;font-weight:normal;font-size:14.3994px;font-family:Arial;-inkscape-font-specification:ArialMT;writing-mode:lr-tb;fill:#000000;fill-opacity:1;fill-rule:nonzero;stroke:none"
           id="text6712"><tspan
             x="0"
             y="0"
             id="tspan6710">0</tspan></text>
      </g>
    </g>
    <g
       id="g6714">
      <path
         d="M 412.559,35.316 H 36.332"
         style="fill:none;stroke:#000000;stroke-width:0.144;stroke-linecap:square;stroke-linejoin:miter;stroke-miterlimit:3.25;stroke-dasharray:none;stroke-opacity:1"
         id="path6716" />
      <path
         d="M 36.332,35.316 V 267.84"
         style="fill:none;stroke:#000000;stroke-width:0.144;stroke-linecap:square;stroke-linejoin:miter;stroke-miterlimit:3.25;stroke-dasharray:none;stroke-opacity:1"
         id="path6718" />
      <path
         d="M 36.332,267.84 H 412.559"
         style="fill:none;stroke:#000000;stroke-width:0.144;stroke-linecap:square;stroke-linejoin:miter;stroke-miterlimit:3.25;stroke-dasharray:none;stroke-opacity:1"
         id="path6720" />
      <path
         d="M 412.559,267.84 V 35.316"
         style="fill:none;stroke:#000000;stroke-width:0.144;stroke-linecap:square;stroke-linejoin:miter;stroke-miterlimit:3.25;stroke-dasharray:none;stroke-opacity:1"
         id="path6722" />
      <path
         d="m 136.305,35.316 v 3.766"
         style="fill:none;stroke:#000000;stroke-width:0.072;stroke-linecap:butt;stroke-linejoin:miter;stroke-miterlimit:3.25;stroke-dasharray:none;stroke-opacity:1"
         id="path6724" />
      <text
         xml:space="preserve"
         transform="matrix(1,0,0,-1,130.69933,23.158135)"
         style="font-variant:normal;font-weight:bold;font-size:10.0791px;font-family:Arial;-inkscape-font-specification:Arial-BoldMT;writing-mode:lr-tb;fill:#000000;fill-opacity:1;fill-rule:nonzero;stroke:none"
         id="text6728"><tspan
           x="0 5.6039805"
           y="0"
           sodipodi:role="line"
           id="tspan6726">20</tspan></text>
      <path
         d="m 218.516,35.316 v 3.766"
         style="fill:none;stroke:#000000;stroke-width:0.072;stroke-linecap:butt;stroke-linejoin:miter;stroke-miterlimit:3.25;stroke-dasharray:none;stroke-opacity:1"
         id="path6730" />
      <text
         xml:space="preserve"
         transform="matrix(1,0,0,-1,212.91181,23.158135)"
         style="font-variant:normal;font-weight:bold;font-size:10.0791px;font-family:Arial;-inkscape-font-specification:Arial-BoldMT;writing-mode:lr-tb;fill:#000000;fill-opacity:1;fill-rule:nonzero;stroke:none"
         id="text6734"><tspan
           x="0 5.6039805"
           y="0"
           sodipodi:role="line"
           id="tspan6732">30</tspan></text>
      <path
         d="m 276.848,35.316 v 3.766"
         style="fill:none;stroke:#000000;stroke-width:0.072;stroke-linecap:butt;stroke-linejoin:miter;stroke-miterlimit:3.25;stroke-dasharray:none;stroke-opacity:1"
         id="path6736" />
      <text
         xml:space="preserve"
         transform="matrix(1,0,0,-1,271.24248,23.158135)"
         style="font-variant:normal;font-weight:bold;font-size:10.0791px;font-family:Arial;-inkscape-font-specification:Arial-BoldMT;writing-mode:lr-tb;fill:#000000;fill-opacity:1;fill-rule:nonzero;stroke:none"
         id="text6740"><tspan
           x="0 5.6039805"
           y="0"
           sodipodi:role="line"
           id="tspan6738">40</tspan></text>
      <path
         d="m 322.094,35.316 v 3.766"
         style="fill:none;stroke:#000000;stroke-width:0.072;stroke-linecap:butt;stroke-linejoin:miter;stroke-miterlimit:3.25;stroke-dasharray:none;stroke-opacity:1"
         id="path6742" />
      <text
         xml:space="preserve"
         transform="matrix(1,0,0,-1,316.48727,23.158135)"
         style="font-variant:normal;font-weight:bold;font-size:10.0791px;font-family:Arial;-inkscape-font-specification:Arial-BoldMT;writing-mode:lr-tb;fill:#000000;fill-opacity:1;fill-rule:nonzero;stroke:none"
         id="text6746"><tspan
           x="0 5.6039805"
           y="0"
           sodipodi:role="line"
           id="tspan6744">50</tspan></text>
      <path
         d="m 359.059,35.316 v 3.766"
         style="fill:none;stroke:#000000;stroke-width:0.072;stroke-linecap:butt;stroke-linejoin:miter;stroke-miterlimit:3.25;stroke-dasharray:none;stroke-opacity:1"
         id="path6748" />
      <text
         xml:space="preserve"
         transform="matrix(1,0,0,-1,353.45495,23.158135)"
         style="font-variant:normal;font-weight:bold;font-size:10.0791px;font-family:Arial;-inkscape-font-specification:Arial-BoldMT;writing-mode:lr-tb;fill:#000000;fill-opacity:1;fill-rule:nonzero;stroke:none"
         id="text6752"><tspan
           x="0 5.6039805"
           y="0"
           sodipodi:role="line"
           id="tspan6750">60</tspan></text>
      <path
         d="m 390.316,35.316 v 3.766"
         style="fill:none;stroke:#000000;stroke-width:0.072;stroke-linecap:butt;stroke-linejoin:miter;stroke-miterlimit:3.25;stroke-dasharray:none;stroke-opacity:1"
         id="path6754" />
      <text
         xml:space="preserve"
         transform="matrix(1,0,0,-1,384.71069,23.158135)"
         style="font-variant:normal;font-weight:bold;font-size:10.0791px;font-family:Arial;-inkscape-font-specification:Arial-BoldMT;writing-mode:lr-tb;fill:#000000;fill-opacity:1;fill-rule:nonzero;stroke:none"
         id="text6758"><tspan
           x="0 5.6039805"
           y="0"
           sodipodi:role="line"
           id="tspan6756">70</tspan></text>
      <path
         d="m 63.984,35.316 v 2.403"
         style="fill:none;stroke:#000000;stroke-width:0.072;stroke-linecap:butt;stroke-linejoin:miter;stroke-miterlimit:3.25;stroke-dasharray:none;stroke-opacity:1"
         id="path6760" />
      <path
         d="m 91.059,35.316 v 2.403"
         style="fill:none;stroke:#000000;stroke-width:0.072;stroke-linecap:butt;stroke-linejoin:miter;stroke-miterlimit:3.25;stroke-dasharray:none;stroke-opacity:1"
         id="path6762" />
      <path
         d="m 114.941,35.316 v 2.403"
         style="fill:none;stroke:#000000;stroke-width:0.072;stroke-linecap:butt;stroke-linejoin:miter;stroke-miterlimit:3.25;stroke-dasharray:none;stroke-opacity:1"
         id="path6764" />
      <path
         d="m 155.629,35.316 v 2.403"
         style="fill:none;stroke:#000000;stroke-width:0.072;stroke-linecap:butt;stroke-linejoin:miter;stroke-miterlimit:3.25;stroke-dasharray:none;stroke-opacity:1"
         id="path6766" />
      <path
         d="m 173.273,35.316 v 2.403"
         style="fill:none;stroke:#000000;stroke-width:0.072;stroke-linecap:butt;stroke-linejoin:miter;stroke-miterlimit:3.25;stroke-dasharray:none;stroke-opacity:1"
         id="path6768" />
      <path
         d="m 189.504,35.316 v 2.403"
         style="fill:none;stroke:#000000;stroke-width:0.072;stroke-linecap:butt;stroke-linejoin:miter;stroke-miterlimit:3.25;stroke-dasharray:none;stroke-opacity:1"
         id="path6770" />
      <path
         d="m 204.527,35.316 v 2.403"
         style="fill:none;stroke:#000000;stroke-width:0.072;stroke-linecap:butt;stroke-linejoin:miter;stroke-miterlimit:3.25;stroke-dasharray:none;stroke-opacity:1"
         id="path6772" />
      <path
         d="m 231.602,35.316 v 2.403"
         style="fill:none;stroke:#000000;stroke-width:0.072;stroke-linecap:butt;stroke-linejoin:miter;stroke-miterlimit:3.25;stroke-dasharray:none;stroke-opacity:1"
         id="path6774" />
      <path
         d="m 243.895,35.316 v 2.403"
         style="fill:none;stroke:#000000;stroke-width:0.072;stroke-linecap:butt;stroke-linejoin:miter;stroke-miterlimit:3.25;stroke-dasharray:none;stroke-opacity:1"
         id="path6776" />
      <path
         d="m 255.484,35.316 v 2.403"
         style="fill:none;stroke:#000000;stroke-width:0.072;stroke-linecap:butt;stroke-linejoin:miter;stroke-miterlimit:3.25;stroke-dasharray:none;stroke-opacity:1"
         id="path6778" />
      <path
         d="m 266.449,35.316 v 2.403"
         style="fill:none;stroke:#000000;stroke-width:0.072;stroke-linecap:butt;stroke-linejoin:miter;stroke-miterlimit:3.25;stroke-dasharray:none;stroke-opacity:1"
         id="path6780" />
      <path
         d="m 286.742,35.316 v 2.403"
         style="fill:none;stroke:#000000;stroke-width:0.072;stroke-linecap:butt;stroke-linejoin:miter;stroke-miterlimit:3.25;stroke-dasharray:none;stroke-opacity:1"
         id="path6782" />
      <path
         d="m 296.172,35.316 v 2.403"
         style="fill:none;stroke:#000000;stroke-width:0.072;stroke-linecap:butt;stroke-linejoin:miter;stroke-miterlimit:3.25;stroke-dasharray:none;stroke-opacity:1"
         id="path6784" />
      <path
         d="m 305.188,35.316 v 2.403"
         style="fill:none;stroke:#000000;stroke-width:0.072;stroke-linecap:butt;stroke-linejoin:miter;stroke-miterlimit:3.25;stroke-dasharray:none;stroke-opacity:1"
         id="path6786" />
      <path
         d="m 313.816,35.316 v 2.403"
         style="fill:none;stroke:#000000;stroke-width:0.072;stroke-linecap:butt;stroke-linejoin:miter;stroke-miterlimit:3.25;stroke-dasharray:none;stroke-opacity:1"
         id="path6788" />
      <path
         d="m 330.047,35.316 v 2.403"
         style="fill:none;stroke:#000000;stroke-width:0.072;stroke-linecap:butt;stroke-linejoin:miter;stroke-miterlimit:3.25;stroke-dasharray:none;stroke-opacity:1"
         id="path6790" />
      <path
         d="m 337.699,35.316 v 2.403"
         style="fill:none;stroke:#000000;stroke-width:0.072;stroke-linecap:butt;stroke-linejoin:miter;stroke-miterlimit:3.25;stroke-dasharray:none;stroke-opacity:1"
         id="path6792" />
      <path
         d="m 345.07,35.316 v 2.403"
         style="fill:none;stroke:#000000;stroke-width:0.072;stroke-linecap:butt;stroke-linejoin:miter;stroke-miterlimit:3.25;stroke-dasharray:none;stroke-opacity:1"
         id="path6794" />
      <path
         d="m 352.188,35.316 v 2.403"
         style="fill:none;stroke:#000000;stroke-width:0.072;stroke-linecap:butt;stroke-linejoin:miter;stroke-miterlimit:3.25;stroke-dasharray:none;stroke-opacity:1"
         id="path6796" />
      <path
         d="m 365.707,35.316 v 2.403"
         style="fill:none;stroke:#000000;stroke-width:0.072;stroke-linecap:butt;stroke-linejoin:miter;stroke-miterlimit:3.25;stroke-dasharray:none;stroke-opacity:1"
         id="path6798" />
      <path
         d="m 372.145,35.316 v 2.403"
         style="fill:none;stroke:#000000;stroke-width:0.072;stroke-linecap:butt;stroke-linejoin:miter;stroke-miterlimit:3.25;stroke-dasharray:none;stroke-opacity:1"
         id="path6800" />
      <path
         d="m 378.387,35.316 v 2.403"
         style="fill:none;stroke:#000000;stroke-width:0.072;stroke-linecap:butt;stroke-linejoin:miter;stroke-miterlimit:3.25;stroke-dasharray:none;stroke-opacity:1"
         id="path6802" />
      <path
         d="m 384.438,35.316 v 2.403"
         style="fill:none;stroke:#000000;stroke-width:0.072;stroke-linecap:butt;stroke-linejoin:miter;stroke-miterlimit:3.25;stroke-dasharray:none;stroke-opacity:1"
         id="path6804" />
      <path
         d="m 396.027,35.316 v 2.403"
         style="fill:none;stroke:#000000;stroke-width:0.072;stroke-linecap:butt;stroke-linejoin:miter;stroke-miterlimit:3.25;stroke-dasharray:none;stroke-opacity:1"
         id="path6806" />
      <path
         d="m 401.582,35.316 v 2.403"
         style="fill:none;stroke:#000000;stroke-width:0.072;stroke-linecap:butt;stroke-linejoin:miter;stroke-miterlimit:3.25;stroke-dasharray:none;stroke-opacity:1"
         id="path6808" />
      <path
         d="m 406.992,35.316 v 2.403"
         style="fill:none;stroke:#000000;stroke-width:0.072;stroke-linecap:butt;stroke-linejoin:miter;stroke-miterlimit:3.25;stroke-dasharray:none;stroke-opacity:1"
         id="path6810" />
      <path
         d="m 412.258,35.316 v 2.403"
         style="fill:none;stroke:#000000;stroke-width:0.072;stroke-linecap:butt;stroke-linejoin:miter;stroke-miterlimit:3.25;stroke-dasharray:none;stroke-opacity:1"
         id="path6812" />
      <path
         d="m 36.332,35.316 h 3.762"
         style="fill:none;stroke:#000000;stroke-width:0.072;stroke-linecap:butt;stroke-linejoin:miter;stroke-miterlimit:3.25;stroke-dasharray:none;stroke-opacity:1"
         id="path6814" />
      <text
         xml:space="preserve"
         transform="matrix(1,0,0,-1,20.16,31.318135)"
         style="font-variant:normal;font-weight:bold;font-size:10.0791px;font-family:Arial;-inkscape-font-specification:Arial-BoldMT;writing-mode:lr-tb;fill:#000000;fill-opacity:1;fill-rule:nonzero;stroke:none"
         id="text6818"><tspan
           x="0 5.6039805 8.3958921"
           y="0"
           sodipodi:role="line"
           id="tspan6816">0.1</tspan></text>
      <path
         d="m 36.332,98.949 h 3.762"
         style="fill:none;stroke:#000000;stroke-width:0.072;stroke-linecap:butt;stroke-linejoin:miter;stroke-miterlimit:3.25;stroke-dasharray:none;stroke-opacity:1"
         id="path6820" />
      <text
         xml:space="preserve"
         transform="matrix(1,0,0,-1,20.16,94.950913)"
         style="font-variant:normal;font-weight:bold;font-size:10.0791px;font-family:Arial;-inkscape-font-specification:Arial-BoldMT;writing-mode:lr-tb;fill:#000000;fill-opacity:1;fill-rule:nonzero;stroke:none"
         id="text6824"><tspan
           x="0 5.6039805 8.3958921"
           y="0"
           sodipodi:role="line"
           id="tspan6822">0.2</tspan></text>
      <path
         d="m 36.332,183.07 h 3.762"
         style="fill:none;stroke:#000000;stroke-width:0.072;stroke-linecap:butt;stroke-linejoin:miter;stroke-miterlimit:3.25;stroke-dasharray:none;stroke-opacity:1"
         id="path6826" />
      <text
         xml:space="preserve"
         transform="matrix(1,0,0,-1,20.16,179.06887)"
         style="font-variant:normal;font-weight:bold;font-size:10.0791px;font-family:Arial;-inkscape-font-specification:Arial-BoldMT;writing-mode:lr-tb;fill:#000000;fill-opacity:1;fill-rule:nonzero;stroke:none"
         id="text6830"><tspan
           x="0 5.6039805 8.3958921"
           y="0"
           sodipodi:role="line"
           id="tspan6828">0.5</tspan></text>
      <path
         d="m 36.332,246.703 h 3.762"
         style="fill:none;stroke:#000000;stroke-width:0.072;stroke-linecap:butt;stroke-linejoin:miter;stroke-miterlimit:3.25;stroke-dasharray:none;stroke-opacity:1"
         id="path6832" />
      <text
         xml:space="preserve"
         transform="matrix(1,0,0,-1,28.56625,242.70165)"
         style="font-variant:normal;font-weight:bold;font-size:10.0791px;font-family:Arial;-inkscape-font-specification:Arial-BoldMT;writing-mode:lr-tb;fill:#000000;fill-opacity:1;fill-rule:nonzero;stroke:none"
         id="text6836"><tspan
           x="0"
           y="0"
           id="tspan6834">1</tspan></text>
      <path
         d="M 36.332,72.539 H 38.73"
         style="fill:none;stroke:#000000;stroke-width:0.072;stroke-linecap:butt;stroke-linejoin:miter;stroke-miterlimit:3.25;stroke-dasharray:none;stroke-opacity:1"
         id="path6838" />
      <path
         d="M 36.332,136.172 H 38.73"
         style="fill:none;stroke:#000000;stroke-width:0.072;stroke-linecap:butt;stroke-linejoin:miter;stroke-miterlimit:3.25;stroke-dasharray:none;stroke-opacity:1"
         id="path6840" />
      <path
         d="M 36.332,162.582 H 38.73"
         style="fill:none;stroke:#000000;stroke-width:0.072;stroke-linecap:butt;stroke-linejoin:miter;stroke-miterlimit:3.25;stroke-dasharray:none;stroke-opacity:1"
         id="path6842" />
      <path
         d="M 36.332,199.805 H 38.73"
         style="fill:none;stroke:#000000;stroke-width:0.072;stroke-linecap:butt;stroke-linejoin:miter;stroke-miterlimit:3.25;stroke-dasharray:none;stroke-opacity:1"
         id="path6844" />
      <path
         d="M 36.332,213.957 H 38.73"
         style="fill:none;stroke:#000000;stroke-width:0.072;stroke-linecap:butt;stroke-linejoin:miter;stroke-miterlimit:3.25;stroke-dasharray:none;stroke-opacity:1"
         id="path6846" />
      <path
         d="M 36.332,226.215 H 38.73"
         style="fill:none;stroke:#000000;stroke-width:0.072;stroke-linecap:butt;stroke-linejoin:miter;stroke-miterlimit:3.25;stroke-dasharray:none;stroke-opacity:1"
         id="path6848" />
      <path
         d="M 36.332,237.027 H 38.73"
         style="fill:none;stroke:#000000;stroke-width:0.072;stroke-linecap:butt;stroke-linejoin:miter;stroke-miterlimit:3.25;stroke-dasharray:none;stroke-opacity:1"
         id="path6850" />
      <path
         d="M 36.332,255.453 H 38.73"
         style="fill:none;stroke:#000000;stroke-width:0.072;stroke-linecap:butt;stroke-linejoin:miter;stroke-miterlimit:3.25;stroke-dasharray:none;stroke-opacity:1"
         id="path6852" />
      <path
         d="M 36.332,263.438 H 38.73"
         style="fill:none;stroke:#000000;stroke-width:0.072;stroke-linecap:butt;stroke-linejoin:miter;stroke-miterlimit:3.25;stroke-dasharray:none;stroke-opacity:1"
         id="path6854" />
      <path
         d="m 136.305,267.84 v -3.762"
         style="fill:none;stroke:#000000;stroke-width:0.072;stroke-linecap:butt;stroke-linejoin:miter;stroke-miterlimit:3.25;stroke-dasharray:none;stroke-opacity:1"
         id="path6856" />
      <path
         d="m 218.516,267.84 v -3.762"
         style="fill:none;stroke:#000000;stroke-width:0.072;stroke-linecap:butt;stroke-linejoin:miter;stroke-miterlimit:3.25;stroke-dasharray:none;stroke-opacity:1"
         id="path6858" />
      <path
         d="m 276.848,267.84 v -3.762"
         style="fill:none;stroke:#000000;stroke-width:0.072;stroke-linecap:butt;stroke-linejoin:miter;stroke-miterlimit:3.25;stroke-dasharray:none;stroke-opacity:1"
         id="path6860" />
      <path
         d="m 322.094,267.84 v -3.762"
         style="fill:none;stroke:#000000;stroke-width:0.072;stroke-linecap:butt;stroke-linejoin:miter;stroke-miterlimit:3.25;stroke-dasharray:none;stroke-opacity:1"
         id="path6862" />
      <path
         d="m 359.059,267.84 v -3.762"
         style="fill:none;stroke:#000000;stroke-width:0.072;stroke-linecap:butt;stroke-linejoin:miter;stroke-miterlimit:3.25;stroke-dasharray:none;stroke-opacity:1"
         id="path6864" />
      <path
         d="m 390.316,267.84 v -3.762"
         style="fill:none;stroke:#000000;stroke-width:0.072;stroke-linecap:butt;stroke-linejoin:miter;stroke-miterlimit:3.25;stroke-dasharray:none;stroke-opacity:1"
         id="path6866" />
      <path
         d="m 63.984,267.84 v -2.399"
         style="fill:none;stroke:#000000;stroke-width:0.072;stroke-linecap:butt;stroke-linejoin:miter;stroke-miterlimit:3.25;stroke-dasharray:none;stroke-opacity:1"
         id="path6868" />
      <path
         d="m 91.059,267.84 v -2.399"
         style="fill:none;stroke:#000000;stroke-width:0.072;stroke-linecap:butt;stroke-linejoin:miter;stroke-miterlimit:3.25;stroke-dasharray:none;stroke-opacity:1"
         id="path6870" />
      <path
         d="m 114.941,267.84 v -2.399"
         style="fill:none;stroke:#000000;stroke-width:0.072;stroke-linecap:butt;stroke-linejoin:miter;stroke-miterlimit:3.25;stroke-dasharray:none;stroke-opacity:1"
         id="path6872" />
      <path
         d="m 155.629,267.84 v -2.399"
         style="fill:none;stroke:#000000;stroke-width:0.072;stroke-linecap:butt;stroke-linejoin:miter;stroke-miterlimit:3.25;stroke-dasharray:none;stroke-opacity:1"
         id="path6874" />
      <path
         d="m 173.273,267.84 v -2.399"
         style="fill:none;stroke:#000000;stroke-width:0.072;stroke-linecap:butt;stroke-linejoin:miter;stroke-miterlimit:3.25;stroke-dasharray:none;stroke-opacity:1"
         id="path6876" />
      <path
         d="m 189.504,267.84 v -2.399"
         style="fill:none;stroke:#000000;stroke-width:0.072;stroke-linecap:butt;stroke-linejoin:miter;stroke-miterlimit:3.25;stroke-dasharray:none;stroke-opacity:1"
         id="path6878" />
      <path
         d="m 204.527,267.84 v -2.399"
         style="fill:none;stroke:#000000;stroke-width:0.072;stroke-linecap:butt;stroke-linejoin:miter;stroke-miterlimit:3.25;stroke-dasharray:none;stroke-opacity:1"
         id="path6880" />
      <path
         d="m 231.602,267.84 v -2.399"
         style="fill:none;stroke:#000000;stroke-width:0.072;stroke-linecap:butt;stroke-linejoin:miter;stroke-miterlimit:3.25;stroke-dasharray:none;stroke-opacity:1"
         id="path6882" />
      <path
         d="m 243.895,267.84 v -2.399"
         style="fill:none;stroke:#000000;stroke-width:0.072;stroke-linecap:butt;stroke-linejoin:miter;stroke-miterlimit:3.25;stroke-dasharray:none;stroke-opacity:1"
         id="path6884" />
      <path
         d="m 255.484,267.84 v -2.399"
         style="fill:none;stroke:#000000;stroke-width:0.072;stroke-linecap:butt;stroke-linejoin:miter;stroke-miterlimit:3.25;stroke-dasharray:none;stroke-opacity:1"
         id="path6886" />
      <path
         d="m 266.449,267.84 v -2.399"
         style="fill:none;stroke:#000000;stroke-width:0.072;stroke-linecap:butt;stroke-linejoin:miter;stroke-miterlimit:3.25;stroke-dasharray:none;stroke-opacity:1"
         id="path6888" />
      <path
         d="m 286.742,267.84 v -2.399"
         style="fill:none;stroke:#000000;stroke-width:0.072;stroke-linecap:butt;stroke-linejoin:miter;stroke-miterlimit:3.25;stroke-dasharray:none;stroke-opacity:1"
         id="path6890" />
      <path
         d="m 296.172,267.84 v -2.399"
         style="fill:none;stroke:#000000;stroke-width:0.072;stroke-linecap:butt;stroke-linejoin:miter;stroke-miterlimit:3.25;stroke-dasharray:none;stroke-opacity:1"
         id="path6892" />
      <path
         d="m 305.188,267.84 v -2.399"
         style="fill:none;stroke:#000000;stroke-width:0.072;stroke-linecap:butt;stroke-linejoin:miter;stroke-miterlimit:3.25;stroke-dasharray:none;stroke-opacity:1"
         id="path6894" />
      <path
         d="m 313.816,267.84 v -2.399"
         style="fill:none;stroke:#000000;stroke-width:0.072;stroke-linecap:butt;stroke-linejoin:miter;stroke-miterlimit:3.25;stroke-dasharray:none;stroke-opacity:1"
         id="path6896" />
      <path
         d="m 330.047,267.84 v -2.399"
         style="fill:none;stroke:#000000;stroke-width:0.072;stroke-linecap:butt;stroke-linejoin:miter;stroke-miterlimit:3.25;stroke-dasharray:none;stroke-opacity:1"
         id="path6898" />
      <path
         d="m 337.699,267.84 v -2.399"
         style="fill:none;stroke:#000000;stroke-width:0.072;stroke-linecap:butt;stroke-linejoin:miter;stroke-miterlimit:3.25;stroke-dasharray:none;stroke-opacity:1"
         id="path6900" />
      <path
         d="m 345.07,267.84 v -2.399"
         style="fill:none;stroke:#000000;stroke-width:0.072;stroke-linecap:butt;stroke-linejoin:miter;stroke-miterlimit:3.25;stroke-dasharray:none;stroke-opacity:1"
         id="path6902" />
      <path
         d="m 352.188,267.84 v -2.399"
         style="fill:none;stroke:#000000;stroke-width:0.072;stroke-linecap:butt;stroke-linejoin:miter;stroke-miterlimit:3.25;stroke-dasharray:none;stroke-opacity:1"
         id="path6904" />
      <path
         d="m 365.707,267.84 v -2.399"
         style="fill:none;stroke:#000000;stroke-width:0.072;stroke-linecap:butt;stroke-linejoin:miter;stroke-miterlimit:3.25;stroke-dasharray:none;stroke-opacity:1"
         id="path6906" />
      <path
         d="m 372.145,267.84 v -2.399"
         style="fill:none;stroke:#000000;stroke-width:0.072;stroke-linecap:butt;stroke-linejoin:miter;stroke-miterlimit:3.25;stroke-dasharray:none;stroke-opacity:1"
         id="path6908" />
      <path
         d="m 378.387,267.84 v -2.399"
         style="fill:none;stroke:#000000;stroke-width:0.072;stroke-linecap:butt;stroke-linejoin:miter;stroke-miterlimit:3.25;stroke-dasharray:none;stroke-opacity:1"
         id="path6910" />
      <path
         d="m 384.438,267.84 v -2.399"
         style="fill:none;stroke:#000000;stroke-width:0.072;stroke-linecap:butt;stroke-linejoin:miter;stroke-miterlimit:3.25;stroke-dasharray:none;stroke-opacity:1"
         id="path6912" />
      <path
         d="m 396.027,267.84 v -2.399"
         style="fill:none;stroke:#000000;stroke-width:0.072;stroke-linecap:butt;stroke-linejoin:miter;stroke-miterlimit:3.25;stroke-dasharray:none;stroke-opacity:1"
         id="path6914" />
      <path
         d="m 401.582,267.84 v -2.399"
         style="fill:none;stroke:#000000;stroke-width:0.072;stroke-linecap:butt;stroke-linejoin:miter;stroke-miterlimit:3.25;stroke-dasharray:none;stroke-opacity:1"
         id="path6916" />
      <path
         d="m 406.992,267.84 v -2.399"
         style="fill:none;stroke:#000000;stroke-width:0.072;stroke-linecap:butt;stroke-linejoin:miter;stroke-miterlimit:3.25;stroke-dasharray:none;stroke-opacity:1"
         id="path6918" />
      <path
         d="m 412.258,267.84 v -2.399"
         style="fill:none;stroke:#000000;stroke-width:0.072;stroke-linecap:butt;stroke-linejoin:miter;stroke-miterlimit:3.25;stroke-dasharray:none;stroke-opacity:1"
         id="path6920" />
      <path
         d="m 412.559,35.316 h -3.762"
         style="fill:none;stroke:#000000;stroke-width:0.072;stroke-linecap:butt;stroke-linejoin:miter;stroke-miterlimit:3.25;stroke-dasharray:none;stroke-opacity:1"
         id="path6922" />
      <path
         d="m 412.559,98.949 h -3.762"
         style="fill:none;stroke:#000000;stroke-width:0.072;stroke-linecap:butt;stroke-linejoin:miter;stroke-miterlimit:3.25;stroke-dasharray:none;stroke-opacity:1"
         id="path6924" />
      <path
         d="m 412.559,183.07 h -3.762"
         style="fill:none;stroke:#000000;stroke-width:0.072;stroke-linecap:butt;stroke-linejoin:miter;stroke-miterlimit:3.25;stroke-dasharray:none;stroke-opacity:1"
         id="path6926" />
      <path
         d="m 412.559,246.703 h -3.762"
         style="fill:none;stroke:#000000;stroke-width:0.072;stroke-linecap:butt;stroke-linejoin:miter;stroke-miterlimit:3.25;stroke-dasharray:none;stroke-opacity:1"
         id="path6928" />
      <path
         d="M 412.559,72.539 H 410.16"
         style="fill:none;stroke:#000000;stroke-width:0.072;stroke-linecap:butt;stroke-linejoin:miter;stroke-miterlimit:3.25;stroke-dasharray:none;stroke-opacity:1"
         id="path6930" />
      <path
         d="M 412.559,136.172 H 410.16"
         style="fill:none;stroke:#000000;stroke-width:0.072;stroke-linecap:butt;stroke-linejoin:miter;stroke-miterlimit:3.25;stroke-dasharray:none;stroke-opacity:1"
         id="path6932" />
      <path
         d="M 412.559,162.582 H 410.16"
         style="fill:none;stroke:#000000;stroke-width:0.072;stroke-linecap:butt;stroke-linejoin:miter;stroke-miterlimit:3.25;stroke-dasharray:none;stroke-opacity:1"
         id="path6934" />
      <path
         d="M 412.559,199.805 H 410.16"
         style="fill:none;stroke:#000000;stroke-width:0.072;stroke-linecap:butt;stroke-linejoin:miter;stroke-miterlimit:3.25;stroke-dasharray:none;stroke-opacity:1"
         id="path6936" />
      <path
         d="M 412.559,213.957 H 410.16"
         style="fill:none;stroke:#000000;stroke-width:0.072;stroke-linecap:butt;stroke-linejoin:miter;stroke-miterlimit:3.25;stroke-dasharray:none;stroke-opacity:1"
         id="path6938" />
      <path
         d="M 412.559,226.215 H 410.16"
         style="fill:none;stroke:#000000;stroke-width:0.072;stroke-linecap:butt;stroke-linejoin:miter;stroke-miterlimit:3.25;stroke-dasharray:none;stroke-opacity:1"
         id="path6940" />
      <path
         d="M 412.559,237.027 H 410.16"
         style="fill:none;stroke:#000000;stroke-width:0.072;stroke-linecap:butt;stroke-linejoin:miter;stroke-miterlimit:3.25;stroke-dasharray:none;stroke-opacity:1"
         id="path6942" />
      <path
         d="M 412.559,255.453 H 410.16"
         style="fill:none;stroke:#000000;stroke-width:0.072;stroke-linecap:butt;stroke-linejoin:miter;stroke-miterlimit:3.25;stroke-dasharray:none;stroke-opacity:1"
         id="path6944" />
      <path
         d="M 412.559,263.438 H 410.16"
         style="fill:none;stroke:#000000;stroke-width:0.072;stroke-linecap:butt;stroke-linejoin:miter;stroke-miterlimit:3.25;stroke-dasharray:none;stroke-opacity:1"
         id="path6946" />
      <text
         xml:space="preserve"
         transform="matrix(1,0,0,-1,205.63988,3.998135)"
         style="font-variant:normal;font-size:11.5195px;font-family:CairoFont-3;-inkscape-font-specification:CairoFont-3-0;writing-mode:lr-tb;fill:#000000;fill-opacity:1;fill-rule:nonzero;stroke:none"
         id="text6950"><tspan
           x="0"
           y="0"
           id="tspan6948">m</tspan></text>
      <text
         xml:space="preserve"
         transform="matrix(1,0,0,-1,219.08318,3.998135)"
         style="font-variant:normal;font-weight:bold;font-size:11.5195px;font-family:MathematicaSans;-inkscape-font-specification:MathematicaSans-Bold;writing-mode:lr-tb;fill:#000000;fill-opacity:1;fill-rule:nonzero;stroke:none"
         id="text6954"><tspan
           x="0"
           y="0"
           id="tspan6952">(</tspan></text>
      <text
         xml:space="preserve"
         transform="matrix(1,0,0,-1,222.91918,3.998135)"
         style="font-variant:normal;font-weight:bold;font-size:11.5195px;font-family:Arial;-inkscape-font-specification:Arial-BoldMT;writing-mode:lr-tb;fill:#000000;fill-opacity:1;fill-rule:nonzero;stroke:none"
         id="text6958"><tspan
           x="0"
           y="0"
           id="tspan6956">M</tspan></text>
      <text
         xml:space="preserve"
         transform="matrix(1,0,0,-1,232.51488,1.998135)"
         style="font-variant:normal;font-weight:bold;font-size:8.17871px;font-family:MathematicaSans;-inkscape-font-specification:MathematicaSans-Bold;writing-mode:lr-tb;fill:#000000;fill-opacity:1;fill-rule:nonzero;stroke:none"
         id="text6962"><tspan
           x="0"
           y="0"
           id="tspan6960">☉</tspan></text>
      <text
         xml:space="preserve"
         transform="matrix(1,0,0,-1,239.4159,3.998135)"
         style="font-variant:normal;font-weight:bold;font-size:11.5195px;font-family:MathematicaSans;-inkscape-font-specification:MathematicaSans-Bold;writing-mode:lr-tb;fill:#000000;fill-opacity:1;fill-rule:nonzero;stroke:none"
         id="text6966"><tspan
           x="0"
           y="0"
           id="tspan6964">)</tspan></text>
      <text
         xml:space="preserve"
         transform="matrix(0,1,1,0,12,120.42299)"
         style="font-variant:normal;font-weight:bold;font-size:11.5195px;font-family:MathematicaSans;-inkscape-font-specification:MathematicaSans-Bold;writing-mode:lr-tb;fill:#000000;fill-opacity:1;fill-rule:nonzero;stroke:none"
         id="text6970"><tspan
           x="0"
           y="0"
           id="tspan6968">ψ</tspan></text>
      <text
         xml:space="preserve"
         transform="matrix(0,1,1,0,12,129.45431)"
         style="font-variant:normal;font-weight:bold;font-size:11.5195px;font-family:MathematicaSans;-inkscape-font-specification:MathematicaSans-Bold;writing-mode:lr-tb;fill:#000000;fill-opacity:1;fill-rule:nonzero;stroke:none"
         id="text6974"><tspan
           x="0"
           y="0"
           id="tspan6972">(</tspan></text>
      <text
         xml:space="preserve"
         transform="matrix(0,1,1,0,12,133.29031)"
         style="font-variant:normal;font-size:11.5195px;font-family:CairoFont-3;-inkscape-font-specification:CairoFont-3-0;writing-mode:lr-tb;fill:#000000;fill-opacity:1;fill-rule:nonzero;stroke:none"
         id="text6978"><tspan
           x="0"
           y="0"
           id="tspan6976">m</tspan></text>
      <text
         xml:space="preserve"
         transform="matrix(0,1,1,0,12,143.53117)"
         style="font-variant:normal;font-weight:bold;font-size:11.5195px;font-family:MathematicaSans;-inkscape-font-specification:MathematicaSans-Bold;writing-mode:lr-tb;fill:#000000;fill-opacity:1;fill-rule:nonzero;stroke:none"
         id="text6982"><tspan
           x="0 7.0384336"
           y="0"
           sodipodi:role="line"
           id="tspan6980">)/</tspan></text>
      <text
         xml:space="preserve"
         transform="matrix(0,1,1,0,12,156.96295)"
         style="font-variant:normal;font-weight:bold;font-size:11.5195px;font-family:MathematicaSans;-inkscape-font-specification:MathematicaSans-Bold;writing-mode:lr-tb;fill:#000000;fill-opacity:1;fill-rule:nonzero;stroke:none"
         id="text6986"><tspan
           x="0"
           y="0"
           id="tspan6984">ψ</tspan></text>
      <text
         xml:space="preserve"
         transform="matrix(0,1,1,0,14,166.00502)"
         style="font-variant:normal;font-weight:bold;font-size:8.17871px;font-family:Arial;-inkscape-font-specification:Arial-BoldMT;writing-mode:lr-tb;fill:#000000;fill-opacity:1;fill-rule:nonzero;stroke:none"
         id="text6990"><tspan
           x="0 7.270874 11.818237"
           y="0"
           sodipodi:role="line"
           id="tspan6988">max</tspan></text>
    </g>
  </g>
</svg>
