<?xml version="1.0" encoding="UTF-8" standalone="no"?>
<!-- Created with Inkscape (http://www.inkscape.org/) -->

<svg
   version="1.1"
   id="svg3882"
   width="553.33331"
   height="360"
   viewBox="0 0 553.33331 360"
   sodipodi:docname="Fig5_Delta=0.5.svg"
   inkscape:version="1.2.2 (732a01da63, 2022-12-09, custom)"
   inkscape:export-filename="../9f715545/Fig5_Delta=0.5.pdf"
   inkscape:export-xdpi="265.12"
   inkscape:export-ydpi="265.12"
   xmlns:inkscape="http://www.inkscape.org/namespaces/inkscape"
   xmlns:sodipodi="http://sodipodi.sourceforge.net/DTD/sodipodi-0.dtd"
   xmlns="http://www.w3.org/2000/svg"
   xmlns:svg="http://www.w3.org/2000/svg">
  <defs
     id="defs3886">
    <clipPath
       clipPathUnits="userSpaceOnUse"
       id="clipPath3900">
      <path
         d="M 36,248 H 413 V 34 H 36 Z"
         id="path3898" />
    </clipPath>
    <clipPath
       clipPathUnits="userSpaceOnUse"
       id="clipPath3910">
      <path
         d="M 91,248 H 413 V 34 H 91 Z"
         id="path3908" />
    </clipPath>
    <clipPath
       clipPathUnits="userSpaceOnUse"
       id="clipPath3924">
      <path
         d="M 44,248 H 413 V 34 H 44 Z"
         id="path3922" />
    </clipPath>
  </defs>
  <sodipodi:namedview
     id="namedview3884"
     pagecolor="#ffffff"
     bordercolor="#666666"
     borderopacity="1.0"
     inkscape:showpageshadow="2"
     inkscape:pageopacity="0.0"
     inkscape:pagecheckerboard="0"
     inkscape:deskcolor="#d1d1d1"
     showgrid="false"
     inkscape:zoom="1.1805556"
     inkscape:cx="280.37647"
     inkscape:cy="69.882353"
     inkscape:window-width="1848"
     inkscape:window-height="1016"
     inkscape:window-x="72"
     inkscape:window-y="27"
     inkscape:window-maximized="1"
     inkscape:current-layer="g3890">
    <inkscape:page
       x="0"
       y="0"
       id="page3888"
       width="553.33331"
       height="360" />
  </sodipodi:namedview>
  <g
     id="g3890"
     inkscape:groupmode="layer"
     inkscape:label="Page 1"
     transform="matrix(1.3333333,0,0,-1.3333333,0,360)">
    <g
       id="g3892" />
    <g
       id="g3894"
       style="stroke:#ff00ff;stroke-opacity:1">
      <g
         id="g3896"
         clip-path="url(#clipPath3900)"
         style="stroke:#ff00ff;stroke-opacity:1">
        <path
           d="m 36.332,35.316 0.113,0.157 0.118,0.156 0.691,0.926 0.926,1.234 1.843,2.465 3.692,4.918 8.008,10.609 7.476,9.828 7.328,9.555 7.95,10.266 7.418,9.48 8.043,10.145 7.894,9.82 7.363,9.02 7.985,9.609 7.453,8.797 7.308,8.441 7.93,8.942 7.395,8.109 8.019,8.52 7.875,8.058 7.34,7.219 7.965,7.48 7.433,6.621 8.051,6.75 7.91,6.164 7.375,5.301 8,5.219 7.465,4.348 7.321,3.726 0.125,0.055 0.125,0.059 0.246,0.117 0.496,0.23 0.996,0.453 1.984,0.871 3.969,1.618 0.117,0.046 0.117,0.043 0.231,0.09 0.465,0.176 0.925,0.34 1.852,0.656 0.117,0.039 0.113,0.043 0.235,0.078 0.461,0.153 0.926,0.304 1.855,0.575 0.125,0.039 0.125,0.035 0.25,0.074 0.504,0.148 1.004,0.282 2.008,0.531 0.5,0.125 0.504,0.121 1.003,0.234 2.008,0.43 0.125,0.024 0.121,0.023 0.246,0.051 0.493,0.093 0.988,0.18 0.121,0.02 0.125,0.023 0.246,0.043 0.492,0.082 0.985,0.152 0.25,0.04 0.738,0.105 0.984,0.129 0.125,0.016 0.121,0.015 0.247,0.028 0.492,0.058 0.988,0.102 0.113,0.011 0.117,0.012 0.227,0.02 0.461,0.043 0.117,0.007 0.113,0.012 0.231,0.02 0.461,0.035 0.226,0.015 0.231,0.016 0.461,0.027 0.113,0.008 0.117,0.008 0.231,0.012 0.457,0.023 0.117,0.008 0.113,0.004 0.231,0.008 0.113,0.008 0.117,0.003 0.231,0.008 0.226,0.008 0.231,0.008 0.117,0.004 h 0.113 l 0.231,0.008 0.113,0.004 h 0.117 l 0.113,0.003 h 0.118 l 0.113,0.004 h 0.23 l 0.114,0.004 h 0.347 l 0.114,0.004 h 0.46 l 0.125,-0.004 h 0.372 l 0.125,-0.004 h 0.25 l 0.25,-0.007 h 0.125 l 0.25,-0.008 h 0.125 l 0.121,-0.004 0.5,-0.016 0.25,-0.012 0.25,-0.007 0.246,-0.012 0.125,-0.004 0.125,-0.008 0.25,-0.012 0.75,-0.046 0.246,-0.016 0.5,-0.035 0.125,-0.008 0.125,-0.012 0.25,-0.019 0.496,-0.043 0.5,-0.047 0.496,-0.051 1,-0.113 0.117,-0.012 0.113,-0.015 0.235,-0.028 0.465,-0.062 0.929,-0.129 0.118,-0.02 0.117,-0.015 0.23,-0.036 0.469,-0.074 0.93,-0.156 0.117,-0.02 0.113,-0.023 0.235,-0.039 0.464,-0.09 0.93,-0.183 1.863,-0.411 0.114,-0.023 0.113,-0.027 0.23,-0.055 0.453,-0.113 0.915,-0.235 1.824,-0.504 0.113,-0.035 0.117,-0.035 0.227,-0.066 0.457,-0.137 0.91,-0.289 1.824,-0.613 0.25,-0.086 0.246,-0.09 0.496,-0.18 0.989,-0.375 1.98,-0.797 0.125,-0.051 0.125,-0.054 0.246,-0.106 0.496,-0.211 0.989,-0.441 1.98,-0.93 0.117,-0.054 0.114,-0.059 0.23,-0.113 0.465,-0.231 0.922,-0.469 1.847,-0.992 3.696,-2.164 0.5,-0.312 0.5,-0.317 1.004,-0.648 2,-1.348 4.007,-2.929 0.235,-0.18 0.23,-0.18 0.469,-0.367 0.938,-0.746 1.867,-1.539 3.742,-3.285 7.332,-7.27 7.957,-9.164 7.422,-9.805 8.047,-12.062 7.898,-13.36 7.371,-13.875 7.989,-16.66 7.46,-17.14 7.313,-18.356 7.934,-21.719 7.402,-22.05 0.129,-0.399 0.129,-0.402 0.258,-0.801 0.515,-1.613 1.035,-3.254 2.067,-6.617 0.258,-0.836 0.257,-0.84 0.516,-1.688 1.031,-3.394 0.133,-0.426 0.129,-0.426 0.258,-0.855 0.515,-1.719 0.129,-0.433 0.129,-0.43 0.645,-2.168 0.129,-0.438"
           style="fill:none;stroke:#ff00ff;stroke-width:1.152;stroke-linecap:square;stroke-linejoin:miter;stroke-miterlimit:3.25;stroke-dasharray:none;stroke-opacity:1"
           id="path3902" />
      </g>
    </g>
    <g
       id="g3904"
       style="display:none">
      <g
         id="g3906"
         clip-path="url(#clipPath3910)">
        <path
           d="m 91.766,35.316 6.066,15.168 7.363,17.559 7.985,18.109 7.453,16.032 7.308,14.902 7.93,15.254 7.395,13.371 8.019,13.555 7.875,12.363 7.34,10.68 7.965,10.66 7.433,9.082 8.051,8.898 7.91,7.778 7.375,6.402 8,6.008 0.114,0.078 0.117,0.082 0.234,0.16 0.469,0.316 0.934,0.625 1.863,1.211 3.734,2.258 0.117,0.067 0.34,0.199 0.457,0.258 0.918,0.507 1.828,0.981 0.118,0.062 0.339,0.176 0.461,0.235 0.914,0.457 1.829,0.879 0.25,0.117 0.246,0.113 0.496,0.227 0.996,0.441 1.984,0.836 0.125,0.051 0.121,0.05 0.25,0.098 0.496,0.195 0.993,0.383 1.984,0.715 0.234,0.078 0.231,0.082 0.465,0.153 0.925,0.3 1.852,0.567 0.117,0.031 0.113,0.035 0.235,0.067 0.461,0.128 0.926,0.247 1.855,0.461 0.125,0.027 0.125,0.031 0.25,0.055 0.504,0.113 1.004,0.211 0.125,0.027 0.125,0.024 0.25,0.051 0.504,0.093 1.004,0.184 0.125,0.019 0.125,0.024 0.25,0.039 0.504,0.082 1.003,0.152 0.125,0.016 0.125,0.019 0.25,0.032 0.504,0.066 1.004,0.121 0.125,0.012 0.121,0.016 0.246,0.023 0.493,0.051 0.125,0.012 0.121,0.011 0.25,0.024 0.492,0.043 0.121,0.007 0.125,0.012 0.246,0.02 0.492,0.031 0.125,0.008 0.121,0.011 0.246,0.012 0.493,0.028 0.25,0.015 0.246,0.012 0.121,0.004 0.125,0.004 0.246,0.011 0.121,0.004 0.125,0.004 0.121,0.004 0.125,0.004 0.121,0.004 0.125,0.004 0.246,0.004 0.125,0.004 h 0.121 l 0.125,0.004 h 0.122 l 0.125,0.003 h 0.121 l 0.125,0.004 h 1.109 l 0.113,-0.004 h 0.231 l 0.113,-0.003 h 0.117 l 0.113,-0.004 h 0.118 l 0.113,-0.004 h 0.117 l 0.227,-0.008 0.117,-0.004 0.113,-0.004 0.117,-0.004 0.231,-0.008 0.226,-0.007 0.231,-0.008 0.117,-0.004 0.113,-0.008 0.231,-0.012 0.113,-0.004 0.117,-0.007 0.231,-0.012 0.457,-0.027 0.117,-0.008 0.113,-0.008 0.231,-0.016 0.461,-0.035 0.226,-0.015 0.692,-0.059 0.113,-0.012 0.117,-0.011 0.231,-0.024 0.457,-0.047 0.921,-0.101 0.25,-0.032 0.247,-0.031 0.5,-0.062 0.996,-0.145 0.125,-0.016 0.375,-0.058 0.496,-0.082 1,-0.172 0.125,-0.02 0.125,-0.023 0.246,-0.047 0.5,-0.098 0.996,-0.199 1.996,-0.449 0.117,-0.027 0.113,-0.032 0.235,-0.054 0.465,-0.117 0.929,-0.243 1.864,-0.527 0.117,-0.035 0.113,-0.035 0.235,-0.071 0.464,-0.14 0.93,-0.297 1.863,-0.633 0.114,-0.039 0.113,-0.043 0.23,-0.078 0.453,-0.168 0.915,-0.34 1.824,-0.723 0.113,-0.046 0.117,-0.047 0.227,-0.094 0.457,-0.191 0.91,-0.391 1.824,-0.82 0.25,-0.118 0.246,-0.113 0.496,-0.238 0.989,-0.481 1.98,-1.007 3.961,-2.192 0.117,-0.07 0.114,-0.067 0.23,-0.136 0.465,-0.274 0.922,-0.558 1.847,-1.157 3.696,-2.468 8.011,-6.063 7.481,-6.539 7.332,-7.234 7.957,-8.77 7.422,-9.051 8.047,-10.75 7.898,-11.511 7.371,-11.59 7.989,-13.496 7.46,-13.473 7.313,-14.031 7.934,-16.137 7.402,-15.918 0.516,-1.14 0.515,-1.149 1.035,-2.301 2.067,-4.656 0.258,-0.586 0.257,-0.59 0.516,-1.175 1.031,-2.368 0.133,-0.3 0.387,-0.891 0.515,-1.195 0.129,-0.297 0.387,-0.903 0.129,-0.296 0.387,-0.903"
           style="fill:none;stroke:#ff0000;stroke-width:1.152;stroke-linecap:square;stroke-linejoin:miter;stroke-miterlimit:3.25;stroke-dasharray:18.8114;stroke-dashoffset:0;stroke-opacity:1"
           id="path3912" />
      </g>
    </g>
    <g
       id="g3914"
       style="display:none">
      <path
         d="m 56.23,35.316 2.969,5.536 7.328,13.23 7.95,13.875 7.418,12.504 8.043,13.059 7.894,12.328 7.363,11.058 7.985,11.512 7.453,10.293 7.308,9.668 7.93,10.012 7.395,8.894 8.019,9.156 7.875,8.489 7.34,7.472 7.965,7.614 7.433,6.64 8.051,6.684 7.91,6.027 7.375,5.145 8,5.027 7.465,4.164 7.321,3.563 0.125,0.058 0.125,0.055 0.246,0.109 0.496,0.223 0.996,0.434 1.984,0.832 3.969,1.55 0.117,0.043 0.117,0.039 0.231,0.086 0.465,0.168 0.925,0.328 1.852,0.629 0.117,0.039 0.113,0.036 0.235,0.078 0.461,0.148 0.926,0.289 1.855,0.555 0.25,0.07 0.25,0.074 0.504,0.141 1.004,0.27 2.008,0.511 0.25,0.063 0.25,0.058 0.504,0.118 1.003,0.226 2.008,0.418 0.125,0.024 0.121,0.023 0.246,0.047 0.493,0.09 0.988,0.175 0.121,0.024 0.125,0.019 0.246,0.043 0.492,0.079 0.985,0.152 0.125,0.019 0.125,0.016 0.738,0.105 0.984,0.125 0.125,0.016 0.121,0.016 0.247,0.027 0.492,0.059 0.988,0.101 0.113,0.012 0.117,0.012 0.227,0.019 0.461,0.043 0.117,0.008 0.113,0.012 0.231,0.019 0.461,0.035 0.226,0.016 0.692,0.047 0.113,0.008 0.117,0.008 0.231,0.011 0.457,0.024 0.117,0.007 0.113,0.004 0.231,0.012 0.113,0.004 0.117,0.004 0.231,0.012 0.226,0.007 0.231,0.008 0.117,0.004 0.113,0.004 0.231,0.004 0.113,0.004 0.117,0.004 h 0.113 l 0.118,0.004 0.113,0.004 h 0.117 l 0.113,0.004 h 0.231 l 0.113,0.003 h 0.344 l 0.117,0.004 h 0.727 l 0.125,-0.004 h 0.25 l 0.125,-0.003 h 0.25 l 0.25,-0.008 h 0.125 l 0.121,-0.004 0.25,-0.004 0.75,-0.024 0.246,-0.011 0.25,-0.008 0.25,-0.012 0.5,-0.027 0.125,-0.004 0.125,-0.008 0.246,-0.015 0.625,-0.04 0.125,-0.011 0.25,-0.016 0.496,-0.039 0.25,-0.023 0.25,-0.02 0.496,-0.047 1,-0.101 0.117,-0.016 0.113,-0.012 0.235,-0.027 0.465,-0.055 0.929,-0.125 0.235,-0.031 0.23,-0.031 0.469,-0.071 0.93,-0.148 0.117,-0.02 0.113,-0.019 0.235,-0.039 0.464,-0.082 0.93,-0.172 1.863,-0.387 0.114,-0.027 0.113,-0.024 0.23,-0.054 0.453,-0.106 0.915,-0.222 1.824,-0.481 0.113,-0.035 0.117,-0.031 0.227,-0.063 0.457,-0.133 0.91,-0.277 1.824,-0.59 0.125,-0.039 0.125,-0.043 0.246,-0.086 0.496,-0.172 0.989,-0.359 1.98,-0.769 0.25,-0.102 0.246,-0.102 0.496,-0.203 0.989,-0.425 1.98,-0.903 0.117,-0.055 0.114,-0.054 0.23,-0.11 0.465,-0.222 0.922,-0.461 1.847,-0.961 3.696,-2.106 0.125,-0.078 0.125,-0.074 0.25,-0.152 0.5,-0.313 1.004,-0.633 2,-1.32 4.007,-2.871 0.118,-0.09 0.117,-0.086 0.23,-0.179 0.469,-0.36 0.938,-0.73 1.867,-1.516 3.742,-3.242 7.332,-7.184 7.957,-9.082 7.422,-9.742 8.047,-11.988 7.898,-13.27 7.371,-13.761 7.989,-16.469 7.46,-16.871 7.313,-17.973 7.934,-21.137 7.402,-21.293 0.129,-0.382 0.129,-0.387 0.258,-0.77 0.515,-1.55 1.035,-3.125 2.067,-6.333 0.129,-0.402 0.129,-0.398 0.773,-2.414 1.031,-3.243 0.133,-0.406 0.129,-0.41 0.258,-0.816 0.644,-2.051 0.129,-0.414 0.258,-0.824 0.516,-1.657"
         style="fill:none;stroke:#0000ff;stroke-width:1.152;stroke-linecap:square;stroke-linejoin:miter;stroke-miterlimit:3.25;stroke-dasharray:11.2868;stroke-dashoffset:0;stroke-opacity:1"
         id="path3916" />
    </g>
    <g
       id="g3918"
       style="display:none">
      <g
         id="g3920"
         clip-path="url(#clipPath3924)">
        <path
           d="m 45.148,35.316 6.575,10.004 7.476,11.2 7.328,10.808 7.95,11.52 7.418,10.547 8.043,11.199 7.894,10.746 7.363,9.789 7.985,10.348 7.453,9.39 7.308,8.946 7.93,9.39 7.395,8.453 8.019,8.809 7.875,8.265 7.34,7.356 7.965,7.559 7.433,6.652 8.051,6.734 7.91,6.11 7.375,5.226 8,5.121 7.465,4.239 7.321,3.621 0.125,0.054 0.125,0.059 0.246,0.113 0.496,0.223 0.996,0.437 1.984,0.844 3.969,1.567 0.234,0.085 0.231,0.086 0.465,0.168 0.925,0.332 1.852,0.629 0.117,0.039 0.113,0.039 0.235,0.075 0.461,0.152 0.926,0.289 1.855,0.555 0.125,0.039 0.375,0.105 0.504,0.141 1.004,0.273 2.008,0.508 0.125,0.031 0.125,0.028 0.25,0.062 0.504,0.114 1.003,0.226 2.008,0.41 0.125,0.024 0.121,0.023 0.246,0.047 0.493,0.09 0.988,0.172 0.121,0.023 0.125,0.02 0.738,0.117 0.985,0.148 0.125,0.02 0.125,0.015 0.246,0.036 0.492,0.066 0.984,0.125 0.125,0.012 0.121,0.015 0.739,0.082 0.988,0.098 0.113,0.012 0.117,0.012 0.227,0.019 0.461,0.039 0.117,0.008 0.113,0.008 0.231,0.019 0.461,0.032 0.226,0.015 0.231,0.016 0.461,0.027 0.113,0.008 0.117,0.008 0.231,0.011 0.457,0.02 0.117,0.008 0.113,0.004 0.231,0.008 0.113,0.007 0.117,0.004 0.231,0.008 0.226,0.008 h 0.117 l 0.114,0.004 0.117,0.004 0.113,0.004 0.231,0.003 0.113,0.004 h 0.117 l 0.113,0.004 h 0.231 l 0.117,0.004 h 0.227 l 0.117,0.004 h 0.929 l 0.125,-0.004 h 0.247 l 0.125,-0.004 h 0.125 l 0.125,-0.004 h 0.125 l 0.125,-0.004 h 0.125 l 0.375,-0.011 0.121,-0.004 0.25,-0.004 0.125,-0.004 0.125,-0.008 0.5,-0.015 0.246,-0.012 0.125,-0.008 0.125,-0.004 0.25,-0.015 0.5,-0.028 0.25,-0.015 0.246,-0.016 0.5,-0.035 0.25,-0.016 0.25,-0.023 0.496,-0.039 0.5,-0.047 0.496,-0.047 1,-0.109 0.117,-0.016 0.113,-0.012 0.235,-0.031 0.465,-0.059 0.929,-0.125 0.118,-0.015 0.117,-0.02 0.23,-0.035 0.469,-0.07 0.93,-0.153 0.117,-0.019 0.113,-0.02 0.235,-0.043 0.464,-0.082 0.93,-0.179 1.863,-0.395 0.114,-0.027 0.113,-0.024 0.23,-0.054 0.453,-0.11 0.915,-0.222 1.824,-0.493 0.113,-0.031 0.117,-0.035 0.227,-0.062 0.457,-0.137 0.91,-0.278 1.824,-0.593 0.25,-0.086 0.246,-0.086 0.496,-0.172 0.989,-0.363 1.98,-0.766 0.25,-0.102 0.246,-0.101 0.496,-0.207 0.989,-0.426 1.98,-0.898 0.117,-0.055 0.114,-0.055 0.23,-0.109 0.465,-0.223 0.922,-0.457 1.847,-0.957 3.696,-2.094 0.25,-0.148 0.25,-0.152 0.5,-0.309 1.004,-0.625 2,-1.309 4.007,-2.835 0.118,-0.09 0.117,-0.086 0.23,-0.176 0.469,-0.355 0.938,-0.723 1.867,-1.492 3.742,-3.196 7.332,-7.074 7.957,-8.945 7.422,-9.613 8.047,-11.868 7.898,-13.199 7.371,-13.781 7.989,-16.625 7.46,-17.192 7.313,-18.507 7.934,-22.024 7.402,-22.484 0.129,-0.41 0.129,-0.407 0.773,-2.472 1.035,-3.332 2.067,-6.774 0.515,-1.718 0.516,-1.731 1.031,-3.484 0.133,-0.438 0.129,-0.441 0.258,-0.879 0.515,-1.77 0.129,-0.441 0.516,-1.781 0.129,-0.449 0.129,-0.446 0.125,-0.426"
           style="fill:none;stroke:#008000;stroke-width:1.152;stroke-linecap:square;stroke-linejoin:miter;stroke-miterlimit:3.25;stroke-dasharray:7.52457;stroke-dashoffset:0;stroke-opacity:1"
           id="path3926" />
        <text
           xml:space="preserve"
           transform="matrix(1,0,0,-1,56.054547,228.46172)"
           style="font-variant:normal;font-weight:normal;font-size:14.3994px;font-family:MathematicaSans;-inkscape-font-specification:MathematicaSans;writing-mode:lr-tb;fill:#000000;fill-opacity:1;fill-rule:nonzero;stroke:none"
           id="text3930"><tspan
             x="0"
             y="0"
             id="tspan3928">Δ</tspan></text>
        <text
           xml:space="preserve"
           transform="matrix(1,0,0,-1,66.191734,228.46172)"
           style="font-variant:normal;font-weight:normal;font-size:14.3994px;font-family:MathematicaSans;-inkscape-font-specification:MathematicaSans;writing-mode:lr-tb;fill:#000000;fill-opacity:1;fill-rule:nonzero;stroke:none"
           id="text3934"><tspan
             x="0"
             y="0"
             id="tspan3932">=</tspan></text>
        <text
           xml:space="preserve"
           transform="matrix(1,0,0,-1,74.586593,228.46172)"
           style="font-variant:normal;font-weight:normal;font-size:14.3994px;font-family:Arial;-inkscape-font-specification:ArialMT;writing-mode:lr-tb;fill:#000000;fill-opacity:1;fill-rule:nonzero;stroke:none"
           id="text3938"><tspan
             x="0 8.006074 11.994712"
             y="0"
             sodipodi:role="line"
             id="tspan3936">0.5</tspan></text>
      </g>
    </g>
    <g
       id="g3940">
      <path
         d="M 412.559,35.316 H 36.332"
         style="fill:none;stroke:#000000;stroke-width:0.144;stroke-linecap:square;stroke-linejoin:miter;stroke-miterlimit:3.25;stroke-dasharray:none;stroke-opacity:1"
         id="path3942" />
      <path
         d="M 36.332,35.316 V 267.84"
         style="fill:none;stroke:#000000;stroke-width:0.144;stroke-linecap:square;stroke-linejoin:miter;stroke-miterlimit:3.25;stroke-dasharray:none;stroke-opacity:1"
         id="path3944" />
      <path
         d="M 36.332,267.84 H 412.559"
         style="fill:none;stroke:#000000;stroke-width:0.144;stroke-linecap:square;stroke-linejoin:miter;stroke-miterlimit:3.25;stroke-dasharray:none;stroke-opacity:1"
         id="path3946" />
      <path
         d="M 412.559,267.84 V 35.316"
         style="fill:none;stroke:#000000;stroke-width:0.144;stroke-linecap:square;stroke-linejoin:miter;stroke-miterlimit:3.25;stroke-dasharray:none;stroke-opacity:1"
         id="path3948" />
      <path
         d="m 137.641,35.316 v 3.766"
         style="fill:none;stroke:#000000;stroke-width:0.072;stroke-linecap:butt;stroke-linejoin:miter;stroke-miterlimit:3.25;stroke-dasharray:none;stroke-opacity:1"
         id="path3950" />
      <text
         xml:space="preserve"
         transform="matrix(1,0,0,-1,132.037,23.158135)"
         style="font-variant:normal;font-weight:bold;font-size:10.0791px;font-family:Arial;-inkscape-font-specification:Arial-BoldMT;writing-mode:lr-tb;fill:#000000;fill-opacity:1;fill-rule:nonzero;stroke:none"
         id="text3954"><tspan
           x="0 5.6039805"
           y="0"
           sodipodi:role="line"
           id="tspan3952">20</tspan></text>
      <path
         d="m 263.016,35.316 v 3.766"
         style="fill:none;stroke:#000000;stroke-width:0.072;stroke-linecap:butt;stroke-linejoin:miter;stroke-miterlimit:3.25;stroke-dasharray:none;stroke-opacity:1"
         id="path3956" />
      <text
         xml:space="preserve"
         transform="matrix(1,0,0,-1,257.41164,23.158135)"
         style="font-variant:normal;font-weight:bold;font-size:10.0791px;font-family:Arial;-inkscape-font-specification:Arial-BoldMT;writing-mode:lr-tb;fill:#000000;fill-opacity:1;fill-rule:nonzero;stroke:none"
         id="text3960"><tspan
           x="0 5.6039805"
           y="0"
           sodipodi:role="line"
           id="tspan3958">40</tspan></text>
      <path
         d="m 336.355,35.316 v 3.766"
         style="fill:none;stroke:#000000;stroke-width:0.072;stroke-linecap:butt;stroke-linejoin:miter;stroke-miterlimit:3.25;stroke-dasharray:none;stroke-opacity:1"
         id="path3962" />
      <text
         xml:space="preserve"
         transform="matrix(1,0,0,-1,330.75111,23.158135)"
         style="font-variant:normal;font-weight:bold;font-size:10.0791px;font-family:Arial;-inkscape-font-specification:Arial-BoldMT;writing-mode:lr-tb;fill:#000000;fill-opacity:1;fill-rule:nonzero;stroke:none"
         id="text3966"><tspan
           x="0 5.6039805"
           y="0"
           sodipodi:role="line"
           id="tspan3964">60</tspan></text>
      <path
         d="m 388.391,35.316 v 3.766"
         style="fill:none;stroke:#000000;stroke-width:0.072;stroke-linecap:butt;stroke-linejoin:miter;stroke-miterlimit:3.25;stroke-dasharray:none;stroke-opacity:1"
         id="path3968" />
      <text
         xml:space="preserve"
         transform="matrix(1,0,0,-1,382.78629,23.158135)"
         style="font-variant:normal;font-weight:bold;font-size:10.0791px;font-family:Arial;-inkscape-font-specification:Arial-BoldMT;writing-mode:lr-tb;fill:#000000;fill-opacity:1;fill-rule:nonzero;stroke:none"
         id="text3972"><tspan
           x="0 5.6039805"
           y="0"
           sodipodi:role="line"
           id="tspan3970">80</tspan></text>
      <path
         d="m 85.605,35.316 v 2.403"
         style="fill:none;stroke:#000000;stroke-width:0.072;stroke-linecap:butt;stroke-linejoin:miter;stroke-miterlimit:3.25;stroke-dasharray:none;stroke-opacity:1"
         id="path3974" />
      <path
         d="m 178.004,35.316 v 2.403"
         style="fill:none;stroke:#000000;stroke-width:0.072;stroke-linecap:butt;stroke-linejoin:miter;stroke-miterlimit:3.25;stroke-dasharray:none;stroke-opacity:1"
         id="path3976" />
      <path
         d="m 210.98,35.316 v 2.403"
         style="fill:none;stroke:#000000;stroke-width:0.072;stroke-linecap:butt;stroke-linejoin:miter;stroke-miterlimit:3.25;stroke-dasharray:none;stroke-opacity:1"
         id="path3978" />
      <path
         d="m 238.863,35.316 v 2.403"
         style="fill:none;stroke:#000000;stroke-width:0.072;stroke-linecap:butt;stroke-linejoin:miter;stroke-miterlimit:3.25;stroke-dasharray:none;stroke-opacity:1"
         id="path3980" />
      <path
         d="m 284.32,35.316 v 2.403"
         style="fill:none;stroke:#000000;stroke-width:0.072;stroke-linecap:butt;stroke-linejoin:miter;stroke-miterlimit:3.25;stroke-dasharray:none;stroke-opacity:1"
         id="path3982" />
      <path
         d="m 303.379,35.316 v 2.403"
         style="fill:none;stroke:#000000;stroke-width:0.072;stroke-linecap:butt;stroke-linejoin:miter;stroke-miterlimit:3.25;stroke-dasharray:none;stroke-opacity:1"
         id="path3984" />
      <path
         d="m 320.617,35.316 v 2.403"
         style="fill:none;stroke:#000000;stroke-width:0.072;stroke-linecap:butt;stroke-linejoin:miter;stroke-miterlimit:3.25;stroke-dasharray:none;stroke-opacity:1"
         id="path3986" />
      <path
         d="m 350.836,35.316 v 2.403"
         style="fill:none;stroke:#000000;stroke-width:0.072;stroke-linecap:butt;stroke-linejoin:miter;stroke-miterlimit:3.25;stroke-dasharray:none;stroke-opacity:1"
         id="path3988" />
      <path
         d="m 364.238,35.316 v 2.403"
         style="fill:none;stroke:#000000;stroke-width:0.072;stroke-linecap:butt;stroke-linejoin:miter;stroke-miterlimit:3.25;stroke-dasharray:none;stroke-opacity:1"
         id="path3990" />
      <path
         d="m 376.719,35.316 v 2.403"
         style="fill:none;stroke:#000000;stroke-width:0.072;stroke-linecap:butt;stroke-linejoin:miter;stroke-miterlimit:3.25;stroke-dasharray:none;stroke-opacity:1"
         id="path3992" />
      <path
         d="m 399.355,35.316 v 2.403"
         style="fill:none;stroke:#000000;stroke-width:0.072;stroke-linecap:butt;stroke-linejoin:miter;stroke-miterlimit:3.25;stroke-dasharray:none;stroke-opacity:1"
         id="path3994" />
      <path
         d="m 409.695,35.316 v 2.403"
         style="fill:none;stroke:#000000;stroke-width:0.072;stroke-linecap:butt;stroke-linejoin:miter;stroke-miterlimit:3.25;stroke-dasharray:none;stroke-opacity:1"
         id="path3996" />
      <path
         d="m 36.332,35.316 h 3.762"
         style="fill:none;stroke:#000000;stroke-width:0.072;stroke-linecap:butt;stroke-linejoin:miter;stroke-miterlimit:3.25;stroke-dasharray:none;stroke-opacity:1"
         id="path3998" />
      <text
         xml:space="preserve"
         transform="matrix(1,0,0,-1,20.16,31.318135)"
         style="font-variant:normal;font-weight:bold;font-size:10.0791px;font-family:Arial;-inkscape-font-specification:Arial-BoldMT;writing-mode:lr-tb;fill:#000000;fill-opacity:1;fill-rule:nonzero;stroke:none"
         id="text4002"><tspan
           x="0 5.6039805 8.3958921"
           y="0"
           sodipodi:role="line"
           id="tspan4000">0.1</tspan></text>
      <path
         d="m 36.332,98.949 h 3.762"
         style="fill:none;stroke:#000000;stroke-width:0.072;stroke-linecap:butt;stroke-linejoin:miter;stroke-miterlimit:3.25;stroke-dasharray:none;stroke-opacity:1"
         id="path4004" />
      <text
         xml:space="preserve"
         transform="matrix(1,0,0,-1,20.16,94.950913)"
         style="font-variant:normal;font-weight:bold;font-size:10.0791px;font-family:Arial;-inkscape-font-specification:Arial-BoldMT;writing-mode:lr-tb;fill:#000000;fill-opacity:1;fill-rule:nonzero;stroke:none"
         id="text4008"><tspan
           x="0 5.6039805 8.3958921"
           y="0"
           sodipodi:role="line"
           id="tspan4006">0.2</tspan></text>
      <path
         d="m 36.332,183.07 h 3.762"
         style="fill:none;stroke:#000000;stroke-width:0.072;stroke-linecap:butt;stroke-linejoin:miter;stroke-miterlimit:3.25;stroke-dasharray:none;stroke-opacity:1"
         id="path4010" />
      <text
         xml:space="preserve"
         transform="matrix(1,0,0,-1,20.16,179.06887)"
         style="font-variant:normal;font-weight:bold;font-size:10.0791px;font-family:Arial;-inkscape-font-specification:Arial-BoldMT;writing-mode:lr-tb;fill:#000000;fill-opacity:1;fill-rule:nonzero;stroke:none"
         id="text4014"><tspan
           x="0 5.6039805 8.3958921"
           y="0"
           sodipodi:role="line"
           id="tspan4012">0.5</tspan></text>
      <path
         d="m 36.332,246.703 h 3.762"
         style="fill:none;stroke:#000000;stroke-width:0.072;stroke-linecap:butt;stroke-linejoin:miter;stroke-miterlimit:3.25;stroke-dasharray:none;stroke-opacity:1"
         id="path4016" />
      <text
         xml:space="preserve"
         transform="matrix(1,0,0,-1,28.56625,242.70165)"
         style="font-variant:normal;font-weight:bold;font-size:10.0791px;font-family:Arial;-inkscape-font-specification:Arial-BoldMT;writing-mode:lr-tb;fill:#000000;fill-opacity:1;fill-rule:nonzero;stroke:none"
         id="text4020"><tspan
           x="0"
           y="0"
           id="tspan4018">1</tspan></text>
      <path
         d="M 36.332,72.539 H 38.73"
         style="fill:none;stroke:#000000;stroke-width:0.072;stroke-linecap:butt;stroke-linejoin:miter;stroke-miterlimit:3.25;stroke-dasharray:none;stroke-opacity:1"
         id="path4022" />
      <path
         d="M 36.332,136.172 H 38.73"
         style="fill:none;stroke:#000000;stroke-width:0.072;stroke-linecap:butt;stroke-linejoin:miter;stroke-miterlimit:3.25;stroke-dasharray:none;stroke-opacity:1"
         id="path4024" />
      <path
         d="M 36.332,162.582 H 38.73"
         style="fill:none;stroke:#000000;stroke-width:0.072;stroke-linecap:butt;stroke-linejoin:miter;stroke-miterlimit:3.25;stroke-dasharray:none;stroke-opacity:1"
         id="path4026" />
      <path
         d="M 36.332,199.805 H 38.73"
         style="fill:none;stroke:#000000;stroke-width:0.072;stroke-linecap:butt;stroke-linejoin:miter;stroke-miterlimit:3.25;stroke-dasharray:none;stroke-opacity:1"
         id="path4028" />
      <path
         d="M 36.332,213.957 H 38.73"
         style="fill:none;stroke:#000000;stroke-width:0.072;stroke-linecap:butt;stroke-linejoin:miter;stroke-miterlimit:3.25;stroke-dasharray:none;stroke-opacity:1"
         id="path4030" />
      <path
         d="M 36.332,226.215 H 38.73"
         style="fill:none;stroke:#000000;stroke-width:0.072;stroke-linecap:butt;stroke-linejoin:miter;stroke-miterlimit:3.25;stroke-dasharray:none;stroke-opacity:1"
         id="path4032" />
      <path
         d="M 36.332,237.027 H 38.73"
         style="fill:none;stroke:#000000;stroke-width:0.072;stroke-linecap:butt;stroke-linejoin:miter;stroke-miterlimit:3.25;stroke-dasharray:none;stroke-opacity:1"
         id="path4034" />
      <path
         d="M 36.332,255.453 H 38.73"
         style="fill:none;stroke:#000000;stroke-width:0.072;stroke-linecap:butt;stroke-linejoin:miter;stroke-miterlimit:3.25;stroke-dasharray:none;stroke-opacity:1"
         id="path4036" />
      <path
         d="M 36.332,263.438 H 38.73"
         style="fill:none;stroke:#000000;stroke-width:0.072;stroke-linecap:butt;stroke-linejoin:miter;stroke-miterlimit:3.25;stroke-dasharray:none;stroke-opacity:1"
         id="path4038" />
      <path
         d="m 137.641,267.84 v -3.762"
         style="fill:none;stroke:#000000;stroke-width:0.072;stroke-linecap:butt;stroke-linejoin:miter;stroke-miterlimit:3.25;stroke-dasharray:none;stroke-opacity:1"
         id="path4040" />
      <path
         d="m 263.016,267.84 v -3.762"
         style="fill:none;stroke:#000000;stroke-width:0.072;stroke-linecap:butt;stroke-linejoin:miter;stroke-miterlimit:3.25;stroke-dasharray:none;stroke-opacity:1"
         id="path4042" />
      <path
         d="m 336.355,267.84 v -3.762"
         style="fill:none;stroke:#000000;stroke-width:0.072;stroke-linecap:butt;stroke-linejoin:miter;stroke-miterlimit:3.25;stroke-dasharray:none;stroke-opacity:1"
         id="path4044" />
      <path
         d="m 388.391,267.84 v -3.762"
         style="fill:none;stroke:#000000;stroke-width:0.072;stroke-linecap:butt;stroke-linejoin:miter;stroke-miterlimit:3.25;stroke-dasharray:none;stroke-opacity:1"
         id="path4046" />
      <path
         d="m 85.605,267.84 v -2.399"
         style="fill:none;stroke:#000000;stroke-width:0.072;stroke-linecap:butt;stroke-linejoin:miter;stroke-miterlimit:3.25;stroke-dasharray:none;stroke-opacity:1"
         id="path4048" />
      <path
         d="m 178.004,267.84 v -2.399"
         style="fill:none;stroke:#000000;stroke-width:0.072;stroke-linecap:butt;stroke-linejoin:miter;stroke-miterlimit:3.25;stroke-dasharray:none;stroke-opacity:1"
         id="path4050" />
      <path
         d="m 210.98,267.84 v -2.399"
         style="fill:none;stroke:#000000;stroke-width:0.072;stroke-linecap:butt;stroke-linejoin:miter;stroke-miterlimit:3.25;stroke-dasharray:none;stroke-opacity:1"
         id="path4052" />
      <path
         d="m 238.863,267.84 v -2.399"
         style="fill:none;stroke:#000000;stroke-width:0.072;stroke-linecap:butt;stroke-linejoin:miter;stroke-miterlimit:3.25;stroke-dasharray:none;stroke-opacity:1"
         id="path4054" />
      <path
         d="m 284.32,267.84 v -2.399"
         style="fill:none;stroke:#000000;stroke-width:0.072;stroke-linecap:butt;stroke-linejoin:miter;stroke-miterlimit:3.25;stroke-dasharray:none;stroke-opacity:1"
         id="path4056" />
      <path
         d="m 303.379,267.84 v -2.399"
         style="fill:none;stroke:#000000;stroke-width:0.072;stroke-linecap:butt;stroke-linejoin:miter;stroke-miterlimit:3.25;stroke-dasharray:none;stroke-opacity:1"
         id="path4058" />
      <path
         d="m 320.617,267.84 v -2.399"
         style="fill:none;stroke:#000000;stroke-width:0.072;stroke-linecap:butt;stroke-linejoin:miter;stroke-miterlimit:3.25;stroke-dasharray:none;stroke-opacity:1"
         id="path4060" />
      <path
         d="m 350.836,267.84 v -2.399"
         style="fill:none;stroke:#000000;stroke-width:0.072;stroke-linecap:butt;stroke-linejoin:miter;stroke-miterlimit:3.25;stroke-dasharray:none;stroke-opacity:1"
         id="path4062" />
      <path
         d="m 364.238,267.84 v -2.399"
         style="fill:none;stroke:#000000;stroke-width:0.072;stroke-linecap:butt;stroke-linejoin:miter;stroke-miterlimit:3.25;stroke-dasharray:none;stroke-opacity:1"
         id="path4064" />
      <path
         d="m 376.719,267.84 v -2.399"
         style="fill:none;stroke:#000000;stroke-width:0.072;stroke-linecap:butt;stroke-linejoin:miter;stroke-miterlimit:3.25;stroke-dasharray:none;stroke-opacity:1"
         id="path4066" />
      <path
         d="m 399.355,267.84 v -2.399"
         style="fill:none;stroke:#000000;stroke-width:0.072;stroke-linecap:butt;stroke-linejoin:miter;stroke-miterlimit:3.25;stroke-dasharray:none;stroke-opacity:1"
         id="path4068" />
      <path
         d="m 409.695,267.84 v -2.399"
         style="fill:none;stroke:#000000;stroke-width:0.072;stroke-linecap:butt;stroke-linejoin:miter;stroke-miterlimit:3.25;stroke-dasharray:none;stroke-opacity:1"
         id="path4070" />
      <path
         d="m 412.559,35.316 h -3.762"
         style="fill:none;stroke:#000000;stroke-width:0.072;stroke-linecap:butt;stroke-linejoin:miter;stroke-miterlimit:3.25;stroke-dasharray:none;stroke-opacity:1"
         id="path4072" />
      <path
         d="m 412.559,98.949 h -3.762"
         style="fill:none;stroke:#000000;stroke-width:0.072;stroke-linecap:butt;stroke-linejoin:miter;stroke-miterlimit:3.25;stroke-dasharray:none;stroke-opacity:1"
         id="path4074" />
      <path
         d="m 412.559,183.07 h -3.762"
         style="fill:none;stroke:#000000;stroke-width:0.072;stroke-linecap:butt;stroke-linejoin:miter;stroke-miterlimit:3.25;stroke-dasharray:none;stroke-opacity:1"
         id="path4076" />
      <path
         d="m 412.559,246.703 h -3.762"
         style="fill:none;stroke:#000000;stroke-width:0.072;stroke-linecap:butt;stroke-linejoin:miter;stroke-miterlimit:3.25;stroke-dasharray:none;stroke-opacity:1"
         id="path4078" />
      <path
         d="M 412.559,72.539 H 410.16"
         style="fill:none;stroke:#000000;stroke-width:0.072;stroke-linecap:butt;stroke-linejoin:miter;stroke-miterlimit:3.25;stroke-dasharray:none;stroke-opacity:1"
         id="path4080" />
      <path
         d="M 412.559,136.172 H 410.16"
         style="fill:none;stroke:#000000;stroke-width:0.072;stroke-linecap:butt;stroke-linejoin:miter;stroke-miterlimit:3.25;stroke-dasharray:none;stroke-opacity:1"
         id="path4082" />
      <path
         d="M 412.559,162.582 H 410.16"
         style="fill:none;stroke:#000000;stroke-width:0.072;stroke-linecap:butt;stroke-linejoin:miter;stroke-miterlimit:3.25;stroke-dasharray:none;stroke-opacity:1"
         id="path4084" />
      <path
         d="M 412.559,199.805 H 410.16"
         style="fill:none;stroke:#000000;stroke-width:0.072;stroke-linecap:butt;stroke-linejoin:miter;stroke-miterlimit:3.25;stroke-dasharray:none;stroke-opacity:1"
         id="path4086" />
      <path
         d="M 412.559,213.957 H 410.16"
         style="fill:none;stroke:#000000;stroke-width:0.072;stroke-linecap:butt;stroke-linejoin:miter;stroke-miterlimit:3.25;stroke-dasharray:none;stroke-opacity:1"
         id="path4088" />
      <path
         d="M 412.559,226.215 H 410.16"
         style="fill:none;stroke:#000000;stroke-width:0.072;stroke-linecap:butt;stroke-linejoin:miter;stroke-miterlimit:3.25;stroke-dasharray:none;stroke-opacity:1"
         id="path4090" />
      <path
         d="M 412.559,237.027 H 410.16"
         style="fill:none;stroke:#000000;stroke-width:0.072;stroke-linecap:butt;stroke-linejoin:miter;stroke-miterlimit:3.25;stroke-dasharray:none;stroke-opacity:1"
         id="path4092" />
      <path
         d="M 412.559,255.453 H 410.16"
         style="fill:none;stroke:#000000;stroke-width:0.072;stroke-linecap:butt;stroke-linejoin:miter;stroke-miterlimit:3.25;stroke-dasharray:none;stroke-opacity:1"
         id="path4094" />
      <path
         d="M 412.559,263.438 H 410.16"
         style="fill:none;stroke:#000000;stroke-width:0.072;stroke-linecap:butt;stroke-linejoin:miter;stroke-miterlimit:3.25;stroke-dasharray:none;stroke-opacity:1"
         id="path4096" />
      <text
         xml:space="preserve"
         transform="matrix(1,0,0,-1,205.63988,3.998135)"
         style="font-variant:normal;font-size:11.5195px;font-family:CairoFont-3;-inkscape-font-specification:CairoFont-3-0;writing-mode:lr-tb;fill:#000000;fill-opacity:1;fill-rule:nonzero;stroke:none"
         id="text4100"><tspan
           x="0"
           y="0"
           id="tspan4098">m</tspan></text>
      <text
         xml:space="preserve"
         transform="matrix(1,0,0,-1,219.08318,3.998135)"
         style="font-variant:normal;font-weight:bold;font-size:11.5195px;font-family:MathematicaSans;-inkscape-font-specification:MathematicaSans-Bold;writing-mode:lr-tb;fill:#000000;fill-opacity:1;fill-rule:nonzero;stroke:none"
         id="text4104"><tspan
           x="0"
           y="0"
           id="tspan4102">(</tspan></text>
      <text
         xml:space="preserve"
         transform="matrix(1,0,0,-1,222.91918,3.998135)"
         style="font-variant:normal;font-weight:bold;font-size:11.5195px;font-family:Arial;-inkscape-font-specification:Arial-BoldMT;writing-mode:lr-tb;fill:#000000;fill-opacity:1;fill-rule:nonzero;stroke:none"
         id="text4108"><tspan
           x="0"
           y="0"
           id="tspan4106">M</tspan></text>
      <text
         xml:space="preserve"
         transform="matrix(1,0,0,-1,232.51488,1.998135)"
         style="font-variant:normal;font-weight:bold;font-size:8.17871px;font-family:MathematicaSans;-inkscape-font-specification:MathematicaSans-Bold;writing-mode:lr-tb;fill:#000000;fill-opacity:1;fill-rule:nonzero;stroke:none"
         id="text4112"><tspan
           x="0"
           y="0"
           id="tspan4110">☉</tspan></text>
      <text
         xml:space="preserve"
         transform="matrix(1,0,0,-1,239.4159,3.998135)"
         style="font-variant:normal;font-weight:bold;font-size:11.5195px;font-family:MathematicaSans;-inkscape-font-specification:MathematicaSans-Bold;writing-mode:lr-tb;fill:#000000;fill-opacity:1;fill-rule:nonzero;stroke:none"
         id="text4116"><tspan
           x="0"
           y="0"
           id="tspan4114">)</tspan></text>
      <text
         xml:space="preserve"
         transform="matrix(0,1,1,0,12,120.42299)"
         style="font-variant:normal;font-weight:bold;font-size:11.5195px;font-family:MathematicaSans;-inkscape-font-specification:MathematicaSans-Bold;writing-mode:lr-tb;fill:#000000;fill-opacity:1;fill-rule:nonzero;stroke:none"
         id="text4120"><tspan
           x="0"
           y="0"
           id="tspan4118">ψ</tspan></text>
      <text
         xml:space="preserve"
         transform="matrix(0,1,1,0,12,129.45431)"
         style="font-variant:normal;font-weight:bold;font-size:11.5195px;font-family:MathematicaSans;-inkscape-font-specification:MathematicaSans-Bold;writing-mode:lr-tb;fill:#000000;fill-opacity:1;fill-rule:nonzero;stroke:none"
         id="text4124"><tspan
           x="0"
           y="0"
           id="tspan4122">(</tspan></text>
      <text
         xml:space="preserve"
         transform="matrix(0,1,1,0,12,133.29031)"
         style="font-variant:normal;font-size:11.5195px;font-family:CairoFont-3;-inkscape-font-specification:CairoFont-3-0;writing-mode:lr-tb;fill:#000000;fill-opacity:1;fill-rule:nonzero;stroke:none"
         id="text4128"><tspan
           x="0"
           y="0"
           id="tspan4126">m</tspan></text>
      <text
         xml:space="preserve"
         transform="matrix(0,1,1,0,12,143.53117)"
         style="font-variant:normal;font-weight:bold;font-size:11.5195px;font-family:MathematicaSans;-inkscape-font-specification:MathematicaSans-Bold;writing-mode:lr-tb;fill:#000000;fill-opacity:1;fill-rule:nonzero;stroke:none"
         id="text4132"><tspan
           x="0 7.0384336"
           y="0"
           sodipodi:role="line"
           id="tspan4130">)/</tspan></text>
      <text
         xml:space="preserve"
         transform="matrix(0,1,1,0,12,156.96295)"
         style="font-variant:normal;font-weight:bold;font-size:11.5195px;font-family:MathematicaSans;-inkscape-font-specification:MathematicaSans-Bold;writing-mode:lr-tb;fill:#000000;fill-opacity:1;fill-rule:nonzero;stroke:none"
         id="text4136"><tspan
           x="0"
           y="0"
           id="tspan4134">ψ</tspan></text>
      <text
         xml:space="preserve"
         transform="matrix(0,1,1,0,14,166.00502)"
         style="font-variant:normal;font-weight:bold;font-size:8.17871px;font-family:Arial;-inkscape-font-specification:Arial-BoldMT;writing-mode:lr-tb;fill:#000000;fill-opacity:1;fill-rule:nonzero;stroke:none"
         id="text4140"><tspan
           x="0 7.270874 11.818237"
           y="0"
           sodipodi:role="line"
           id="tspan4138">max</tspan></text>
    </g>
  </g>
</svg>
