<?xml version="1.0" encoding="UTF-8" standalone="no"?>
<!-- Created with Inkscape (http://www.inkscape.org/) -->

<svg
   version="1.1"
   id="svg148"
   width="553.33331"
   height="360"
   viewBox="0 0 553.33331 360"
   sodipodi:docname="Fig5_Delta=0.1.svg"
   inkscape:version="1.2.2 (732a01da63, 2022-12-09, custom)"
   xmlns:inkscape="http://www.inkscape.org/namespaces/inkscape"
   xmlns:sodipodi="http://sodipodi.sourceforge.net/DTD/sodipodi-0.dtd"
   xmlns="http://www.w3.org/2000/svg"
   xmlns:svg="http://www.w3.org/2000/svg">
  <defs
     id="defs152">
    <clipPath
       clipPathUnits="userSpaceOnUse"
       id="clipPath166">
      <path
         d="M 36,248 H 413 V 34 H 36 Z"
         id="path164" />
    </clipPath>
    <clipPath
       clipPathUnits="userSpaceOnUse"
       id="clipPath176">
      <path
         d="M 106,248 H 413 V 34 H 106 Z"
         id="path174" />
    </clipPath>
    <clipPath
       clipPathUnits="userSpaceOnUse"
       id="clipPath186">
      <path
         d="M 62,247 H 413 V 34 H 62 Z"
         id="path184" />
    </clipPath>
    <clipPath
       clipPathUnits="userSpaceOnUse"
       id="clipPath196">
      <path
         d="M 40,248 H 413 V 34 H 40 Z"
         id="path194" />
    </clipPath>
  </defs>
  <sodipodi:namedview
     id="namedview150"
     pagecolor="#ffffff"
     bordercolor="#666666"
     borderopacity="1.0"
     inkscape:showpageshadow="2"
     inkscape:pageopacity="0.0"
     inkscape:pagecheckerboard="0"
     inkscape:deskcolor="#d1d1d1"
     showgrid="false"
     inkscape:zoom="2.2120483"
     inkscape:cx="276.66666"
     inkscape:cy="180.14978"
     inkscape:window-width="1848"
     inkscape:window-height="1016"
     inkscape:window-x="72"
     inkscape:window-y="27"
     inkscape:window-maximized="1"
     inkscape:current-layer="g156">
    <inkscape:page
       x="0"
       y="0"
       id="page154"
       width="553.33331"
       height="360" />
  </sodipodi:namedview>
  <g
     id="g156"
     inkscape:groupmode="layer"
     inkscape:label="Page 1"
     transform="matrix(1.3333333,0,0,-1.3333333,0,360)">
    <g
       id="g158" />
    <g
       id="g160"
       style="stroke:#ff00ff;stroke-opacity:1">
      <g
         id="g162"
         clip-path="url(#clipPath166)"
         style="stroke:#ff00ff;stroke-opacity:1">
        <path
           d="m 36.332,35.316 0.113,0.141 0.118,0.141 0.23,0.277 0.461,0.559 0.926,1.117 1.843,2.234 3.692,4.453 8.008,9.621 7.476,8.934 7.328,8.703 7.95,9.375 7.418,8.68 8.043,9.324 7.894,9.059 7.363,8.359 7.985,8.949 7.453,8.242 7.308,7.957 7.93,8.485 7.395,7.762 8.019,8.23 7.875,7.875 7.34,7.137 7.965,7.496 7.433,6.742 8.051,7.004 7.91,6.539 7.375,5.766 8,5.855 7.465,5.059 7.321,4.543 7.941,4.414 7.414,3.597 0.125,0.059 0.125,0.055 0.25,0.113 0.504,0.219 1.004,0.437 2.008,0.84 0.5,0.203 0.504,0.203 1.003,0.395 2.008,0.754 0.125,0.047 0.121,0.043 0.246,0.089 0.493,0.176 0.988,0.344 1.969,0.656 0.25,0.078 0.738,0.235 0.984,0.297 1.973,0.566 0.113,0.031 0.117,0.031 0.227,0.063 0.461,0.125 0.922,0.238 1.836,0.442 0.117,0.027 0.113,0.027 0.692,0.153 0.918,0.199 1.839,0.359 0.25,0.047 0.247,0.043 0.5,0.086 0.996,0.164 0.5,0.078 0.496,0.074 1,0.137 0.25,0.031 0.246,0.036 0.5,0.058 0.25,0.031 0.25,0.028 0.496,0.054 0.5,0.047 0.496,0.051 1,0.082 0.117,0.008 0.113,0.008 0.235,0.019 0.465,0.032 0.117,0.007 0.117,0.004 0.231,0.016 0.464,0.023 0.118,0.008 0.117,0.004 0.23,0.012 0.235,0.008 0.234,0.011 0.113,0.004 0.352,0.012 0.113,0.004 h 0.117 l 0.235,0.008 h 0.117 l 0.113,0.004 0.117,0.003 h 0.118 l 0.117,0.004 h 0.23 l 0.117,0.004 h 0.348 l 0.117,0.004 h 0.352 l 0.113,-0.004 h 0.465 l 0.117,-0.004 h 0.117 l 0.117,-0.004 h 0.118 l 0.113,-0.003 h 0.117 l 0.234,-0.008 h 0.118 l 0.113,-0.004 0.234,-0.008 0.227,-0.008 0.23,-0.008 0.227,-0.007 0.226,-0.012 0.118,-0.004 0.113,-0.008 0.227,-0.012 0.457,-0.023 0.226,-0.016 0.231,-0.011 0.457,-0.036 0.226,-0.015 0.227,-0.02 0.457,-0.035 0.113,-0.012 0.117,-0.011 0.227,-0.02 0.457,-0.047 0.226,-0.023 0.231,-0.024 0.453,-0.054 0.117,-0.012 0.113,-0.016 0.227,-0.027 0.457,-0.059 0.91,-0.125 0.25,-0.039 0.246,-0.039 0.496,-0.078 0.989,-0.168 0.25,-0.047 0.246,-0.043 0.496,-0.097 0.988,-0.199 0.25,-0.055 0.246,-0.055 0.496,-0.109 0.989,-0.235 1.98,-0.523 0.117,-0.035 0.114,-0.031 0.23,-0.067 0.465,-0.137 0.922,-0.285 1.847,-0.609 0.118,-0.043 0.113,-0.039 0.23,-0.082 0.465,-0.168 0.922,-0.344 1.848,-0.738 0.125,-0.051 0.125,-0.055 0.25,-0.105 0.5,-0.215 1.004,-0.445 2,-0.957 0.125,-0.059 0.125,-0.062 0.254,-0.129 0.5,-0.254 1,-0.528 2.003,-1.113 0.235,-0.133 0.23,-0.136 0.469,-0.278 0.938,-0.566 1.867,-1.184 3.742,-2.605 0.113,-0.082 0.113,-0.086 0.231,-0.172 0.457,-0.344 0.918,-0.703 1.836,-1.461 3.664,-3.16 0.5,-0.453 0.496,-0.461 0.992,-0.934 1.992,-1.945 3.977,-4.18 0.113,-0.129 0.352,-0.386 0.461,-0.52 0.929,-1.054 1.856,-2.18 3.711,-4.641 8.047,-11.371 7.898,-13.035 7.371,-13.961 7.989,-17.242 7.46,-18.219 7.313,-20.012 7.934,-24.273 7.402,-25.219 0.258,-0.93 0.258,-0.933 0.515,-1.871 1.035,-3.789 2.067,-7.731 0.129,-0.488 0.129,-0.492 0.257,-0.981 0.516,-1.976 1.031,-3.992 0.133,-0.504 0.129,-0.504 0.258,-1.012 0.515,-2.031 0.645,-2.559 0.258,-1.031 0.129,-0.52"
           style="fill:none;stroke:#ff00ff;stroke-width:1.152;stroke-linecap:square;stroke-linejoin:miter;stroke-miterlimit:3.25;stroke-dasharray:none;stroke-opacity:1"
           id="path168" />
      </g>
    </g>
    <g
       id="g170"
       style="display:none">
      <g
         id="g172"
         clip-path="url(#clipPath176)">
        <path
           d="m 107.203,35.316 5.977,15.34 7.453,18.211 7.308,16.992 7.93,17.469 7.395,15.399 8.019,15.699 7.875,14.418 7.34,12.551 7.965,12.64 7.433,10.883 8.051,10.797 7.91,9.594 7.375,8.046 8,7.747 7.465,6.304 0.117,0.09 0.34,0.27 0.457,0.355 0.918,0.695 1.828,1.36 3.661,2.551 0.25,0.164 0.246,0.164 0.496,0.328 0.996,0.64 1.984,1.231 3.969,2.277 0.117,0.063 0.117,0.058 0.231,0.125 0.465,0.246 0.925,0.481 1.852,0.922 0.117,0.054 0.113,0.055 0.235,0.113 0.461,0.215 0.926,0.43 1.855,0.809 0.125,0.054 0.125,0.051 0.25,0.106 0.504,0.207 1.004,0.398 2.008,0.754 0.125,0.043 0.125,0.047 0.25,0.09 0.504,0.171 1.003,0.336 2.008,0.625 0.125,0.036 0.121,0.035 0.739,0.211 0.988,0.269 0.121,0.031 0.125,0.032 0.738,0.187 0.985,0.235 0.125,0.031 0.125,0.027 0.738,0.164 0.984,0.203 0.125,0.028 0.121,0.023 0.739,0.141 0.988,0.172 0.113,0.019 0.117,0.02 0.227,0.039 0.461,0.07 0.922,0.137 0.226,0.031 0.231,0.031 0.461,0.059 0.918,0.105 0.117,0.016 0.113,0.012 0.692,0.07 0.113,0.008 0.113,0.012 0.692,0.058 0.113,0.012 0.117,0.008 0.231,0.015 0.457,0.032 0.117,0.007 0.113,0.008 0.231,0.016 0.46,0.023 0.125,0.008 0.125,0.004 0.247,0.012 0.125,0.007 1,0.032 0.121,0.004 h 0.125 l 0.25,0.007 h 0.125 l 0.125,0.004 h 0.25 l 0.125,0.004 h 0.871 l 0.125,-0.004 h 0.25 l 0.125,-0.004 h 0.125 l 0.121,-0.003 h 0.125 l 0.25,-0.008 0.25,-0.004 0.25,-0.008 0.25,-0.012 0.125,-0.004 0.121,-0.004 0.25,-0.011 0.125,-0.004 0.125,-0.008 0.25,-0.012 0.125,-0.008 0.125,-0.003 0.246,-0.016 0.5,-0.031 0.5,-0.039 0.117,-0.008 0.113,-0.008 0.235,-0.02 0.465,-0.042 0.117,-0.008 0.117,-0.012 0.231,-0.023 0.464,-0.047 0.235,-0.024 0.23,-0.027 0.469,-0.055 0.93,-0.121 0.117,-0.016 0.113,-0.015 0.235,-0.031 0.464,-0.071 0.93,-0.144 0.234,-0.039 0.231,-0.043 0.469,-0.082 0.929,-0.172 0.227,-0.047 0.23,-0.047 0.453,-0.094 0.915,-0.195 1.824,-0.437 0.113,-0.032 0.117,-0.027 0.227,-0.059 0.457,-0.121 0.91,-0.25 1.824,-0.543 0.25,-0.078 0.246,-0.078 0.496,-0.16 0.989,-0.332 1.98,-0.715 0.125,-0.043 0.125,-0.047 0.246,-0.098 0.496,-0.191 0.989,-0.394 1.98,-0.836 0.117,-0.051 0.114,-0.051 0.23,-0.102 0.465,-0.207 0.922,-0.425 1.847,-0.891 3.696,-1.949 0.5,-0.281 0.5,-0.286 1.004,-0.578 2,-1.211 4.007,-2.613 0.118,-0.082 0.117,-0.078 0.23,-0.164 0.469,-0.324 0.938,-0.661 1.867,-1.363 3.742,-2.894 7.332,-6.328 7.957,-7.832 7.422,-8.223 8.047,-9.902 7.898,-10.731 7.371,-10.906 7.989,-12.809 7.46,-12.879 7.313,-13.484 7.934,-15.602 7.402,-15.461 0.516,-1.109 0.515,-1.117 1.035,-2.246 2.067,-4.539 0.258,-0.571 0.773,-1.722 1.031,-2.313 0.133,-0.293 0.129,-0.289 0.258,-0.582 0.515,-1.168 0.129,-0.293 0.129,-0.289 0.258,-0.586 0.129,-0.297 0.387,-0.879"
           style="fill:none;stroke:#ff0000;stroke-width:1.152;stroke-linecap:square;stroke-linejoin:miter;stroke-miterlimit:3.25;stroke-dasharray:18.8114;stroke-dashoffset:0;stroke-opacity:1"
           id="path178" />
      </g>
    </g>
    <g
       id="g180"
       style="display:none">
      <g
         id="g182"
         clip-path="url(#clipPath186)">
        <path
           d="m 63.484,35.316 3.043,5.504 7.95,13.922 7.418,12.563 8.043,13.152 7.894,12.438 7.363,11.183 7.985,11.668 7.453,10.461 7.308,9.852 7.93,10.238 7.395,9.125 8.019,9.43 7.875,8.789 7.34,7.777 7.965,7.98 7.433,7.016 8.051,7.133 7.91,6.523 7.375,5.653 8,5.656 7.465,4.82 7.321,4.289 7.941,4.145 7.414,3.367 0.125,0.055 0.125,0.05 0.25,0.106 0.504,0.207 1.004,0.41 2.008,0.785 0.125,0.051 0.375,0.141 0.504,0.187 1.003,0.371 2.008,0.711 0.125,0.043 0.121,0.039 0.246,0.086 0.493,0.164 0.988,0.324 1.969,0.618 0.125,0.039 0.125,0.035 0.246,0.074 0.492,0.145 0.984,0.285 1.973,0.535 0.113,0.031 0.117,0.028 0.227,0.062 1.383,0.34 1.836,0.426 0.117,0.027 0.113,0.023 0.231,0.051 0.461,0.098 0.918,0.187 1.839,0.348 0.125,0.023 0.125,0.02 0.247,0.043 0.5,0.086 0.996,0.16 0.25,0.039 0.25,0.035 0.496,0.075 1,0.132 0.125,0.02 0.125,0.015 0.246,0.032 0.5,0.058 0.125,0.016 0.125,0.012 0.25,0.031 0.496,0.051 0.125,0.015 0.375,0.035 0.496,0.047 1,0.086 0.117,0.012 0.113,0.008 0.235,0.015 0.465,0.036 0.234,0.015 0.231,0.012 0.464,0.027 0.118,0.008 0.117,0.004 0.23,0.012 0.117,0.008 0.118,0.003 0.234,0.012 0.113,0.004 0.352,0.012 0.113,0.004 0.469,0.015 0.113,0.004 0.117,0.004 h 0.118 l 0.234,0.008 h 0.113 l 0.117,0.004 h 0.118 l 0.117,0.004 h 0.23 l 0.117,0.004 h 1.282 l 0.113,-0.004 h 0.234 l 0.117,-0.004 h 0.118 l 0.113,-0.004 0.234,-0.004 0.227,-0.008 0.23,-0.004 0.453,-0.015 0.118,-0.004 0.113,-0.004 0.227,-0.012 0.457,-0.019 0.113,-0.004 0.113,-0.008 0.231,-0.012 0.457,-0.027 0.453,-0.031 0.457,-0.032 0.113,-0.007 0.117,-0.012 0.227,-0.016 0.457,-0.039 0.226,-0.023 0.231,-0.02 0.453,-0.047 0.117,-0.011 0.113,-0.012 0.227,-0.027 0.457,-0.051 0.91,-0.114 0.125,-0.015 0.125,-0.02 0.246,-0.031 0.496,-0.074 0.989,-0.153 0.125,-0.019 0.125,-0.023 0.246,-0.04 0.496,-0.089 0.988,-0.184 0.125,-0.027 0.125,-0.024 0.246,-0.051 0.496,-0.101 0.989,-0.219 1.98,-0.488 0.117,-0.031 0.114,-0.028 0.23,-0.062 0.465,-0.129 0.922,-0.266 1.847,-0.578 0.118,-0.035 0.113,-0.039 0.23,-0.078 0.465,-0.156 0.922,-0.329 1.848,-0.703 0.125,-0.047 0.375,-0.152 0.5,-0.207 1.004,-0.426 2,-0.914 0.25,-0.117 0.254,-0.121 0.5,-0.246 1,-0.508 2.003,-1.07 0.235,-0.133 0.23,-0.133 0.469,-0.266 0.938,-0.546 1.867,-1.153 3.742,-2.531 0.226,-0.164 0.231,-0.168 0.457,-0.336 0.918,-0.688 1.836,-1.429 3.664,-3.098 0.125,-0.113 0.125,-0.11 0.25,-0.222 0.496,-0.453 0.992,-0.918 1.992,-1.914 3.977,-4.121 0.113,-0.129 0.117,-0.125 0.235,-0.254 0.461,-0.516 0.929,-1.043 1.856,-2.152 3.711,-4.582 8.047,-11.242 7.898,-12.86 7.371,-13.703 7.989,-16.805 7.46,-17.586 7.313,-19.074 7.934,-22.808 7.402,-23.325 0.516,-1.703 0.515,-1.711 1.035,-3.453 2.067,-7.023 0.129,-0.445 0.129,-0.442 0.773,-2.683 1.031,-3.61 0.133,-0.457 0.129,-0.453 0.258,-0.91 0.515,-1.832 0.129,-0.461 0.129,-0.457 0.387,-1.383 0.129,-0.465 0.129,-0.461 0.129,-0.465"
           style="fill:none;stroke:#0000ff;stroke-width:1.152;stroke-linecap:square;stroke-linejoin:miter;stroke-miterlimit:3.25;stroke-dasharray:11.2868;stroke-dashoffset:0;stroke-opacity:1"
           id="path188" />
      </g>
    </g>
    <g
       id="g190"
       style="display:none">
      <g
         id="g192"
         clip-path="url(#clipPath196)">
        <path
           d="m 40.84,35.316 2.875,3.696 8.008,10.23 7.476,9.469 7.328,9.203 7.95,9.887 7.418,9.125 8.043,9.773 7.894,9.465 7.363,8.707 7.985,9.289 7.453,8.528 7.308,8.203 7.93,8.722 7.395,7.95 8.019,8.398 7.875,8 7.34,7.23 7.965,7.571 7.433,6.781 8.051,7.02 7.91,6.531 7.375,5.742 8,5.812 7.465,5.008 7.321,4.481 7.941,4.347 0.117,0.059 0.117,0.062 0.231,0.118 0.465,0.234 0.925,0.461 1.852,0.898 3.707,1.704 0.5,0.218 0.504,0.219 1.004,0.426 2.008,0.824 0.25,0.102 0.25,0.097 0.504,0.199 1.003,0.387 2.008,0.738 0.125,0.043 0.121,0.047 0.739,0.258 0.988,0.336 1.969,0.641 0.25,0.078 0.246,0.078 0.492,0.148 0.984,0.293 1.973,0.555 0.113,0.031 0.117,0.032 0.227,0.058 0.461,0.121 0.922,0.235 1.836,0.433 0.117,0.024 0.113,0.027 0.231,0.051 0.461,0.097 0.918,0.196 1.839,0.351 0.125,0.02 0.125,0.023 0.247,0.043 0.5,0.086 0.996,0.16 0.125,0.02 0.125,0.015 0.25,0.04 0.496,0.07 1,0.137 0.25,0.031 0.246,0.031 0.5,0.059 0.125,0.015 0.125,0.012 0.25,0.027 0.496,0.055 0.5,0.047 0.496,0.047 1,0.082 0.117,0.008 0.113,0.007 0.235,0.016 0.465,0.031 0.234,0.016 0.231,0.012 0.464,0.023 0.118,0.008 0.117,0.004 0.23,0.012 0.469,0.015 0.113,0.004 0.352,0.012 0.113,0.004 0.117,0.004 0.235,0.004 0.117,0.003 0.113,0.004 h 0.117 l 0.118,0.004 h 0.234 l 0.113,0.004 h 0.235 l 0.117,0.004 h 0.812 l 0.117,-0.004 h 0.231 l 0.117,-0.004 h 0.234 l 0.118,-0.004 h 0.113 l 0.234,-0.007 h 0.117 l 0.118,-0.004 0.113,-0.004 0.234,-0.008 0.227,-0.008 0.23,-0.008 0.227,-0.008 0.226,-0.011 0.118,-0.004 0.113,-0.004 0.227,-0.012 0.457,-0.027 0.113,-0.004 0.113,-0.008 0.231,-0.015 0.457,-0.032 0.226,-0.015 0.227,-0.02 0.457,-0.035 0.113,-0.012 0.117,-0.011 0.227,-0.02 0.457,-0.043 0.226,-0.023 0.231,-0.024 0.453,-0.051 0.117,-0.015 0.113,-0.012 0.227,-0.027 0.457,-0.059 0.91,-0.125 0.125,-0.016 0.125,-0.019 0.246,-0.035 0.496,-0.078 0.989,-0.164 0.25,-0.047 0.246,-0.043 0.496,-0.094 0.988,-0.199 0.125,-0.024 0.125,-0.027 0.246,-0.051 0.496,-0.109 0.989,-0.231 1.98,-0.511 0.117,-0.032 0.114,-0.035 0.23,-0.062 0.465,-0.133 0.922,-0.277 1.847,-0.598 0.118,-0.039 0.113,-0.039 0.23,-0.082 0.465,-0.16 0.922,-0.34 1.848,-0.723 0.5,-0.203 0.5,-0.215 1.004,-0.433 2,-0.934 0.125,-0.059 0.125,-0.062 0.254,-0.121 0.5,-0.25 1,-0.516 2.003,-1.09 0.235,-0.133 0.23,-0.132 0.469,-0.27 0.938,-0.555 1.867,-1.16 3.742,-2.547 0.113,-0.082 0.113,-0.086 0.231,-0.164 0.457,-0.339 0.918,-0.688 1.836,-1.437 3.664,-3.098 0.125,-0.109 0.125,-0.114 0.25,-0.222 0.496,-0.45 0.992,-0.918 1.992,-1.91 3.977,-4.109 0.113,-0.129 0.117,-0.125 0.235,-0.254 0.461,-0.512 0.929,-1.039 1.856,-2.144 3.711,-4.571 8.047,-11.23 7.898,-12.918 7.371,-13.879 7.989,-17.215 7.46,-18.265 7.313,-20.133 7.934,-24.535 7.402,-25.629 0.516,-1.891 0.515,-1.906 1.035,-3.856 2.067,-7.879 0.258,-1 0.257,-1.003 0.516,-2.024 1.031,-4.082 0.133,-0.516 0.129,-0.515 0.258,-1.035 0.515,-2.078 0.516,-2.094 0.258,-1.055 0.125,-0.512"
           style="fill:none;stroke:#008000;stroke-width:1.152;stroke-linecap:square;stroke-linejoin:miter;stroke-miterlimit:3.25;stroke-dasharray:7.52457;stroke-dashoffset:0;stroke-opacity:1"
           id="path198" />
        <text
           xml:space="preserve"
           transform="matrix(1,0,0,-1,56.054547,228.46172)"
           style="font-variant:normal;font-weight:normal;font-size:14.3994px;font-family:MathematicaSans;-inkscape-font-specification:MathematicaSans;writing-mode:lr-tb;fill:#000000;fill-opacity:1;fill-rule:nonzero;stroke:none"
           id="text202"><tspan
             x="0"
             y="0"
             id="tspan200">Δ</tspan></text>
        <text
           xml:space="preserve"
           transform="matrix(1,0,0,-1,66.191734,228.46172)"
           style="font-variant:normal;font-weight:normal;font-size:14.3994px;font-family:MathematicaSans;-inkscape-font-specification:MathematicaSans;writing-mode:lr-tb;fill:#000000;fill-opacity:1;fill-rule:nonzero;stroke:none"
           id="text206"><tspan
             x="0"
             y="0"
             id="tspan204">=</tspan></text>
        <text
           xml:space="preserve"
           transform="matrix(1,0,0,-1,74.586593,228.46172)"
           style="font-variant:normal;font-weight:normal;font-size:14.3994px;font-family:Arial;-inkscape-font-specification:ArialMT;writing-mode:lr-tb;fill:#000000;fill-opacity:1;fill-rule:nonzero;stroke:none"
           id="text210"><tspan
             x="0 8.006074 11.994712"
             y="0"
             sodipodi:role="line"
             id="tspan208">0.1</tspan></text>
      </g>
    </g>
    <g
       id="g212">
      <path
         d="M 412.559,35.316 H 36.332"
         style="fill:none;stroke:#000000;stroke-width:0.144;stroke-linecap:square;stroke-linejoin:miter;stroke-miterlimit:3.25;stroke-dasharray:none;stroke-opacity:1"
         id="path214" />
      <path
         d="M 36.332,35.316 V 267.84"
         style="fill:none;stroke:#000000;stroke-width:0.144;stroke-linecap:square;stroke-linejoin:miter;stroke-miterlimit:3.25;stroke-dasharray:none;stroke-opacity:1"
         id="path216" />
      <path
         d="M 36.332,267.84 H 412.559"
         style="fill:none;stroke:#000000;stroke-width:0.144;stroke-linecap:square;stroke-linejoin:miter;stroke-miterlimit:3.25;stroke-dasharray:none;stroke-opacity:1"
         id="path218" />
      <path
         d="M 412.559,267.84 V 35.316"
         style="fill:none;stroke:#000000;stroke-width:0.144;stroke-linecap:square;stroke-linejoin:miter;stroke-miterlimit:3.25;stroke-dasharray:none;stroke-opacity:1"
         id="path220" />
      <path
         d="m 136.309,35.316 v 3.766"
         style="fill:none;stroke:#000000;stroke-width:0.072;stroke-linecap:butt;stroke-linejoin:miter;stroke-miterlimit:3.25;stroke-dasharray:none;stroke-opacity:1"
         id="path222" />
      <text
         xml:space="preserve"
         transform="matrix(1,0,0,-1,130.70319,23.158135)"
         style="font-variant:normal;font-weight:bold;font-size:10.0791px;font-family:Arial;-inkscape-font-specification:Arial-BoldMT;writing-mode:lr-tb;fill:#000000;fill-opacity:1;fill-rule:nonzero;stroke:none"
         id="text226"><tspan
           x="0 5.6039805"
           y="0"
           sodipodi:role="line"
           id="tspan224">20</tspan></text>
      <path
         d="m 218.113,35.316 v 3.766"
         style="fill:none;stroke:#000000;stroke-width:0.072;stroke-linecap:butt;stroke-linejoin:miter;stroke-miterlimit:3.25;stroke-dasharray:none;stroke-opacity:1"
         id="path228" />
      <text
         xml:space="preserve"
         transform="matrix(1,0,0,-1,212.50622,23.158135)"
         style="font-variant:normal;font-weight:bold;font-size:10.0791px;font-family:Arial;-inkscape-font-specification:Arial-BoldMT;writing-mode:lr-tb;fill:#000000;fill-opacity:1;fill-rule:nonzero;stroke:none"
         id="text232"><tspan
           x="0 5.6039805"
           y="0"
           sodipodi:role="line"
           id="tspan230">30</tspan></text>
      <path
         d="m 276.152,35.316 v 3.766"
         style="fill:none;stroke:#000000;stroke-width:0.072;stroke-linecap:butt;stroke-linejoin:miter;stroke-miterlimit:3.25;stroke-dasharray:none;stroke-opacity:1"
         id="path234" />
      <text
         xml:space="preserve"
         transform="matrix(1,0,0,-1,270.5464,23.158135)"
         style="font-variant:normal;font-weight:bold;font-size:10.0791px;font-family:Arial;-inkscape-font-specification:Arial-BoldMT;writing-mode:lr-tb;fill:#000000;fill-opacity:1;fill-rule:nonzero;stroke:none"
         id="text238"><tspan
           x="0 5.6039805"
           y="0"
           sodipodi:role="line"
           id="tspan236">40</tspan></text>
      <path
         d="m 321.172,35.316 v 3.766"
         style="fill:none;stroke:#000000;stroke-width:0.072;stroke-linecap:butt;stroke-linejoin:miter;stroke-miterlimit:3.25;stroke-dasharray:none;stroke-opacity:1"
         id="path240" />
      <text
         xml:space="preserve"
         transform="matrix(1,0,0,-1,315.56586,23.158135)"
         style="font-variant:normal;font-weight:bold;font-size:10.0791px;font-family:Arial;-inkscape-font-specification:Arial-BoldMT;writing-mode:lr-tb;fill:#000000;fill-opacity:1;fill-rule:nonzero;stroke:none"
         id="text244"><tspan
           x="0 5.6039805"
           y="0"
           sodipodi:role="line"
           id="tspan242">50</tspan></text>
      <path
         d="m 357.953,35.316 v 3.766"
         style="fill:none;stroke:#000000;stroke-width:0.072;stroke-linecap:butt;stroke-linejoin:miter;stroke-miterlimit:3.25;stroke-dasharray:none;stroke-opacity:1"
         id="path246" />
      <text
         xml:space="preserve"
         transform="matrix(1,0,0,-1,352.34944,23.158135)"
         style="font-variant:normal;font-weight:bold;font-size:10.0791px;font-family:Arial;-inkscape-font-specification:Arial-BoldMT;writing-mode:lr-tb;fill:#000000;fill-opacity:1;fill-rule:nonzero;stroke:none"
         id="text250"><tspan
           x="0 5.6039805"
           y="0"
           sodipodi:role="line"
           id="tspan248">60</tspan></text>
      <path
         d="m 389.055,35.316 v 3.766"
         style="fill:none;stroke:#000000;stroke-width:0.072;stroke-linecap:butt;stroke-linejoin:miter;stroke-miterlimit:3.25;stroke-dasharray:none;stroke-opacity:1"
         id="path252" />
      <text
         xml:space="preserve"
         transform="matrix(1,0,0,-1,383.44951,23.158135)"
         style="font-variant:normal;font-weight:bold;font-size:10.0791px;font-family:Arial;-inkscape-font-specification:Arial-BoldMT;writing-mode:lr-tb;fill:#000000;fill-opacity:1;fill-rule:nonzero;stroke:none"
         id="text256"><tspan
           x="0 5.6039805"
           y="0"
           sodipodi:role="line"
           id="tspan254">70</tspan></text>
      <path
         d="m 64.348,35.316 v 2.403"
         style="fill:none;stroke:#000000;stroke-width:0.072;stroke-linecap:butt;stroke-linejoin:miter;stroke-miterlimit:3.25;stroke-dasharray:none;stroke-opacity:1"
         id="path258" />
      <path
         d="m 91.289,35.316 v 2.403"
         style="fill:none;stroke:#000000;stroke-width:0.072;stroke-linecap:butt;stroke-linejoin:miter;stroke-miterlimit:3.25;stroke-dasharray:none;stroke-opacity:1"
         id="path260" />
      <path
         d="m 115.051,35.316 v 2.403"
         style="fill:none;stroke:#000000;stroke-width:0.072;stroke-linecap:butt;stroke-linejoin:miter;stroke-miterlimit:3.25;stroke-dasharray:none;stroke-opacity:1"
         id="path262" />
      <path
         d="m 155.539,35.316 v 2.403"
         style="fill:none;stroke:#000000;stroke-width:0.072;stroke-linecap:butt;stroke-linejoin:miter;stroke-miterlimit:3.25;stroke-dasharray:none;stroke-opacity:1"
         id="path264" />
      <path
         d="m 173.094,35.316 v 2.403"
         style="fill:none;stroke:#000000;stroke-width:0.072;stroke-linecap:butt;stroke-linejoin:miter;stroke-miterlimit:3.25;stroke-dasharray:none;stroke-opacity:1"
         id="path266" />
      <path
         d="m 189.242,35.316 v 2.403"
         style="fill:none;stroke:#000000;stroke-width:0.072;stroke-linecap:butt;stroke-linejoin:miter;stroke-miterlimit:3.25;stroke-dasharray:none;stroke-opacity:1"
         id="path268" />
      <path
         d="m 204.191,35.316 v 2.403"
         style="fill:none;stroke:#000000;stroke-width:0.072;stroke-linecap:butt;stroke-linejoin:miter;stroke-miterlimit:3.25;stroke-dasharray:none;stroke-opacity:1"
         id="path270" />
      <path
         d="m 231.133,35.316 v 2.403"
         style="fill:none;stroke:#000000;stroke-width:0.072;stroke-linecap:butt;stroke-linejoin:miter;stroke-miterlimit:3.25;stroke-dasharray:none;stroke-opacity:1"
         id="path272" />
      <path
         d="m 243.363,35.316 v 2.403"
         style="fill:none;stroke:#000000;stroke-width:0.072;stroke-linecap:butt;stroke-linejoin:miter;stroke-miterlimit:3.25;stroke-dasharray:none;stroke-opacity:1"
         id="path274" />
      <path
         d="m 254.895,35.316 v 2.403"
         style="fill:none;stroke:#000000;stroke-width:0.072;stroke-linecap:butt;stroke-linejoin:miter;stroke-miterlimit:3.25;stroke-dasharray:none;stroke-opacity:1"
         id="path276" />
      <path
         d="m 265.805,35.316 v 2.403"
         style="fill:none;stroke:#000000;stroke-width:0.072;stroke-linecap:butt;stroke-linejoin:miter;stroke-miterlimit:3.25;stroke-dasharray:none;stroke-opacity:1"
         id="path278" />
      <path
         d="m 285.996,35.316 v 2.403"
         style="fill:none;stroke:#000000;stroke-width:0.072;stroke-linecap:butt;stroke-linejoin:miter;stroke-miterlimit:3.25;stroke-dasharray:none;stroke-opacity:1"
         id="path280" />
      <path
         d="m 295.379,35.316 v 2.403"
         style="fill:none;stroke:#000000;stroke-width:0.072;stroke-linecap:butt;stroke-linejoin:miter;stroke-miterlimit:3.25;stroke-dasharray:none;stroke-opacity:1"
         id="path282" />
      <path
         d="m 304.348,35.316 v 2.403"
         style="fill:none;stroke:#000000;stroke-width:0.072;stroke-linecap:butt;stroke-linejoin:miter;stroke-miterlimit:3.25;stroke-dasharray:none;stroke-opacity:1"
         id="path284" />
      <path
         d="m 312.934,35.316 v 2.403"
         style="fill:none;stroke:#000000;stroke-width:0.072;stroke-linecap:butt;stroke-linejoin:miter;stroke-miterlimit:3.25;stroke-dasharray:none;stroke-opacity:1"
         id="path286" />
      <path
         d="m 329.086,35.316 v 2.403"
         style="fill:none;stroke:#000000;stroke-width:0.072;stroke-linecap:butt;stroke-linejoin:miter;stroke-miterlimit:3.25;stroke-dasharray:none;stroke-opacity:1"
         id="path288" />
      <path
         d="m 336.699,35.316 v 2.403"
         style="fill:none;stroke:#000000;stroke-width:0.072;stroke-linecap:butt;stroke-linejoin:miter;stroke-miterlimit:3.25;stroke-dasharray:none;stroke-opacity:1"
         id="path290" />
      <path
         d="m 344.035,35.316 v 2.403"
         style="fill:none;stroke:#000000;stroke-width:0.072;stroke-linecap:butt;stroke-linejoin:miter;stroke-miterlimit:3.25;stroke-dasharray:none;stroke-opacity:1"
         id="path292" />
      <path
         d="m 351.113,35.316 v 2.403"
         style="fill:none;stroke:#000000;stroke-width:0.072;stroke-linecap:butt;stroke-linejoin:miter;stroke-miterlimit:3.25;stroke-dasharray:none;stroke-opacity:1"
         id="path294" />
      <path
         d="m 364.57,35.316 v 2.403"
         style="fill:none;stroke:#000000;stroke-width:0.072;stroke-linecap:butt;stroke-linejoin:miter;stroke-miterlimit:3.25;stroke-dasharray:none;stroke-opacity:1"
         id="path296" />
      <path
         d="m 370.977,35.316 v 2.403"
         style="fill:none;stroke:#000000;stroke-width:0.072;stroke-linecap:butt;stroke-linejoin:miter;stroke-miterlimit:3.25;stroke-dasharray:none;stroke-opacity:1"
         id="path298" />
      <path
         d="m 377.184,35.316 v 2.403"
         style="fill:none;stroke:#000000;stroke-width:0.072;stroke-linecap:butt;stroke-linejoin:miter;stroke-miterlimit:3.25;stroke-dasharray:none;stroke-opacity:1"
         id="path300" />
      <path
         d="m 383.207,35.316 v 2.403"
         style="fill:none;stroke:#000000;stroke-width:0.072;stroke-linecap:butt;stroke-linejoin:miter;stroke-miterlimit:3.25;stroke-dasharray:none;stroke-opacity:1"
         id="path302" />
      <path
         d="m 394.738,35.316 v 2.403"
         style="fill:none;stroke:#000000;stroke-width:0.072;stroke-linecap:butt;stroke-linejoin:miter;stroke-miterlimit:3.25;stroke-dasharray:none;stroke-opacity:1"
         id="path304" />
      <path
         d="m 400.266,35.316 v 2.403"
         style="fill:none;stroke:#000000;stroke-width:0.072;stroke-linecap:butt;stroke-linejoin:miter;stroke-miterlimit:3.25;stroke-dasharray:none;stroke-opacity:1"
         id="path306" />
      <path
         d="m 405.648,35.316 v 2.403"
         style="fill:none;stroke:#000000;stroke-width:0.072;stroke-linecap:butt;stroke-linejoin:miter;stroke-miterlimit:3.25;stroke-dasharray:none;stroke-opacity:1"
         id="path308" />
      <path
         d="m 410.887,35.316 v 2.403"
         style="fill:none;stroke:#000000;stroke-width:0.072;stroke-linecap:butt;stroke-linejoin:miter;stroke-miterlimit:3.25;stroke-dasharray:none;stroke-opacity:1"
         id="path310" />
      <path
         d="m 36.332,35.316 h 3.762"
         style="fill:none;stroke:#000000;stroke-width:0.072;stroke-linecap:butt;stroke-linejoin:miter;stroke-miterlimit:3.25;stroke-dasharray:none;stroke-opacity:1"
         id="path312" />
      <text
         xml:space="preserve"
         transform="matrix(1,0,0,-1,20.16,31.318135)"
         style="font-variant:normal;font-weight:bold;font-size:10.0791px;font-family:Arial;-inkscape-font-specification:Arial-BoldMT;writing-mode:lr-tb;fill:#000000;fill-opacity:1;fill-rule:nonzero;stroke:none"
         id="text316"><tspan
           x="0 5.6039805 8.3958921"
           y="0"
           sodipodi:role="line"
           id="tspan314">0.1</tspan></text>
      <path
         d="m 36.332,98.949 h 3.762"
         style="fill:none;stroke:#000000;stroke-width:0.072;stroke-linecap:butt;stroke-linejoin:miter;stroke-miterlimit:3.25;stroke-dasharray:none;stroke-opacity:1"
         id="path318" />
      <text
         xml:space="preserve"
         transform="matrix(1,0,0,-1,20.16,94.950913)"
         style="font-variant:normal;font-weight:bold;font-size:10.0791px;font-family:Arial;-inkscape-font-specification:Arial-BoldMT;writing-mode:lr-tb;fill:#000000;fill-opacity:1;fill-rule:nonzero;stroke:none"
         id="text322"><tspan
           x="0 5.6039805 8.3958921"
           y="0"
           sodipodi:role="line"
           id="tspan320">0.2</tspan></text>
      <path
         d="m 36.332,183.07 h 3.762"
         style="fill:none;stroke:#000000;stroke-width:0.072;stroke-linecap:butt;stroke-linejoin:miter;stroke-miterlimit:3.25;stroke-dasharray:none;stroke-opacity:1"
         id="path324" />
      <text
         xml:space="preserve"
         transform="matrix(1,0,0,-1,20.16,179.06887)"
         style="font-variant:normal;font-weight:bold;font-size:10.0791px;font-family:Arial;-inkscape-font-specification:Arial-BoldMT;writing-mode:lr-tb;fill:#000000;fill-opacity:1;fill-rule:nonzero;stroke:none"
         id="text328"><tspan
           x="0 5.6039805 8.3958921"
           y="0"
           sodipodi:role="line"
           id="tspan326">0.5</tspan></text>
      <path
         d="m 36.332,246.703 h 3.762"
         style="fill:none;stroke:#000000;stroke-width:0.072;stroke-linecap:butt;stroke-linejoin:miter;stroke-miterlimit:3.25;stroke-dasharray:none;stroke-opacity:1"
         id="path330" />
      <text
         xml:space="preserve"
         transform="matrix(1,0,0,-1,28.56625,242.70165)"
         style="font-variant:normal;font-weight:bold;font-size:10.0791px;font-family:Arial;-inkscape-font-specification:Arial-BoldMT;writing-mode:lr-tb;fill:#000000;fill-opacity:1;fill-rule:nonzero;stroke:none"
         id="text334"><tspan
           x="0"
           y="0"
           id="tspan332">1</tspan></text>
      <path
         d="M 36.332,72.539 H 38.73"
         style="fill:none;stroke:#000000;stroke-width:0.072;stroke-linecap:butt;stroke-linejoin:miter;stroke-miterlimit:3.25;stroke-dasharray:none;stroke-opacity:1"
         id="path336" />
      <path
         d="M 36.332,136.172 H 38.73"
         style="fill:none;stroke:#000000;stroke-width:0.072;stroke-linecap:butt;stroke-linejoin:miter;stroke-miterlimit:3.25;stroke-dasharray:none;stroke-opacity:1"
         id="path338" />
      <path
         d="M 36.332,162.582 H 38.73"
         style="fill:none;stroke:#000000;stroke-width:0.072;stroke-linecap:butt;stroke-linejoin:miter;stroke-miterlimit:3.25;stroke-dasharray:none;stroke-opacity:1"
         id="path340" />
      <path
         d="M 36.332,199.805 H 38.73"
         style="fill:none;stroke:#000000;stroke-width:0.072;stroke-linecap:butt;stroke-linejoin:miter;stroke-miterlimit:3.25;stroke-dasharray:none;stroke-opacity:1"
         id="path342" />
      <path
         d="M 36.332,213.957 H 38.73"
         style="fill:none;stroke:#000000;stroke-width:0.072;stroke-linecap:butt;stroke-linejoin:miter;stroke-miterlimit:3.25;stroke-dasharray:none;stroke-opacity:1"
         id="path344" />
      <path
         d="M 36.332,226.215 H 38.73"
         style="fill:none;stroke:#000000;stroke-width:0.072;stroke-linecap:butt;stroke-linejoin:miter;stroke-miterlimit:3.25;stroke-dasharray:none;stroke-opacity:1"
         id="path346" />
      <path
         d="M 36.332,237.027 H 38.73"
         style="fill:none;stroke:#000000;stroke-width:0.072;stroke-linecap:butt;stroke-linejoin:miter;stroke-miterlimit:3.25;stroke-dasharray:none;stroke-opacity:1"
         id="path348" />
      <path
         d="M 36.332,255.453 H 38.73"
         style="fill:none;stroke:#000000;stroke-width:0.072;stroke-linecap:butt;stroke-linejoin:miter;stroke-miterlimit:3.25;stroke-dasharray:none;stroke-opacity:1"
         id="path350" />
      <path
         d="M 36.332,263.438 H 38.73"
         style="fill:none;stroke:#000000;stroke-width:0.072;stroke-linecap:butt;stroke-linejoin:miter;stroke-miterlimit:3.25;stroke-dasharray:none;stroke-opacity:1"
         id="path352" />
      <path
         d="m 136.309,267.84 v -3.762"
         style="fill:none;stroke:#000000;stroke-width:0.072;stroke-linecap:butt;stroke-linejoin:miter;stroke-miterlimit:3.25;stroke-dasharray:none;stroke-opacity:1"
         id="path354" />
      <path
         d="m 218.113,267.84 v -3.762"
         style="fill:none;stroke:#000000;stroke-width:0.072;stroke-linecap:butt;stroke-linejoin:miter;stroke-miterlimit:3.25;stroke-dasharray:none;stroke-opacity:1"
         id="path356" />
      <path
         d="m 276.152,267.84 v -3.762"
         style="fill:none;stroke:#000000;stroke-width:0.072;stroke-linecap:butt;stroke-linejoin:miter;stroke-miterlimit:3.25;stroke-dasharray:none;stroke-opacity:1"
         id="path358" />
      <path
         d="m 321.172,267.84 v -3.762"
         style="fill:none;stroke:#000000;stroke-width:0.072;stroke-linecap:butt;stroke-linejoin:miter;stroke-miterlimit:3.25;stroke-dasharray:none;stroke-opacity:1"
         id="path360" />
      <path
         d="m 357.953,267.84 v -3.762"
         style="fill:none;stroke:#000000;stroke-width:0.072;stroke-linecap:butt;stroke-linejoin:miter;stroke-miterlimit:3.25;stroke-dasharray:none;stroke-opacity:1"
         id="path362" />
      <path
         d="m 389.055,267.84 v -3.762"
         style="fill:none;stroke:#000000;stroke-width:0.072;stroke-linecap:butt;stroke-linejoin:miter;stroke-miterlimit:3.25;stroke-dasharray:none;stroke-opacity:1"
         id="path364" />
      <path
         d="m 64.348,267.84 v -2.399"
         style="fill:none;stroke:#000000;stroke-width:0.072;stroke-linecap:butt;stroke-linejoin:miter;stroke-miterlimit:3.25;stroke-dasharray:none;stroke-opacity:1"
         id="path366" />
      <path
         d="m 91.289,267.84 v -2.399"
         style="fill:none;stroke:#000000;stroke-width:0.072;stroke-linecap:butt;stroke-linejoin:miter;stroke-miterlimit:3.25;stroke-dasharray:none;stroke-opacity:1"
         id="path368" />
      <path
         d="m 115.051,267.84 v -2.399"
         style="fill:none;stroke:#000000;stroke-width:0.072;stroke-linecap:butt;stroke-linejoin:miter;stroke-miterlimit:3.25;stroke-dasharray:none;stroke-opacity:1"
         id="path370" />
      <path
         d="m 155.539,267.84 v -2.399"
         style="fill:none;stroke:#000000;stroke-width:0.072;stroke-linecap:butt;stroke-linejoin:miter;stroke-miterlimit:3.25;stroke-dasharray:none;stroke-opacity:1"
         id="path372" />
      <path
         d="m 173.094,267.84 v -2.399"
         style="fill:none;stroke:#000000;stroke-width:0.072;stroke-linecap:butt;stroke-linejoin:miter;stroke-miterlimit:3.25;stroke-dasharray:none;stroke-opacity:1"
         id="path374" />
      <path
         d="m 189.242,267.84 v -2.399"
         style="fill:none;stroke:#000000;stroke-width:0.072;stroke-linecap:butt;stroke-linejoin:miter;stroke-miterlimit:3.25;stroke-dasharray:none;stroke-opacity:1"
         id="path376" />
      <path
         d="m 204.191,267.84 v -2.399"
         style="fill:none;stroke:#000000;stroke-width:0.072;stroke-linecap:butt;stroke-linejoin:miter;stroke-miterlimit:3.25;stroke-dasharray:none;stroke-opacity:1"
         id="path378" />
      <path
         d="m 231.133,267.84 v -2.399"
         style="fill:none;stroke:#000000;stroke-width:0.072;stroke-linecap:butt;stroke-linejoin:miter;stroke-miterlimit:3.25;stroke-dasharray:none;stroke-opacity:1"
         id="path380" />
      <path
         d="m 243.363,267.84 v -2.399"
         style="fill:none;stroke:#000000;stroke-width:0.072;stroke-linecap:butt;stroke-linejoin:miter;stroke-miterlimit:3.25;stroke-dasharray:none;stroke-opacity:1"
         id="path382" />
      <path
         d="m 254.895,267.84 v -2.399"
         style="fill:none;stroke:#000000;stroke-width:0.072;stroke-linecap:butt;stroke-linejoin:miter;stroke-miterlimit:3.25;stroke-dasharray:none;stroke-opacity:1"
         id="path384" />
      <path
         d="m 265.805,267.84 v -2.399"
         style="fill:none;stroke:#000000;stroke-width:0.072;stroke-linecap:butt;stroke-linejoin:miter;stroke-miterlimit:3.25;stroke-dasharray:none;stroke-opacity:1"
         id="path386" />
      <path
         d="m 285.996,267.84 v -2.399"
         style="fill:none;stroke:#000000;stroke-width:0.072;stroke-linecap:butt;stroke-linejoin:miter;stroke-miterlimit:3.25;stroke-dasharray:none;stroke-opacity:1"
         id="path388" />
      <path
         d="m 295.379,267.84 v -2.399"
         style="fill:none;stroke:#000000;stroke-width:0.072;stroke-linecap:butt;stroke-linejoin:miter;stroke-miterlimit:3.25;stroke-dasharray:none;stroke-opacity:1"
         id="path390" />
      <path
         d="m 304.348,267.84 v -2.399"
         style="fill:none;stroke:#000000;stroke-width:0.072;stroke-linecap:butt;stroke-linejoin:miter;stroke-miterlimit:3.25;stroke-dasharray:none;stroke-opacity:1"
         id="path392" />
      <path
         d="m 312.934,267.84 v -2.399"
         style="fill:none;stroke:#000000;stroke-width:0.072;stroke-linecap:butt;stroke-linejoin:miter;stroke-miterlimit:3.25;stroke-dasharray:none;stroke-opacity:1"
         id="path394" />
      <path
         d="m 329.086,267.84 v -2.399"
         style="fill:none;stroke:#000000;stroke-width:0.072;stroke-linecap:butt;stroke-linejoin:miter;stroke-miterlimit:3.25;stroke-dasharray:none;stroke-opacity:1"
         id="path396" />
      <path
         d="m 336.699,267.84 v -2.399"
         style="fill:none;stroke:#000000;stroke-width:0.072;stroke-linecap:butt;stroke-linejoin:miter;stroke-miterlimit:3.25;stroke-dasharray:none;stroke-opacity:1"
         id="path398" />
      <path
         d="m 344.035,267.84 v -2.399"
         style="fill:none;stroke:#000000;stroke-width:0.072;stroke-linecap:butt;stroke-linejoin:miter;stroke-miterlimit:3.25;stroke-dasharray:none;stroke-opacity:1"
         id="path400" />
      <path
         d="m 351.113,267.84 v -2.399"
         style="fill:none;stroke:#000000;stroke-width:0.072;stroke-linecap:butt;stroke-linejoin:miter;stroke-miterlimit:3.25;stroke-dasharray:none;stroke-opacity:1"
         id="path402" />
      <path
         d="m 364.57,267.84 v -2.399"
         style="fill:none;stroke:#000000;stroke-width:0.072;stroke-linecap:butt;stroke-linejoin:miter;stroke-miterlimit:3.25;stroke-dasharray:none;stroke-opacity:1"
         id="path404" />
      <path
         d="m 370.977,267.84 v -2.399"
         style="fill:none;stroke:#000000;stroke-width:0.072;stroke-linecap:butt;stroke-linejoin:miter;stroke-miterlimit:3.25;stroke-dasharray:none;stroke-opacity:1"
         id="path406" />
      <path
         d="m 377.184,267.84 v -2.399"
         style="fill:none;stroke:#000000;stroke-width:0.072;stroke-linecap:butt;stroke-linejoin:miter;stroke-miterlimit:3.25;stroke-dasharray:none;stroke-opacity:1"
         id="path408" />
      <path
         d="m 383.207,267.84 v -2.399"
         style="fill:none;stroke:#000000;stroke-width:0.072;stroke-linecap:butt;stroke-linejoin:miter;stroke-miterlimit:3.25;stroke-dasharray:none;stroke-opacity:1"
         id="path410" />
      <path
         d="m 394.738,267.84 v -2.399"
         style="fill:none;stroke:#000000;stroke-width:0.072;stroke-linecap:butt;stroke-linejoin:miter;stroke-miterlimit:3.25;stroke-dasharray:none;stroke-opacity:1"
         id="path412" />
      <path
         d="m 400.266,267.84 v -2.399"
         style="fill:none;stroke:#000000;stroke-width:0.072;stroke-linecap:butt;stroke-linejoin:miter;stroke-miterlimit:3.25;stroke-dasharray:none;stroke-opacity:1"
         id="path414" />
      <path
         d="m 405.648,267.84 v -2.399"
         style="fill:none;stroke:#000000;stroke-width:0.072;stroke-linecap:butt;stroke-linejoin:miter;stroke-miterlimit:3.25;stroke-dasharray:none;stroke-opacity:1"
         id="path416" />
      <path
         d="m 410.887,267.84 v -2.399"
         style="fill:none;stroke:#000000;stroke-width:0.072;stroke-linecap:butt;stroke-linejoin:miter;stroke-miterlimit:3.25;stroke-dasharray:none;stroke-opacity:1"
         id="path418" />
      <path
         d="m 412.559,35.316 h -3.762"
         style="fill:none;stroke:#000000;stroke-width:0.072;stroke-linecap:butt;stroke-linejoin:miter;stroke-miterlimit:3.25;stroke-dasharray:none;stroke-opacity:1"
         id="path420" />
      <path
         d="m 412.559,98.949 h -3.762"
         style="fill:none;stroke:#000000;stroke-width:0.072;stroke-linecap:butt;stroke-linejoin:miter;stroke-miterlimit:3.25;stroke-dasharray:none;stroke-opacity:1"
         id="path422" />
      <path
         d="m 412.559,183.07 h -3.762"
         style="fill:none;stroke:#000000;stroke-width:0.072;stroke-linecap:butt;stroke-linejoin:miter;stroke-miterlimit:3.25;stroke-dasharray:none;stroke-opacity:1"
         id="path424" />
      <path
         d="m 412.559,246.703 h -3.762"
         style="fill:none;stroke:#000000;stroke-width:0.072;stroke-linecap:butt;stroke-linejoin:miter;stroke-miterlimit:3.25;stroke-dasharray:none;stroke-opacity:1"
         id="path426" />
      <path
         d="M 412.559,72.539 H 410.16"
         style="fill:none;stroke:#000000;stroke-width:0.072;stroke-linecap:butt;stroke-linejoin:miter;stroke-miterlimit:3.25;stroke-dasharray:none;stroke-opacity:1"
         id="path428" />
      <path
         d="M 412.559,136.172 H 410.16"
         style="fill:none;stroke:#000000;stroke-width:0.072;stroke-linecap:butt;stroke-linejoin:miter;stroke-miterlimit:3.25;stroke-dasharray:none;stroke-opacity:1"
         id="path430" />
      <path
         d="M 412.559,162.582 H 410.16"
         style="fill:none;stroke:#000000;stroke-width:0.072;stroke-linecap:butt;stroke-linejoin:miter;stroke-miterlimit:3.25;stroke-dasharray:none;stroke-opacity:1"
         id="path432" />
      <path
         d="M 412.559,199.805 H 410.16"
         style="fill:none;stroke:#000000;stroke-width:0.072;stroke-linecap:butt;stroke-linejoin:miter;stroke-miterlimit:3.25;stroke-dasharray:none;stroke-opacity:1"
         id="path434" />
      <path
         d="M 412.559,213.957 H 410.16"
         style="fill:none;stroke:#000000;stroke-width:0.072;stroke-linecap:butt;stroke-linejoin:miter;stroke-miterlimit:3.25;stroke-dasharray:none;stroke-opacity:1"
         id="path436" />
      <path
         d="M 412.559,226.215 H 410.16"
         style="fill:none;stroke:#000000;stroke-width:0.072;stroke-linecap:butt;stroke-linejoin:miter;stroke-miterlimit:3.25;stroke-dasharray:none;stroke-opacity:1"
         id="path438" />
      <path
         d="M 412.559,237.027 H 410.16"
         style="fill:none;stroke:#000000;stroke-width:0.072;stroke-linecap:butt;stroke-linejoin:miter;stroke-miterlimit:3.25;stroke-dasharray:none;stroke-opacity:1"
         id="path440" />
      <path
         d="M 412.559,255.453 H 410.16"
         style="fill:none;stroke:#000000;stroke-width:0.072;stroke-linecap:butt;stroke-linejoin:miter;stroke-miterlimit:3.25;stroke-dasharray:none;stroke-opacity:1"
         id="path442" />
      <path
         d="M 412.559,263.438 H 410.16"
         style="fill:none;stroke:#000000;stroke-width:0.072;stroke-linecap:butt;stroke-linejoin:miter;stroke-miterlimit:3.25;stroke-dasharray:none;stroke-opacity:1"
         id="path444" />
      <text
         xml:space="preserve"
         transform="matrix(1,0,0,-1,205.63988,3.998135)"
         style="font-variant:normal;font-size:11.5195px;font-family:CairoFont-3;-inkscape-font-specification:CairoFont-3-0;writing-mode:lr-tb;fill:#000000;fill-opacity:1;fill-rule:nonzero;stroke:none"
         id="text448"><tspan
           x="0"
           y="0"
           id="tspan446">m</tspan></text>
      <text
         xml:space="preserve"
         transform="matrix(1,0,0,-1,219.08318,3.998135)"
         style="font-variant:normal;font-weight:bold;font-size:11.5195px;font-family:MathematicaSans;-inkscape-font-specification:MathematicaSans-Bold;writing-mode:lr-tb;fill:#000000;fill-opacity:1;fill-rule:nonzero;stroke:none"
         id="text452"><tspan
           x="0"
           y="0"
           id="tspan450">(</tspan></text>
      <text
         xml:space="preserve"
         transform="matrix(1,0,0,-1,222.91918,3.998135)"
         style="font-variant:normal;font-weight:bold;font-size:11.5195px;font-family:Arial;-inkscape-font-specification:Arial-BoldMT;writing-mode:lr-tb;fill:#000000;fill-opacity:1;fill-rule:nonzero;stroke:none"
         id="text456"><tspan
           x="0"
           y="0"
           id="tspan454">M</tspan></text>
      <text
         xml:space="preserve"
         transform="matrix(1,0,0,-1,232.51488,1.998135)"
         style="font-variant:normal;font-weight:bold;font-size:8.17871px;font-family:MathematicaSans;-inkscape-font-specification:MathematicaSans-Bold;writing-mode:lr-tb;fill:#000000;fill-opacity:1;fill-rule:nonzero;stroke:none"
         id="text460"><tspan
           x="0"
           y="0"
           id="tspan458">☉</tspan></text>
      <text
         xml:space="preserve"
         transform="matrix(1,0,0,-1,239.4159,3.998135)"
         style="font-variant:normal;font-weight:bold;font-size:11.5195px;font-family:MathematicaSans;-inkscape-font-specification:MathematicaSans-Bold;writing-mode:lr-tb;fill:#000000;fill-opacity:1;fill-rule:nonzero;stroke:none"
         id="text464"><tspan
           x="0"
           y="0"
           id="tspan462">)</tspan></text>
      <text
         xml:space="preserve"
         transform="matrix(0,1,1,0,12,120.42299)"
         style="font-variant:normal;font-weight:bold;font-size:11.5195px;font-family:MathematicaSans;-inkscape-font-specification:MathematicaSans-Bold;writing-mode:lr-tb;fill:#000000;fill-opacity:1;fill-rule:nonzero;stroke:none"
         id="text468"><tspan
           x="0"
           y="0"
           id="tspan466">ψ</tspan></text>
      <text
         xml:space="preserve"
         transform="matrix(0,1,1,0,12,129.45431)"
         style="font-variant:normal;font-weight:bold;font-size:11.5195px;font-family:MathematicaSans;-inkscape-font-specification:MathematicaSans-Bold;writing-mode:lr-tb;fill:#000000;fill-opacity:1;fill-rule:nonzero;stroke:none"
         id="text472"><tspan
           x="0"
           y="0"
           id="tspan470">(</tspan></text>
      <text
         xml:space="preserve"
         transform="matrix(0,1,1,0,12,133.29031)"
         style="font-variant:normal;font-size:11.5195px;font-family:CairoFont-3;-inkscape-font-specification:CairoFont-3-0;writing-mode:lr-tb;fill:#000000;fill-opacity:1;fill-rule:nonzero;stroke:none"
         id="text476"><tspan
           x="0"
           y="0"
           id="tspan474">m</tspan></text>
      <text
         xml:space="preserve"
         transform="matrix(0,1,1,0,12,143.53117)"
         style="font-variant:normal;font-weight:bold;font-size:11.5195px;font-family:MathematicaSans;-inkscape-font-specification:MathematicaSans-Bold;writing-mode:lr-tb;fill:#000000;fill-opacity:1;fill-rule:nonzero;stroke:none"
         id="text480"><tspan
           x="0 7.0384336"
           y="0"
           sodipodi:role="line"
           id="tspan478">)/</tspan></text>
      <text
         xml:space="preserve"
         transform="matrix(0,1,1,0,12,156.96295)"
         style="font-variant:normal;font-weight:bold;font-size:11.5195px;font-family:MathematicaSans;-inkscape-font-specification:MathematicaSans-Bold;writing-mode:lr-tb;fill:#000000;fill-opacity:1;fill-rule:nonzero;stroke:none"
         id="text484"><tspan
           x="0"
           y="0"
           id="tspan482">ψ</tspan></text>
      <text
         xml:space="preserve"
         transform="matrix(0,1,1,0,14,166.00502)"
         style="font-variant:normal;font-weight:bold;font-size:8.17871px;font-family:Arial;-inkscape-font-specification:Arial-BoldMT;writing-mode:lr-tb;fill:#000000;fill-opacity:1;fill-rule:nonzero;stroke:none"
         id="text488"><tspan
           x="0 7.270874 11.818237"
           y="0"
           sodipodi:role="line"
           id="tspan486">max</tspan></text>
    </g>
  </g>
</svg>
