<?xml version="1.0" encoding="UTF-8" standalone="no"?>
<!-- Created with Inkscape (http://www.inkscape.org/) -->

<svg
   version="1.1"
   id="svg148"
   width="553.33331"
   height="360"
   viewBox="0 0 553.33331 360"
   sodipodi:docname="Fig5_Delta=2.svg"
   inkscape:version="1.2.2 (732a01da63, 2022-12-09, custom)"
   inkscape:export-filename="../edb661e9/Fig5_Delta=2.pdf"
   inkscape:export-xdpi="265.12"
   inkscape:export-ydpi="265.12"
   xmlns:inkscape="http://www.inkscape.org/namespaces/inkscape"
   xmlns:sodipodi="http://sodipodi.sourceforge.net/DTD/sodipodi-0.dtd"
   xmlns="http://www.w3.org/2000/svg"
   xmlns:svg="http://www.w3.org/2000/svg">
  <defs
     id="defs152">
    <clipPath
       clipPathUnits="userSpaceOnUse"
       id="clipPath166">
      <path
         d="M 36,248 H 413 V 34 H 36 Z"
         id="path164" />
    </clipPath>
    <clipPath
       clipPathUnits="userSpaceOnUse"
       id="clipPath178">
      <path
         d="M 37,248 H 413 V 34 H 37 Z"
         id="path176" />
    </clipPath>
  </defs>
  <sodipodi:namedview
     id="namedview150"
     pagecolor="#ffffff"
     bordercolor="#666666"
     borderopacity="1.0"
     inkscape:showpageshadow="2"
     inkscape:pageopacity="0.0"
     inkscape:pagecheckerboard="0"
     inkscape:deskcolor="#d1d1d1"
     showgrid="false"
     inkscape:zoom="1.5641543"
     inkscape:cx="271.71232"
     inkscape:cy="155.67518"
     inkscape:window-width="1848"
     inkscape:window-height="1016"
     inkscape:window-x="72"
     inkscape:window-y="27"
     inkscape:window-maximized="1"
     inkscape:current-layer="g156">
    <inkscape:page
       x="0"
       y="0"
       id="page154"
       width="553.33331"
       height="360"
       inkscape:export-filename="Delta=2.0"
       inkscape:export-xdpi="265.12"
       inkscape:export-ydpi="265.12" />
  </sodipodi:namedview>
  <g
     id="g156"
     inkscape:groupmode="layer"
     inkscape:label="Page 1"
     transform="matrix(1.3333333,0,0,-1.3333333,0,360)">
    <g
       id="g158"
       style="display:inline" />
    <g
       id="g160"
       style="display:inline;fill:none;fill-opacity:1;stroke:#ff00ff;stroke-opacity:1">
      <g
         id="g162"
         clip-path="url(#clipPath166)"
         style="display:inline;fill:none;fill-opacity:1;stroke:#ff00ff;stroke-opacity:1">
        <path
           d="m 36.332,35.316 0.113,0.239 0.118,0.238 0.691,1.418 0.926,1.887 1.843,3.754 3.692,7.429 8.008,15.739 7.476,14.214 7.328,13.469 7.95,14.059 7.418,12.59 8.043,13.043 7.894,12.179 7.363,10.789 7.985,11.059 7.453,9.707 7.308,8.934 7.93,9.023 7.395,7.789 8.019,7.742 7.875,6.887 7.34,5.777 7.965,5.559 7.433,4.515 0.25,0.141 0.254,0.141 0.5,0.281 1.008,0.547 2.016,1.066 4.023,1.981 0.25,0.117 0.739,0.34 0.992,0.449 1.976,0.855 0.121,0.051 0.125,0.051 0.246,0.105 0.497,0.204 0.988,0.398 1.976,0.766 0.114,0.043 0.117,0.043 0.23,0.086 0.461,0.168 0.922,0.328 1.844,0.632 0.113,0.036 0.117,0.039 0.692,0.222 0.922,0.293 1.843,0.547 1,0.281 1,0.27 2,0.5 0.125,0.027 0.125,0.032 0.25,0.058 0.5,0.113 1,0.223 2,0.406 0.114,0.02 0.117,0.023 0.703,0.129 0.934,0.16 0.113,0.02 0.351,0.058 0.465,0.075 0.934,0.14 0.117,0.02 0.352,0.047 0.464,0.066 0.934,0.121 0.117,0.012 0.117,0.016 0.235,0.027 0.465,0.055 0.933,0.097 0.117,0.012 0.34,0.035 0.457,0.039 0.117,0.012 0.114,0.012 0.23,0.019 0.457,0.035 0.114,0.008 0.113,0.012 0.23,0.015 0.457,0.032 0.114,0.008 0.117,0.007 0.226,0.016 0.457,0.027 0.118,0.004 0.113,0.008 0.226,0.012 0.118,0.004 0.113,0.007 0.23,0.012 0.227,0.008 0.23,0.012 0.457,0.015 0.227,0.008 0.23,0.008 0.114,0.004 h 0.113 l 0.23,0.008 h 0.114 l 0.117,0.004 0.113,0.004 h 0.114 l 0.113,0.003 h 0.117 l 0.113,0.004 h 0.239 l 0.125,0.004 h 0.371 l 0.125,0.004 h 0.496 l 0.125,-0.004 h 0.371 l 0.125,-0.004 h 0.246 l 0.125,-0.004 h 0.125 l 0.125,-0.003 h 0.121 l 0.125,-0.004 0.25,-0.004 0.121,-0.004 0.5,-0.016 0.121,-0.004 0.375,-0.011 0.121,-0.004 0.25,-0.012 0.125,-0.004 0.121,-0.008 0.25,-0.012 0.125,-0.003 0.125,-0.008 0.246,-0.012 0.497,-0.027 0.25,-0.016 0.246,-0.016 0.496,-0.035 0.992,-0.078 0.117,-0.008 0.117,-0.011 0.231,-0.02 0.465,-0.043 0.925,-0.094 0.114,-0.011 0.117,-0.012 0.23,-0.027 0.465,-0.055 0.926,-0.113 0.117,-0.016 0.113,-0.016 0.235,-0.027 0.461,-0.066 0.926,-0.133 1.855,-0.301 0.25,-0.047 0.25,-0.043 0.504,-0.094 1.004,-0.191 2.008,-0.426 0.25,-0.054 0.25,-0.059 0.504,-0.113 1.003,-0.246 2.008,-0.52 0.125,-0.035 0.121,-0.031 0.246,-0.071 0.493,-0.136 0.988,-0.286 1.969,-0.609 0.25,-0.078 0.246,-0.082 0.492,-0.16 0.984,-0.336 1.973,-0.703 0.113,-0.039 0.117,-0.043 0.227,-0.086 1.383,-0.528 1.836,-0.742 3.679,-1.605 0.125,-0.055 0.125,-0.059 0.247,-0.117 0.5,-0.23 0.996,-0.477 1.996,-0.988 3.988,-2.125 7.445,-4.492 7.297,-5.071 7.922,-6.253 7.391,-6.543 8.011,-7.871 7.481,-8.083 7.332,-8.613 7.957,-10.125 7.422,-10.187 8.047,-11.848 7.898,-12.461 7.371,-12.367 7.989,-14.234 7.46,-14.067 7.313,-14.527 7.934,-16.602 7.402,-16.281 0.129,-0.293 0.129,-0.289 0.258,-0.586 0.515,-1.168 1.035,-2.348 2.067,-4.746 0.129,-0.297 0.129,-0.3 0.257,-0.598 0.516,-1.199 1.031,-2.41 0.133,-0.301 0.129,-0.305 0.258,-0.605 0.515,-1.215 0.903,-2.133 0.129,-0.309"
           style="fill:none;stroke:#ff00ff;stroke-width:1.152;stroke-linecap:square;stroke-linejoin:miter;stroke-miterlimit:3.25;stroke-dasharray:none;stroke-opacity:1;fill-opacity:1"
           id="path168" />
        <path
           d="m 43.578,35.316 0.137,0.325 8.008,17.937 7.476,16.035 7.328,15.047 7.95,15.567 7.418,13.816 8.043,14.207 7.894,13.164 7.363,11.582 7.985,11.797 7.453,10.301 7.308,9.426 7.93,9.48 7.395,8.141 8.019,8.054 7.875,7.133 7.34,5.957 7.965,5.707 7.433,4.613 0.125,0.071 0.125,0.074 0.254,0.145 0.5,0.281 1.008,0.562 2.016,1.082 4.023,2.012 0.25,0.117 0.246,0.114 0.493,0.23 0.992,0.453 1.976,0.863 0.121,0.055 0.125,0.051 0.246,0.105 0.497,0.203 0.988,0.403 1.976,0.769 0.114,0.043 0.117,0.043 0.691,0.258 0.922,0.328 1.844,0.633 0.113,0.039 0.117,0.035 0.231,0.078 0.461,0.149 0.922,0.289 1.843,0.543 0.125,0.039 0.375,0.105 0.5,0.137 1,0.266 2,0.496 0.125,0.027 0.125,0.031 0.25,0.055 0.5,0.113 1,0.219 2,0.395 0.114,0.023 0.117,0.02 0.234,0.043 0.469,0.082 0.934,0.156 0.113,0.019 0.117,0.02 0.234,0.035 0.465,0.074 0.934,0.133 0.469,0.063 0.464,0.062 0.934,0.113 0.117,0.016 0.117,0.012 0.235,0.027 0.465,0.047 0.933,0.094 0.117,0.011 0.114,0.008 0.226,0.024 0.457,0.035 0.117,0.012 0.114,0.007 0.23,0.02 0.457,0.031 0.227,0.016 0.23,0.015 0.457,0.028 0.114,0.008 0.117,0.007 0.226,0.012 0.457,0.024 0.118,0.003 0.113,0.004 0.226,0.012 0.118,0.004 0.113,0.004 0.23,0.008 0.227,0.007 0.23,0.008 0.227,0.008 0.23,0.008 h 0.114 l 0.113,0.004 0.117,0.004 h 0.113 l 0.114,0.004 h 0.113 l 0.117,0.004 h 0.227 l 0.117,0.003 h 0.34 l 0.117,0.004 h 0.723 l 0.125,-0.004 h 0.371 l 0.125,-0.003 h 0.125 l 0.125,-0.004 h 0.125 l 0.121,-0.004 h 0.125 l 0.25,-0.008 h 0.121 l 0.375,-0.012 0.121,-0.004 0.375,-0.011 0.121,-0.004 0.125,-0.004 0.25,-0.012 0.496,-0.019 0.125,-0.008 0.121,-0.008 0.25,-0.012 0.496,-0.027 0.25,-0.016 0.246,-0.015 0.497,-0.036 0.25,-0.015 0.246,-0.02 0.496,-0.043 0.992,-0.09 0.234,-0.023 0.231,-0.023 0.465,-0.047 0.925,-0.106 0.114,-0.015 0.117,-0.012 0.23,-0.031 0.465,-0.059 0.926,-0.125 0.117,-0.019 0.113,-0.016 0.235,-0.035 0.461,-0.071 0.926,-0.144 1.855,-0.332 0.5,-0.094 0.504,-0.101 1.004,-0.207 2.008,-0.454 0.25,-0.062 0.25,-0.059 0.504,-0.125 1.003,-0.258 2.008,-0.554 0.125,-0.035 0.121,-0.039 0.246,-0.071 0.493,-0.148 0.988,-0.301 1.969,-0.641 0.25,-0.086 0.246,-0.082 0.492,-0.171 0.984,-0.352 1.973,-0.738 0.113,-0.043 0.117,-0.043 0.227,-0.09 0.461,-0.184 0.922,-0.371 1.836,-0.773 3.679,-1.672 0.125,-0.063 0.125,-0.058 0.247,-0.121 0.5,-0.242 0.996,-0.497 1.996,-1.023 3.988,-2.203 7.445,-4.641 7.297,-5.215 7.922,-6.41 7.391,-6.679 8.011,-8.012 7.481,-8.199 7.332,-8.711 7.957,-10.207 7.422,-10.235 8.047,-11.863 7.898,-12.43 7.371,-12.293 7.989,-14.089 7.46,-13.872 7.313,-14.269 7.934,-16.234 7.402,-15.852 0.258,-0.563 0.258,-0.566 0.515,-1.137 1.035,-2.277 2.067,-4.598 0.129,-0.293 0.386,-0.867 0.516,-1.16 1.031,-2.332 0.133,-0.293 0.387,-0.879 0.515,-1.176 0.258,-0.586 0.258,-0.589 0.129,-0.297 0.129,-0.293 0.258,-0.594"
           style="display:none;fill:none;stroke:#ff00ff;stroke-width:1.152;stroke-linecap:square;stroke-linejoin:miter;stroke-miterlimit:3.25;stroke-dasharray:18.8114;stroke-dashoffset:0;stroke-opacity:1;fill-opacity:1"
           id="path170" />
      </g>
    </g>
    <g
       id="g172"
       style="display:none">
      <g
         id="g174"
         clip-path="url(#clipPath178)">
        <path
           d="m 37.789,35.316 0.391,0.84 1.843,3.961 3.692,7.813 8.008,16.437 7.476,14.735 7.328,13.863 7.95,14.387 7.418,12.808 8.043,13.207 7.894,12.285 7.363,10.84 7.985,11.082 7.453,9.707 7.308,8.914 7.93,9 7.395,7.754 8.019,7.711 7.875,6.856 7.34,5.75 7.965,5.539 7.433,4.504 0.25,0.14 0.254,0.141 0.5,0.277 1.008,0.551 2.016,1.062 4.023,1.981 0.125,0.059 0.125,0.054 0.246,0.117 0.493,0.227 0.992,0.445 1.976,0.856 0.121,0.054 0.125,0.051 0.246,0.102 0.497,0.207 0.988,0.398 1.976,0.766 0.114,0.043 0.117,0.043 0.23,0.086 0.461,0.168 0.922,0.332 1.844,0.633 0.113,0.035 0.117,0.039 0.692,0.222 0.922,0.293 1.843,0.551 1,0.281 1,0.27 2,0.504 0.25,0.062 0.25,0.059 0.5,0.113 1,0.223 2,0.41 0.114,0.02 0.117,0.023 0.703,0.129 0.934,0.164 0.113,0.02 0.351,0.058 0.465,0.078 0.934,0.141 0.117,0.019 0.117,0.016 0.235,0.035 0.464,0.063 0.934,0.125 0.117,0.011 0.117,0.016 0.235,0.027 0.465,0.055 0.933,0.102 0.117,0.011 0.34,0.036 0.457,0.042 0.117,0.012 0.114,0.008 0.23,0.02 0.457,0.039 0.114,0.007 0.113,0.012 0.23,0.016 0.457,0.035 0.114,0.008 0.117,0.008 0.226,0.015 0.457,0.028 0.118,0.007 0.113,0.004 0.226,0.012 0.118,0.008 0.113,0.004 0.23,0.011 0.114,0.008 0.113,0.004 0.23,0.012 0.457,0.015 0.227,0.008 0.23,0.008 0.227,0.008 0.23,0.008 h 0.114 l 0.117,0.004 0.113,0.004 h 0.114 l 0.113,0.003 h 0.117 l 0.113,0.004 h 0.114 l 0.125,0.004 h 0.25 l 0.121,0.004 h 1.492 l 0.121,-0.004 h 0.125 l 0.125,-0.004 h 0.125 l 0.121,-0.004 h 0.125 l 0.25,-0.003 0.121,-0.004 0.375,-0.012 h 0.125 l 0.121,-0.004 0.375,-0.012 0.121,-0.008 0.375,-0.011 0.121,-0.008 0.25,-0.008 0.125,-0.008 0.125,-0.004 0.246,-0.015 0.497,-0.028 0.125,-0.003 0.125,-0.008 0.246,-0.016 0.496,-0.035 0.992,-0.074 0.117,-0.008 0.117,-0.012 0.231,-0.019 0.465,-0.043 0.925,-0.09 0.114,-0.012 0.117,-0.012 0.23,-0.027 0.465,-0.051 0.926,-0.113 0.117,-0.016 0.113,-0.015 0.235,-0.028 0.461,-0.062 0.926,-0.137 1.855,-0.297 0.125,-0.019 0.125,-0.024 0.25,-0.043 0.504,-0.093 1.004,-0.192 2.008,-0.418 0.125,-0.027 0.125,-0.031 0.25,-0.055 0.504,-0.117 1.003,-0.239 2.008,-0.519 0.125,-0.035 0.121,-0.031 0.246,-0.071 0.493,-0.136 0.988,-0.286 1.969,-0.605 0.25,-0.078 0.246,-0.082 0.492,-0.16 0.984,-0.332 1.973,-0.704 0.113,-0.043 0.117,-0.043 0.227,-0.085 0.461,-0.172 0.922,-0.356 1.836,-0.738 3.679,-1.606 0.25,-0.117 0.247,-0.113 0.5,-0.234 0.996,-0.477 1.996,-0.992 3.988,-2.129 7.445,-4.508 7.297,-5.098 7.922,-6.292 7.391,-6.586 8.011,-7.93 7.481,-8.149 7.332,-8.683 7.957,-10.211 7.422,-10.266 8.047,-11.941 7.898,-12.547 7.371,-12.441 7.989,-14.301 7.46,-14.113 7.313,-14.551 7.934,-16.598 7.402,-16.242 0.129,-0.293 0.129,-0.289 0.773,-1.746 1.035,-2.34 2.067,-4.719 0.129,-0.297 0.129,-0.3 0.257,-0.594 0.516,-1.192 1.031,-2.398 0.133,-0.301 0.387,-0.902 0.515,-1.207 0.129,-0.305 0.129,-0.301 0.258,-0.605 0.129,-0.305 0.094,-0.219"
           style="fill:none;stroke:#0000ff;stroke-width:1.152;stroke-linecap:square;stroke-linejoin:miter;stroke-miterlimit:3.25;stroke-dasharray:11.2868;stroke-dashoffset:0;stroke-opacity:1"
           id="path180" />
        <path
           d="m 38.066,35.316 0.114,0.247 1.843,3.976 3.692,7.848 8.008,16.508 7.476,14.796 7.328,13.922 7.95,14.45 7.418,12.859 8.043,13.262 7.894,12.324 7.363,10.879 7.985,11.117 7.453,9.734 7.308,8.938 7.93,9.015 7.395,7.77 8.019,7.719 7.875,6.859 7.34,5.754 7.965,5.535 7.433,4.504 0.25,0.141 0.254,0.14 0.5,0.278 1.008,0.547 2.016,1.062 4.023,1.977 0.25,0.117 0.739,0.34 0.992,0.445 1.976,0.855 0.121,0.055 0.125,0.051 0.246,0.101 0.497,0.204 0.988,0.398 1.976,0.766 0.114,0.043 0.117,0.043 0.23,0.085 0.461,0.168 0.922,0.329 1.844,0.632 0.113,0.039 0.117,0.036 0.231,0.078 0.461,0.148 0.922,0.289 1.843,0.547 0.125,0.039 0.375,0.106 0.5,0.136 1,0.27 2,0.504 0.125,0.027 0.125,0.031 0.75,0.176 1,0.219 2,0.406 0.114,0.024 0.117,0.023 0.703,0.129 0.934,0.164 0.113,0.02 0.351,0.058 0.465,0.074 0.934,0.141 0.117,0.02 0.352,0.046 0.464,0.067 0.934,0.121 0.117,0.016 0.117,0.011 0.235,0.031 0.465,0.055 0.933,0.098 0.117,0.012 0.34,0.035 0.457,0.043 0.117,0.011 0.114,0.008 0.23,0.02 0.457,0.039 0.114,0.008 0.113,0.011 0.23,0.016 0.457,0.031 0.114,0.008 0.117,0.008 0.226,0.015 0.457,0.028 0.118,0.008 0.113,0.007 0.226,0.012 0.118,0.004 0.113,0.008 0.23,0.012 0.227,0.007 0.23,0.012 0.457,0.016 0.227,0.008 0.23,0.007 0.227,0.008 0.23,0.008 h 0.114 l 0.117,0.004 0.113,0.004 h 0.114 l 0.113,0.004 h 0.117 l 0.113,0.004 h 0.114 l 0.125,0.004 h 0.25 l 0.121,0.003 h 1.242 l 0.125,-0.003 h 0.246 l 0.125,-0.004 h 0.125 l 0.125,-0.004 h 0.121 l 0.125,-0.004 0.25,-0.004 0.121,-0.004 h 0.125 l 0.375,-0.012 0.121,-0.004 0.375,-0.011 0.121,-0.004 0.25,-0.012 0.125,-0.004 0.121,-0.004 0.25,-0.012 0.125,-0.007 0.125,-0.004 0.246,-0.016 0.497,-0.027 0.125,-0.004 0.125,-0.008 0.246,-0.016 0.496,-0.035 0.992,-0.074 0.117,-0.012 0.117,-0.007 0.231,-0.02 0.465,-0.043 0.925,-0.09 0.114,-0.015 0.117,-0.012 0.23,-0.024 0.465,-0.054 0.926,-0.11 0.117,-0.015 0.113,-0.016 0.235,-0.031 0.461,-0.063 0.926,-0.132 1.855,-0.301 0.125,-0.02 0.125,-0.023 0.25,-0.043 0.504,-0.09 1.004,-0.191 2.008,-0.422 0.25,-0.055 0.25,-0.059 0.504,-0.117 1.003,-0.238 2.008,-0.52 0.125,-0.035 0.121,-0.031 0.246,-0.07 0.493,-0.137 0.988,-0.285 1.969,-0.606 0.25,-0.078 0.246,-0.078 0.492,-0.164 0.984,-0.332 1.973,-0.699 0.113,-0.043 0.117,-0.043 0.227,-0.086 0.461,-0.172 0.922,-0.355 1.836,-0.739 3.679,-1.601 0.125,-0.059 0.125,-0.055 0.247,-0.117 0.5,-0.234 0.996,-0.477 1.996,-0.988 3.988,-2.125 7.445,-4.496 7.297,-5.086 7.922,-6.277 7.391,-6.571 8.011,-7.91 7.481,-8.129 7.332,-8.664 7.957,-10.187 7.422,-10.246 8.047,-11.918 7.898,-12.532 7.371,-12.425 7.989,-14.293 7.46,-14.11 7.313,-14.558 7.934,-16.61 7.402,-16.265 0.129,-0.293 0.129,-0.289 0.258,-0.582 0.515,-1.168 1.035,-2.344 2.067,-4.731 0.258,-0.593 0.773,-1.793 1.031,-2.403 0.133,-0.3 0.129,-0.301 0.773,-1.817 0.129,-0.3 0.129,-0.305 0.258,-0.606 0.258,-0.609 0.023,-0.055"
           style="fill:none;stroke:#008000;stroke-width:1.152;stroke-linecap:square;stroke-linejoin:miter;stroke-miterlimit:3.25;stroke-dasharray:7.52457;stroke-dashoffset:0;stroke-opacity:1"
           id="path182" />
        <text
           xml:space="preserve"
           transform="matrix(1,0,0,-1,62.054547,228.46172)"
           style="font-variant:normal;font-weight:normal;font-size:14.3994px;font-family:MathematicaSans;-inkscape-font-specification:MathematicaSans;writing-mode:lr-tb;fill:#000000;fill-opacity:1;fill-rule:nonzero;stroke:none"
           id="text186"><tspan
             x="0"
             y="0"
             id="tspan184">Δ</tspan></text>
        <text
           xml:space="preserve"
           transform="matrix(1,0,0,-1,72.191734,228.46172)"
           style="font-variant:normal;font-weight:normal;font-size:14.3994px;font-family:MathematicaSans;-inkscape-font-specification:MathematicaSans;writing-mode:lr-tb;fill:#000000;fill-opacity:1;fill-rule:nonzero;stroke:none"
           id="text190"><tspan
             x="0"
             y="0"
             id="tspan188">=</tspan></text>
        <text
           xml:space="preserve"
           transform="matrix(1,0,0,-1,80.586593,228.46172)"
           style="font-variant:normal;font-weight:normal;font-size:14.3994px;font-family:Arial;-inkscape-font-specification:ArialMT;writing-mode:lr-tb;fill:#000000;fill-opacity:1;fill-rule:nonzero;stroke:none"
           id="text194"><tspan
             x="0"
             y="0"
             id="tspan192">2</tspan></text>
      </g>
    </g>
    <g
       id="g196"
       style="display:inline">
      <path
         d="M 412.559,35.316 H 36.332"
         style="fill:none;stroke:#000000;stroke-width:0.144;stroke-linecap:square;stroke-linejoin:miter;stroke-miterlimit:3.25;stroke-dasharray:none;stroke-opacity:1"
         id="path198" />
      <path
         d="M 36.332,35.316 V 267.84"
         style="fill:none;stroke:#000000;stroke-width:0.144;stroke-linecap:square;stroke-linejoin:miter;stroke-miterlimit:3.25;stroke-dasharray:none;stroke-opacity:1"
         id="path200" />
      <path
         d="M 36.332,267.84 H 412.559"
         style="fill:none;stroke:#000000;stroke-width:0.144;stroke-linecap:square;stroke-linejoin:miter;stroke-miterlimit:3.25;stroke-dasharray:none;stroke-opacity:1"
         id="path202" />
      <path
         d="M 412.559,267.84 V 35.316"
         style="fill:none;stroke:#000000;stroke-width:0.144;stroke-linecap:square;stroke-linejoin:miter;stroke-miterlimit:3.25;stroke-dasharray:none;stroke-opacity:1"
         id="path204" />
      <path
         d="m 91.98,35.316 v 3.766"
         style="fill:none;stroke:#000000;stroke-width:0.072;stroke-linecap:butt;stroke-linejoin:miter;stroke-miterlimit:3.25;stroke-dasharray:none;stroke-opacity:1"
         id="path206" />
      <text
         xml:space="preserve"
         transform="matrix(1,0,0,-1,86.374422,23.158135)"
         style="font-variant:normal;font-weight:bold;font-size:10.0791px;font-family:Arial;-inkscape-font-specification:Arial-BoldMT;writing-mode:lr-tb;fill:#000000;fill-opacity:1;fill-rule:nonzero;stroke:none"
         id="text210"><tspan
           x="0 5.6039805"
           y="0"
           sodipodi:role="line"
           id="tspan208">10</tspan></text>
      <path
         d="m 159.859,35.316 v 3.766"
         style="fill:none;stroke:#000000;stroke-width:0.072;stroke-linecap:butt;stroke-linejoin:miter;stroke-miterlimit:3.25;stroke-dasharray:none;stroke-opacity:1"
         id="path212" />
      <text
         xml:space="preserve"
         transform="matrix(1,0,0,-1,154.25554,23.158135)"
         style="font-variant:normal;font-weight:bold;font-size:10.0791px;font-family:Arial;-inkscape-font-specification:Arial-BoldMT;writing-mode:lr-tb;fill:#000000;fill-opacity:1;fill-rule:nonzero;stroke:none"
         id="text216"><tspan
           x="0 5.6039805"
           y="0"
           sodipodi:role="line"
           id="tspan214">20</tspan></text>
      <path
         d="m 249.594,35.316 v 3.766"
         style="fill:none;stroke:#000000;stroke-width:0.072;stroke-linecap:butt;stroke-linejoin:miter;stroke-miterlimit:3.25;stroke-dasharray:none;stroke-opacity:1"
         id="path218" />
      <text
         xml:space="preserve"
         transform="matrix(1,0,0,-1,243.9895,23.158135)"
         style="font-variant:normal;font-weight:bold;font-size:10.0791px;font-family:Arial;-inkscape-font-specification:Arial-BoldMT;writing-mode:lr-tb;fill:#000000;fill-opacity:1;fill-rule:nonzero;stroke:none"
         id="text222"><tspan
           x="0 5.6039805"
           y="0"
           sodipodi:role="line"
           id="tspan220">50</tspan></text>
      <path
         d="m 317.477,35.316 v 3.766"
         style="fill:none;stroke:#000000;stroke-width:0.072;stroke-linecap:butt;stroke-linejoin:miter;stroke-miterlimit:3.25;stroke-dasharray:none;stroke-opacity:1"
         id="path224" />
      <text
         xml:space="preserve"
         transform="matrix(1,0,0,-1,309.06788,23.158135)"
         style="font-variant:normal;font-weight:bold;font-size:10.0791px;font-family:Arial;-inkscape-font-specification:Arial-BoldMT;writing-mode:lr-tb;fill:#000000;fill-opacity:1;fill-rule:nonzero;stroke:none"
         id="text228"><tspan
           x="0 5.6039805 11.207961"
           y="0"
           sodipodi:role="line"
           id="tspan226">100</tspan></text>
      <path
         d="m 385.355,35.316 v 3.766"
         style="fill:none;stroke:#000000;stroke-width:0.072;stroke-linecap:butt;stroke-linejoin:miter;stroke-miterlimit:3.25;stroke-dasharray:none;stroke-opacity:1"
         id="path230" />
      <text
         xml:space="preserve"
         transform="matrix(1,0,0,-1,376.949,23.158135)"
         style="font-variant:normal;font-weight:bold;font-size:10.0791px;font-family:Arial;-inkscape-font-specification:Arial-BoldMT;writing-mode:lr-tb;fill:#000000;fill-opacity:1;fill-rule:nonzero;stroke:none"
         id="text234"><tspan
           x="0 5.6039805 11.207961"
           y="0"
           sodipodi:role="line"
           id="tspan232">200</tspan></text>
      <path
         d="m 41.953,35.316 v 2.403"
         style="fill:none;stroke:#000000;stroke-width:0.072;stroke-linecap:butt;stroke-linejoin:miter;stroke-miterlimit:3.25;stroke-dasharray:none;stroke-opacity:1"
         id="path236" />
      <path
         d="m 57.051,35.316 v 2.403"
         style="fill:none;stroke:#000000;stroke-width:0.072;stroke-linecap:butt;stroke-linejoin:miter;stroke-miterlimit:3.25;stroke-dasharray:none;stroke-opacity:1"
         id="path238" />
      <path
         d="m 70.129,35.316 v 2.403"
         style="fill:none;stroke:#000000;stroke-width:0.072;stroke-linecap:butt;stroke-linejoin:miter;stroke-miterlimit:3.25;stroke-dasharray:none;stroke-opacity:1"
         id="path240" />
      <path
         d="m 81.66,35.316 v 2.403"
         style="fill:none;stroke:#000000;stroke-width:0.072;stroke-linecap:butt;stroke-linejoin:miter;stroke-miterlimit:3.25;stroke-dasharray:none;stroke-opacity:1"
         id="path242" />
      <path
         d="m 131.688,35.316 v 2.403"
         style="fill:none;stroke:#000000;stroke-width:0.072;stroke-linecap:butt;stroke-linejoin:miter;stroke-miterlimit:3.25;stroke-dasharray:none;stroke-opacity:1"
         id="path244" />
      <path
         d="m 199.57,35.316 v 2.403"
         style="fill:none;stroke:#000000;stroke-width:0.072;stroke-linecap:butt;stroke-linejoin:miter;stroke-miterlimit:3.25;stroke-dasharray:none;stroke-opacity:1"
         id="path246" />
      <path
         d="m 227.742,35.316 v 2.403"
         style="fill:none;stroke:#000000;stroke-width:0.072;stroke-linecap:butt;stroke-linejoin:miter;stroke-miterlimit:3.25;stroke-dasharray:none;stroke-opacity:1"
         id="path248" />
      <path
         d="m 267.449,35.316 v 2.403"
         style="fill:none;stroke:#000000;stroke-width:0.072;stroke-linecap:butt;stroke-linejoin:miter;stroke-miterlimit:3.25;stroke-dasharray:none;stroke-opacity:1"
         id="path250" />
      <path
         d="m 282.547,35.316 v 2.403"
         style="fill:none;stroke:#000000;stroke-width:0.072;stroke-linecap:butt;stroke-linejoin:miter;stroke-miterlimit:3.25;stroke-dasharray:none;stroke-opacity:1"
         id="path252" />
      <path
         d="m 295.625,35.316 v 2.403"
         style="fill:none;stroke:#000000;stroke-width:0.072;stroke-linecap:butt;stroke-linejoin:miter;stroke-miterlimit:3.25;stroke-dasharray:none;stroke-opacity:1"
         id="path254" />
      <path
         d="m 307.156,35.316 v 2.403"
         style="fill:none;stroke:#000000;stroke-width:0.072;stroke-linecap:butt;stroke-linejoin:miter;stroke-miterlimit:3.25;stroke-dasharray:none;stroke-opacity:1"
         id="path256" />
      <path
         d="m 357.184,35.316 v 2.403"
         style="fill:none;stroke:#000000;stroke-width:0.072;stroke-linecap:butt;stroke-linejoin:miter;stroke-miterlimit:3.25;stroke-dasharray:none;stroke-opacity:1"
         id="path258" />
      <path
         d="m 36.332,35.316 h 3.762"
         style="fill:none;stroke:#000000;stroke-width:0.072;stroke-linecap:butt;stroke-linejoin:miter;stroke-miterlimit:3.25;stroke-dasharray:none;stroke-opacity:1"
         id="path260" />
      <text
         xml:space="preserve"
         transform="matrix(1,0,0,-1,20.16,31.318135)"
         style="font-variant:normal;font-weight:bold;font-size:10.0791px;font-family:Arial;-inkscape-font-specification:Arial-BoldMT;writing-mode:lr-tb;fill:#000000;fill-opacity:1;fill-rule:nonzero;stroke:none"
         id="text264"><tspan
           x="0 5.6039805 8.3958921"
           y="0"
           sodipodi:role="line"
           id="tspan262">0.1</tspan></text>
      <path
         d="m 36.332,98.949 h 3.762"
         style="fill:none;stroke:#000000;stroke-width:0.072;stroke-linecap:butt;stroke-linejoin:miter;stroke-miterlimit:3.25;stroke-dasharray:none;stroke-opacity:1"
         id="path266" />
      <text
         xml:space="preserve"
         transform="matrix(1,0,0,-1,20.16,94.950913)"
         style="font-variant:normal;font-weight:bold;font-size:10.0791px;font-family:Arial;-inkscape-font-specification:Arial-BoldMT;writing-mode:lr-tb;fill:#000000;fill-opacity:1;fill-rule:nonzero;stroke:none"
         id="text270"><tspan
           x="0 5.6039805 8.3958921"
           y="0"
           sodipodi:role="line"
           id="tspan268">0.2</tspan></text>
      <path
         d="m 36.332,183.07 h 3.762"
         style="fill:none;stroke:#000000;stroke-width:0.072;stroke-linecap:butt;stroke-linejoin:miter;stroke-miterlimit:3.25;stroke-dasharray:none;stroke-opacity:1"
         id="path272" />
      <text
         xml:space="preserve"
         transform="matrix(1,0,0,-1,20.16,179.06887)"
         style="font-variant:normal;font-weight:bold;font-size:10.0791px;font-family:Arial;-inkscape-font-specification:Arial-BoldMT;writing-mode:lr-tb;fill:#000000;fill-opacity:1;fill-rule:nonzero;stroke:none"
         id="text276"><tspan
           x="0 5.6039805 8.3958921"
           y="0"
           sodipodi:role="line"
           id="tspan274">0.5</tspan></text>
      <path
         d="m 36.332,246.703 h 3.762"
         style="fill:none;stroke:#000000;stroke-width:0.072;stroke-linecap:butt;stroke-linejoin:miter;stroke-miterlimit:3.25;stroke-dasharray:none;stroke-opacity:1"
         id="path278" />
      <text
         xml:space="preserve"
         transform="matrix(1,0,0,-1,28.56625,242.70165)"
         style="font-variant:normal;font-weight:bold;font-size:10.0791px;font-family:Arial;-inkscape-font-specification:Arial-BoldMT;writing-mode:lr-tb;fill:#000000;fill-opacity:1;fill-rule:nonzero;stroke:none"
         id="text282"><tspan
           x="0"
           y="0"
           id="tspan280">1</tspan></text>
      <path
         d="M 36.332,72.539 H 38.73"
         style="fill:none;stroke:#000000;stroke-width:0.072;stroke-linecap:butt;stroke-linejoin:miter;stroke-miterlimit:3.25;stroke-dasharray:none;stroke-opacity:1"
         id="path284" />
      <path
         d="M 36.332,136.172 H 38.73"
         style="fill:none;stroke:#000000;stroke-width:0.072;stroke-linecap:butt;stroke-linejoin:miter;stroke-miterlimit:3.25;stroke-dasharray:none;stroke-opacity:1"
         id="path286" />
      <path
         d="M 36.332,162.582 H 38.73"
         style="fill:none;stroke:#000000;stroke-width:0.072;stroke-linecap:butt;stroke-linejoin:miter;stroke-miterlimit:3.25;stroke-dasharray:none;stroke-opacity:1"
         id="path288" />
      <path
         d="M 36.332,199.805 H 38.73"
         style="fill:none;stroke:#000000;stroke-width:0.072;stroke-linecap:butt;stroke-linejoin:miter;stroke-miterlimit:3.25;stroke-dasharray:none;stroke-opacity:1"
         id="path290" />
      <path
         d="M 36.332,213.957 H 38.73"
         style="fill:none;stroke:#000000;stroke-width:0.072;stroke-linecap:butt;stroke-linejoin:miter;stroke-miterlimit:3.25;stroke-dasharray:none;stroke-opacity:1"
         id="path292" />
      <path
         d="M 36.332,226.215 H 38.73"
         style="fill:none;stroke:#000000;stroke-width:0.072;stroke-linecap:butt;stroke-linejoin:miter;stroke-miterlimit:3.25;stroke-dasharray:none;stroke-opacity:1"
         id="path294" />
      <path
         d="M 36.332,237.027 H 38.73"
         style="fill:none;stroke:#000000;stroke-width:0.072;stroke-linecap:butt;stroke-linejoin:miter;stroke-miterlimit:3.25;stroke-dasharray:none;stroke-opacity:1"
         id="path296" />
      <path
         d="M 36.332,255.453 H 38.73"
         style="fill:none;stroke:#000000;stroke-width:0.072;stroke-linecap:butt;stroke-linejoin:miter;stroke-miterlimit:3.25;stroke-dasharray:none;stroke-opacity:1"
         id="path298" />
      <path
         d="M 36.332,263.438 H 38.73"
         style="fill:none;stroke:#000000;stroke-width:0.072;stroke-linecap:butt;stroke-linejoin:miter;stroke-miterlimit:3.25;stroke-dasharray:none;stroke-opacity:1"
         id="path300" />
      <path
         d="m 91.98,267.84 v -3.762"
         style="fill:none;stroke:#000000;stroke-width:0.072;stroke-linecap:butt;stroke-linejoin:miter;stroke-miterlimit:3.25;stroke-dasharray:none;stroke-opacity:1"
         id="path302" />
      <path
         d="m 159.859,267.84 v -3.762"
         style="fill:none;stroke:#000000;stroke-width:0.072;stroke-linecap:butt;stroke-linejoin:miter;stroke-miterlimit:3.25;stroke-dasharray:none;stroke-opacity:1"
         id="path304" />
      <path
         d="m 249.594,267.84 v -3.762"
         style="fill:none;stroke:#000000;stroke-width:0.072;stroke-linecap:butt;stroke-linejoin:miter;stroke-miterlimit:3.25;stroke-dasharray:none;stroke-opacity:1"
         id="path306" />
      <path
         d="m 317.477,267.84 v -3.762"
         style="fill:none;stroke:#000000;stroke-width:0.072;stroke-linecap:butt;stroke-linejoin:miter;stroke-miterlimit:3.25;stroke-dasharray:none;stroke-opacity:1"
         id="path308" />
      <path
         d="m 385.355,267.84 v -3.762"
         style="fill:none;stroke:#000000;stroke-width:0.072;stroke-linecap:butt;stroke-linejoin:miter;stroke-miterlimit:3.25;stroke-dasharray:none;stroke-opacity:1"
         id="path310" />
      <path
         d="m 41.953,267.84 v -2.399"
         style="fill:none;stroke:#000000;stroke-width:0.072;stroke-linecap:butt;stroke-linejoin:miter;stroke-miterlimit:3.25;stroke-dasharray:none;stroke-opacity:1"
         id="path312" />
      <path
         d="m 57.051,267.84 v -2.399"
         style="fill:none;stroke:#000000;stroke-width:0.072;stroke-linecap:butt;stroke-linejoin:miter;stroke-miterlimit:3.25;stroke-dasharray:none;stroke-opacity:1"
         id="path314" />
      <path
         d="m 70.129,267.84 v -2.399"
         style="fill:none;stroke:#000000;stroke-width:0.072;stroke-linecap:butt;stroke-linejoin:miter;stroke-miterlimit:3.25;stroke-dasharray:none;stroke-opacity:1"
         id="path316" />
      <path
         d="m 81.66,267.84 v -2.399"
         style="fill:none;stroke:#000000;stroke-width:0.072;stroke-linecap:butt;stroke-linejoin:miter;stroke-miterlimit:3.25;stroke-dasharray:none;stroke-opacity:1"
         id="path318" />
      <path
         d="m 131.688,267.84 v -2.399"
         style="fill:none;stroke:#000000;stroke-width:0.072;stroke-linecap:butt;stroke-linejoin:miter;stroke-miterlimit:3.25;stroke-dasharray:none;stroke-opacity:1"
         id="path320" />
      <path
         d="m 199.57,267.84 v -2.399"
         style="fill:none;stroke:#000000;stroke-width:0.072;stroke-linecap:butt;stroke-linejoin:miter;stroke-miterlimit:3.25;stroke-dasharray:none;stroke-opacity:1"
         id="path322" />
      <path
         d="m 227.742,267.84 v -2.399"
         style="fill:none;stroke:#000000;stroke-width:0.072;stroke-linecap:butt;stroke-linejoin:miter;stroke-miterlimit:3.25;stroke-dasharray:none;stroke-opacity:1"
         id="path324" />
      <path
         d="m 267.449,267.84 v -2.399"
         style="fill:none;stroke:#000000;stroke-width:0.072;stroke-linecap:butt;stroke-linejoin:miter;stroke-miterlimit:3.25;stroke-dasharray:none;stroke-opacity:1"
         id="path326" />
      <path
         d="m 282.547,267.84 v -2.399"
         style="fill:none;stroke:#000000;stroke-width:0.072;stroke-linecap:butt;stroke-linejoin:miter;stroke-miterlimit:3.25;stroke-dasharray:none;stroke-opacity:1"
         id="path328" />
      <path
         d="m 295.625,267.84 v -2.399"
         style="fill:none;stroke:#000000;stroke-width:0.072;stroke-linecap:butt;stroke-linejoin:miter;stroke-miterlimit:3.25;stroke-dasharray:none;stroke-opacity:1"
         id="path330" />
      <path
         d="m 307.156,267.84 v -2.399"
         style="fill:none;stroke:#000000;stroke-width:0.072;stroke-linecap:butt;stroke-linejoin:miter;stroke-miterlimit:3.25;stroke-dasharray:none;stroke-opacity:1"
         id="path332" />
      <path
         d="m 357.184,267.84 v -2.399"
         style="fill:none;stroke:#000000;stroke-width:0.072;stroke-linecap:butt;stroke-linejoin:miter;stroke-miterlimit:3.25;stroke-dasharray:none;stroke-opacity:1"
         id="path334" />
      <path
         d="m 412.559,35.316 h -3.762"
         style="fill:none;stroke:#000000;stroke-width:0.072;stroke-linecap:butt;stroke-linejoin:miter;stroke-miterlimit:3.25;stroke-dasharray:none;stroke-opacity:1"
         id="path336" />
      <path
         d="m 412.559,98.949 h -3.762"
         style="fill:none;stroke:#000000;stroke-width:0.072;stroke-linecap:butt;stroke-linejoin:miter;stroke-miterlimit:3.25;stroke-dasharray:none;stroke-opacity:1"
         id="path338" />
      <path
         d="m 412.559,183.07 h -3.762"
         style="fill:none;stroke:#000000;stroke-width:0.072;stroke-linecap:butt;stroke-linejoin:miter;stroke-miterlimit:3.25;stroke-dasharray:none;stroke-opacity:1"
         id="path340" />
      <path
         d="m 412.559,246.703 h -3.762"
         style="fill:none;stroke:#000000;stroke-width:0.072;stroke-linecap:butt;stroke-linejoin:miter;stroke-miterlimit:3.25;stroke-dasharray:none;stroke-opacity:1"
         id="path342" />
      <path
         d="M 412.559,72.539 H 410.16"
         style="fill:none;stroke:#000000;stroke-width:0.072;stroke-linecap:butt;stroke-linejoin:miter;stroke-miterlimit:3.25;stroke-dasharray:none;stroke-opacity:1"
         id="path344" />
      <path
         d="M 412.559,136.172 H 410.16"
         style="fill:none;stroke:#000000;stroke-width:0.072;stroke-linecap:butt;stroke-linejoin:miter;stroke-miterlimit:3.25;stroke-dasharray:none;stroke-opacity:1"
         id="path346" />
      <path
         d="M 412.559,162.582 H 410.16"
         style="fill:none;stroke:#000000;stroke-width:0.072;stroke-linecap:butt;stroke-linejoin:miter;stroke-miterlimit:3.25;stroke-dasharray:none;stroke-opacity:1"
         id="path348" />
      <path
         d="M 412.559,199.805 H 410.16"
         style="fill:none;stroke:#000000;stroke-width:0.072;stroke-linecap:butt;stroke-linejoin:miter;stroke-miterlimit:3.25;stroke-dasharray:none;stroke-opacity:1"
         id="path350" />
      <path
         d="M 412.559,213.957 H 410.16"
         style="fill:none;stroke:#000000;stroke-width:0.072;stroke-linecap:butt;stroke-linejoin:miter;stroke-miterlimit:3.25;stroke-dasharray:none;stroke-opacity:1"
         id="path352" />
      <path
         d="M 412.559,226.215 H 410.16"
         style="fill:none;stroke:#000000;stroke-width:0.072;stroke-linecap:butt;stroke-linejoin:miter;stroke-miterlimit:3.25;stroke-dasharray:none;stroke-opacity:1"
         id="path354" />
      <path
         d="M 412.559,237.027 H 410.16"
         style="fill:none;stroke:#000000;stroke-width:0.072;stroke-linecap:butt;stroke-linejoin:miter;stroke-miterlimit:3.25;stroke-dasharray:none;stroke-opacity:1"
         id="path356" />
      <path
         d="M 412.559,255.453 H 410.16"
         style="fill:none;stroke:#000000;stroke-width:0.072;stroke-linecap:butt;stroke-linejoin:miter;stroke-miterlimit:3.25;stroke-dasharray:none;stroke-opacity:1"
         id="path358" />
      <path
         d="M 412.559,263.438 H 410.16"
         style="fill:none;stroke:#000000;stroke-width:0.072;stroke-linecap:butt;stroke-linejoin:miter;stroke-miterlimit:3.25;stroke-dasharray:none;stroke-opacity:1"
         id="path360" />
      <text
         xml:space="preserve"
         transform="matrix(1,0,0,-1,205.63988,3.998135)"
         style="font-variant:normal;font-size:11.5195px;font-family:CairoFont-3;-inkscape-font-specification:CairoFont-3-0;writing-mode:lr-tb;fill:#000000;fill-opacity:1;fill-rule:nonzero;stroke:none"
         id="text364"><tspan
           x="0"
           y="0"
           id="tspan362">m</tspan></text>
      <text
         xml:space="preserve"
         transform="matrix(1,0,0,-1,219.08318,3.998135)"
         style="font-variant:normal;font-weight:bold;font-size:11.5195px;font-family:MathematicaSans;-inkscape-font-specification:MathematicaSans-Bold;writing-mode:lr-tb;fill:#000000;fill-opacity:1;fill-rule:nonzero;stroke:none"
         id="text368"><tspan
           x="0"
           y="0"
           id="tspan366">(</tspan></text>
      <text
         xml:space="preserve"
         transform="matrix(1,0,0,-1,222.91918,3.998135)"
         style="font-variant:normal;font-weight:bold;font-size:11.5195px;font-family:Arial;-inkscape-font-specification:Arial-BoldMT;writing-mode:lr-tb;fill:#000000;fill-opacity:1;fill-rule:nonzero;stroke:none"
         id="text372"><tspan
           x="0"
           y="0"
           id="tspan370">M</tspan></text>
      <text
         xml:space="preserve"
         transform="matrix(1,0,0,-1,232.51488,1.998135)"
         style="font-variant:normal;font-weight:bold;font-size:8.17871px;font-family:MathematicaSans;-inkscape-font-specification:MathematicaSans-Bold;writing-mode:lr-tb;fill:#000000;fill-opacity:1;fill-rule:nonzero;stroke:none"
         id="text376"><tspan
           x="0"
           y="0"
           id="tspan374">☉</tspan></text>
      <text
         xml:space="preserve"
         transform="matrix(1,0,0,-1,239.4159,3.998135)"
         style="font-variant:normal;font-weight:bold;font-size:11.5195px;font-family:MathematicaSans;-inkscape-font-specification:MathematicaSans-Bold;writing-mode:lr-tb;fill:#000000;fill-opacity:1;fill-rule:nonzero;stroke:none"
         id="text380"><tspan
           x="0"
           y="0"
           id="tspan378">)</tspan></text>
      <text
         xml:space="preserve"
         transform="matrix(0,1,1,0,12,120.42299)"
         style="font-variant:normal;font-weight:bold;font-size:11.5195px;font-family:MathematicaSans;-inkscape-font-specification:MathematicaSans-Bold;writing-mode:lr-tb;fill:#000000;fill-opacity:1;fill-rule:nonzero;stroke:none"
         id="text384"><tspan
           x="0"
           y="0"
           id="tspan382">ψ</tspan></text>
      <text
         xml:space="preserve"
         transform="matrix(0,1,1,0,12,129.45431)"
         style="font-variant:normal;font-weight:bold;font-size:11.5195px;font-family:MathematicaSans;-inkscape-font-specification:MathematicaSans-Bold;writing-mode:lr-tb;fill:#000000;fill-opacity:1;fill-rule:nonzero;stroke:none"
         id="text388"><tspan
           x="0"
           y="0"
           id="tspan386">(</tspan></text>
      <text
         xml:space="preserve"
         transform="matrix(0,1,1,0,12,133.29031)"
         style="font-variant:normal;font-size:11.5195px;font-family:CairoFont-3;-inkscape-font-specification:CairoFont-3-0;writing-mode:lr-tb;fill:#000000;fill-opacity:1;fill-rule:nonzero;stroke:none"
         id="text392"><tspan
           x="0"
           y="0"
           id="tspan390">m</tspan></text>
      <text
         xml:space="preserve"
         transform="matrix(0,1,1,0,12,143.53117)"
         style="font-variant:normal;font-weight:bold;font-size:11.5195px;font-family:MathematicaSans;-inkscape-font-specification:MathematicaSans-Bold;writing-mode:lr-tb;fill:#000000;fill-opacity:1;fill-rule:nonzero;stroke:none"
         id="text396"><tspan
           x="0 7.0384336"
           y="0"
           sodipodi:role="line"
           id="tspan394">)/</tspan></text>
      <text
         xml:space="preserve"
         transform="matrix(0,1,1,0,12,156.96295)"
         style="font-variant:normal;font-weight:bold;font-size:11.5195px;font-family:MathematicaSans;-inkscape-font-specification:MathematicaSans-Bold;writing-mode:lr-tb;fill:#000000;fill-opacity:1;fill-rule:nonzero;stroke:none"
         id="text400"><tspan
           x="0"
           y="0"
           id="tspan398">ψ</tspan></text>
      <text
         xml:space="preserve"
         transform="matrix(0,1,1,0,14,166.00502)"
         style="font-variant:normal;font-weight:bold;font-size:8.17871px;font-family:Arial;-inkscape-font-specification:Arial-BoldMT;writing-mode:lr-tb;fill:#000000;fill-opacity:1;fill-rule:nonzero;stroke:none"
         id="text404"><tspan
           x="0 7.270874 11.818237"
           y="0"
           sodipodi:role="line"
           id="tspan402">max</tspan></text>
    </g>
  </g>
</svg>
